# MagicaVoxel @ Ephtracy

# group
g GDPVoxelMystery

# material
mtllib GDPVoxelMystery.mtl
usemtl palette

# normals
vn -1 0 0
vn 1 0 0
vn 0 0 1
vn 0 0 -1
vn 0 -1 0
vn 0 1 0

# texcoords
vt 0.103516 0.5
vt 0.287109 0.5
vt 0.416016 0.5
vt 0.595703 0.5
vt 0.626953 0.5
vt 0.771484 0.5
vt 0.806641 0.5
vt 0.845703 0.5
vt 0.857422 0.5
vt 0.966797 0.5
vt 0.994141 0.5

# verts
v -3.5 8 1.5
v -3.5 8 -1.5
v -3.5 9 2.5
v -3.5 9 1.5
v -3.5 10 2.5
v -3.5 10 -1.5
v -2.5 0 0.5
v -2.5 0 -1.5
v -2.5 0 -2.5
v -2.5 1 0.5
v -2.5 1 -1.5
v -2.5 1 -2.5
v -2.5 2 0.5
v -2.5 2 -0.5
v -2.5 3 0.5
v -2.5 3 -0.5
v -2.5 5 0.5
v -2.5 5 -0.5
v -2.5 6 1.5
v -2.5 6 0.5
v -2.5 6 -0.5
v -2.5 6 -1.5
v -2.5 7 2.5
v -2.5 7 1.5
v -2.5 8 2.5
v -2.5 8 1.5
v -2.5 8 -1.5
v -2.5 8 -2.5
v -2.5 9 3.5
v -2.5 9 2.5
v -2.5 9 1.5
v -2.5 9 -2.5
v -2.5 9 -3.5
v -2.5 10 3.5
v -2.5 10 2.5
v -2.5 10 -1.5
v -2.5 10 -3.5
v -2.5 10 -4.5
v -2.5 11 2.5
v -2.5 11 -4.5
v -1.5 0 2.5
v -1.5 0 1.5
v -1.5 0 0.5
v -1.5 1 2.5
v -1.5 1 1.5
v -1.5 1 0.5
v -1.5 1 -1.5
v -1.5 2 1.5
v -1.5 2 0.5
v -1.5 2 -0.5
v -1.5 2 -1.5
v -1.5 3 2.5
v -1.5 3 1.5
v -1.5 3 0.5
v -1.5 3 -0.5
v -1.5 3 -1.5
v -1.5 4 2.5
v -1.5 4 1.5
v -1.5 5 0.5
v -1.5 5 -0.5
v -1.5 5 -1.5
v -1.5 6 2.5
v -1.5 6 1.5
v -1.5 6 0.5
v -1.5 6 -0.5
v -1.5 6 -1.5
v -1.5 7 2.5
v -1.5 7 1.5
v -1.5 11 1.5
v -1.5 11 -3.5
v -1.5 12 1.5
v -1.5 12 -3.5
v -0.5 7 -1.5
v -0.5 7 -2.5
v -0.5 8 -1.5
v -0.5 8 -2.5
v -0.5 8 -3.5
v -0.5 9 -2.5
v -0.5 9 -3.5
v -0.5 9 -4.5
v -0.5 10 -3.5
v -0.5 10 -4.5
v -0.5 12 0.5
v -0.5 12 -2.5
v -0.5 13 0.5
v -0.5 13 -2.5
v 0.5 7 -2.5
v 0.5 7 -3.5
v 0.5 8 -2.5
v 0.5 8 -3.5
v 0.5 8 -4.5
v 0.5 9 -3.5
v 0.5 9 -4.5
v 0.5 13 -0.5
v 0.5 13 -1.5
v 0.5 14 -0.5
v 0.5 14 -1.5
v 1.5 13 -1.5
v 1.5 13 -2.5
v 1.5 14 -1.5
v 1.5 14 -2.5
v 2.5 7 2.5
v 2.5 7 1.5
v 2.5 8 1.5
v 2.5 9 2.5
v 2.5 9 1.5
v 2.5 13 -2.5
v 2.5 13 -3.5
v 2.5 14 -2.5
v 2.5 14 -3.5
v -0.5 7 2.5
v -0.5 7 1.5
v -0.5 8 2.5
v -0.5 8 1.5
v 0.5 3 2.5
v 0.5 3 1.5
v 0.5 4 2.5
v 0.5 4 1.5
v 0.5 5 2.5
v 0.5 5 1.5
v 0.5 6 2.5
v 0.5 6 1.5
v 0.5 8 2.5
v 0.5 8 1.5
v 0.5 9 2.5
v 0.5 9 1.5
v 1.5 7 -2.5
v 1.5 7 -3.5
v 1.5 8 -3.5
v 1.5 8 -4.5
v 1.5 9 -2.5
v 1.5 9 -4.5
v 1.5 12 -1.5
v 1.5 12 -2.5
v 1.5 13 -1.5
v 1.5 13 -2.5
v 2.5 0 2.5
v 2.5 0 0.5
v 2.5 1 2.5
v 2.5 1 1.5
v 2.5 1 0.5
v 2.5 1 -1.5
v 2.5 2 0.5
v 2.5 2 -0.5
v 2.5 3 0.5
v 2.5 3 -0.5
v 2.5 4 0.5
v 2.5 4 -0.5
v 2.5 5 1.5
v 2.5 5 0.5
v 2.5 5 -0.5
v 2.5 5 -1.5
v 2.5 6 2.5
v 2.5 6 1.5
v 2.5 6 0.5
v 2.5 6 -0.5
v 2.5 6 -1.5
v 2.5 7 2.5
v 2.5 7 1.5
v 2.5 7 -1.5
v 2.5 7 -2.5
v 2.5 9 -1.5
v 2.5 9 -2.5
v 2.5 9 -3.5
v 2.5 9 -4.5
v 2.5 10 -3.5
v 2.5 10 -4.5
v 2.5 11 1.5
v 2.5 11 -3.5
v 2.5 12 1.5
v 2.5 12 0.5
v 2.5 12 -1.5
v 2.5 12 -3.5
v 2.5 13 0.5
v 2.5 13 -0.5
v 2.5 13 -1.5
v 3.5 0 0.5
v 3.5 0 -1.5
v 3.5 0 -2.5
v 3.5 1 0.5
v 3.5 1 -1.5
v 3.5 1 -2.5
v 3.5 2 0.5
v 3.5 2 -0.5
v 3.5 3 0.5
v 3.5 3 -0.5
v 3.5 4 0.5
v 3.5 4 -0.5
v 3.5 5 0.5
v 3.5 5 -0.5
v 3.5 6 1.5
v 3.5 6 0.5
v 3.5 6 -0.5
v 3.5 6 -1.5
v 3.5 7 2.5
v 3.5 7 1.5
v 3.5 8 1.5
v 3.5 8 -1.5
v 3.5 9 3.5
v 3.5 9 2.5
v 3.5 9 1.5
v 3.5 9 -2.5
v 3.5 9 -3.5
v 3.5 10 3.5
v 3.5 10 2.5
v 3.5 10 -2.5
v 3.5 10 -3.5
v 3.5 10 -4.5
v 3.5 11 2.5
v 3.5 11 -4.5
v 3.5 13 -0.5
v 3.5 13 -1.5
v 3.5 13 -2.5
v 3.5 13 -3.5
v 3.5 14 -0.5
v 3.5 14 -1.5
v 3.5 14 -2.5
v 3.5 14 -3.5
v 4.5 8 1.5
v 4.5 8 -1.5
v 4.5 9 2.5
v 4.5 9 1.5
v 4.5 9 -1.5
v 4.5 9 -2.5
v 4.5 10 2.5
v 4.5 10 -2.5
v -2.5 9 3.5
v -2.5 10 3.5
v 0.5 9 3.5
v 0.5 10 3.5
v 2.5 9 3.5
v 2.5 10 3.5
v 3.5 9 3.5
v 3.5 10 3.5
v -3.5 9 2.5
v -3.5 10 2.5
v -2.5 7 2.5
v -2.5 8 2.5
v -2.5 9 2.5
v -2.5 10 2.5
v -2.5 11 2.5
v -1.5 0 2.5
v -1.5 1 2.5
v -1.5 3 2.5
v -1.5 4 2.5
v -1.5 6 2.5
v -1.5 7 2.5
v -1.5 8 2.5
v -1.5 9 2.5
v -0.5 0 2.5
v -0.5 1 2.5
v -0.5 3 2.5
v -0.5 4 2.5
v -0.5 5 2.5
v -0.5 7 2.5
v -0.5 8 2.5
v 0.5 3 2.5
v 0.5 4 2.5
v 0.5 5 2.5
v 0.5 6 2.5
v 0.5 8 2.5
v 0.5 9 2.5
v 0.5 10 2.5
v 1.5 0 2.5
v 1.5 1 2.5
v 2.5 0 2.5
v 2.5 1 2.5
v 2.5 6 2.5
v 2.5 7 2.5
v 2.5 9 2.5
v 2.5 10 2.5
v 3.5 7 2.5
v 3.5 9 2.5
v 3.5 10 2.5
v 3.5 11 2.5
v 4.5 9 2.5
v 4.5 10 2.5
v -3.5 8 1.5
v -3.5 9 1.5
v -2.5 6 1.5
v -2.5 7 1.5
v -2.5 8 1.5
v -2.5 9 1.5
v -1.5 1 1.5
v -1.5 2 1.5
v -1.5 3 1.5
v -1.5 6 1.5
v -1.5 7 1.5
v -1.5 11 1.5
v -1.5 12 1.5
v -0.5 1 1.5
v -0.5 2 1.5
v -0.5 3 1.5
v -0.5 7 1.5
v -0.5 8 1.5
v 0.5 1 1.5
v 0.5 3 1.5
v 0.5 4 1.5
v 0.5 5 1.5
v 0.5 6 1.5
v 0.5 8 1.5
v 0.5 9 1.5
v 1.5 1 1.5
v 1.5 8 1.5
v 1.5 9 1.5
v 2.5 1 1.5
v 2.5 5 1.5
v 2.5 6 1.5
v 2.5 7 1.5
v 2.5 8 1.5
v 2.5 9 1.5
v 2.5 11 1.5
v 2.5 12 1.5
v 3.5 6 1.5
v 3.5 7 1.5
v 3.5 8 1.5
v 3.5 9 1.5
v 4.5 8 1.5
v 4.5 9 1.5
v -2.5 0 0.5
v -2.5 1 0.5
v -2.5 2 0.5
v -2.5 3 0.5
v -2.5 5 0.5
v -2.5 6 0.5
v -1.5 0 0.5
v -1.5 1 0.5
v -1.5 2 0.5
v -1.5 3 0.5
v -1.5 5 0.5
v -1.5 6 0.5
v -0.5 12 0.5
v -0.5 13 0.5
v 2.5 0 0.5
v 2.5 1 0.5
v 2.5 2 0.5
v 2.5 3 0.5
v 2.5 4 0.5
v 2.5 5 0.5
v 2.5 6 0.5
v 2.5 12 0.5
v 2.5 13 0.5
v 3.5 0 0.5
v 3.5 1 0.5
v 3.5 2 0.5
v 3.5 3 0.5
v 3.5 4 0.5
v 3.5 5 0.5
v 3.5 6 0.5
v 0.5 13 -0.5
v 0.5 14 -0.5
v 1.5 13 -0.5
v 1.5 14 -0.5
v 2.5 13 -0.5
v 2.5 14 -0.5
v 3.5 13 -0.5
v 3.5 14 -0.5
v -2.5 2 -0.5
v -2.5 3 -0.5
v -2.5 5 -0.5
v -2.5 6 -0.5
v -1.5 2 -0.5
v -1.5 3 -0.5
v -1.5 5 -0.5
v -1.5 6 -0.5
v 2.5 2 -0.5
v 2.5 3 -0.5
v 2.5 4 -0.5
v 2.5 5 -0.5
v 2.5 6 -0.5
v 3.5 2 -0.5
v 3.5 3 -0.5
v 3.5 4 -0.5
v 3.5 5 -0.5
v 3.5 6 -0.5
v -3.5 8 -1.5
v -3.5 10 -1.5
v -2.5 6 -1.5
v -2.5 8 -1.5
v -2.5 10 -1.5
v -1.5 1 -1.5
v -1.5 2 -1.5
v -1.5 3 -1.5
v -1.5 5 -1.5
v -1.5 6 -1.5
v -0.5 1 -1.5
v -0.5 2 -1.5
v -0.5 3 -1.5
v -0.5 4 -1.5
v -0.5 7 -1.5
v -0.5 8 -1.5
v 0.5 3 -1.5
v 0.5 4 -1.5
v 0.5 6 -1.5
v 0.5 7 -1.5
v 0.5 13 -1.5
v 0.5 14 -1.5
v 1.5 1 -1.5
v 1.5 2 -1.5
v 1.5 12 -1.5
v 1.5 13 -1.5
v 1.5 14 -1.5
v 2.5 1 -1.5
v 2.5 5 -1.5
v 2.5 6 -1.5
v 2.5 7 -1.5
v 2.5 9 -1.5
v 2.5 12 -1.5
v 2.5 13 -1.5
v 3.5 6 -1.5
v 3.5 8 -1.5
v 3.5 9 -1.5
v 4.5 8 -1.5
v 4.5 9 -1.5
v -2.5 0 -2.5
v -2.5 1 -2.5
v -2.5 8 -2.5
v -2.5 9 -2.5
v -1.5 0 -2.5
v -1.5 1 -2.5
v -0.5 0 -2.5
v -0.5 1 -2.5
v -0.5 7 -2.5
v -0.5 8 -2.5
v -0.5 9 -2.5
v -0.5 12 -2.5
v -0.5 13 -2.5
v 0.5 7 -2.5
v 0.5 8 -2.5
v 1.5 0 -2.5
v 1.5 1 -2.5
v 1.5 7 -2.5
v 1.5 9 -2.5
v 1.5 12 -2.5
v 1.5 13 -2.5
v 1.5 14 -2.5
v 2.5 0 -2.5
v 2.5 1 -2.5
v 2.5 7 -2.5
v 2.5 9 -2.5
v 2.5 13 -2.5
v 2.5 14 -2.5
v 3.5 0 -2.5
v 3.5 1 -2.5
v 3.5 9 -2.5
v 3.5 10 -2.5
v 4.5 9 -2.5
v 4.5 10 -2.5
v -2.5 9 -3.5
v -2.5 10 -3.5
v -1.5 11 -3.5
v -1.5 12 -3.5
v -0.5 8 -3.5
v -0.5 9 -3.5
v -0.5 10 -3.5
v 0.5 7 -3.5
v 0.5 8 -3.5
v 0.5 9 -3.5
v 1.5 7 -3.5
v 1.5 8 -3.5
v 2.5 9 -3.5
v 2.5 10 -3.5
v 2.5 11 -3.5
v 2.5 12 -3.5
v 2.5 13 -3.5
v 2.5 14 -3.5
v 3.5 9 -3.5
v 3.5 10 -3.5
v 3.5 13 -3.5
v 3.5 14 -3.5
v -2.5 10 -4.5
v -2.5 11 -4.5
v -0.5 9 -4.5
v -0.5 10 -4.5
v 0.5 8 -4.5
v 0.5 9 -4.5
v 1.5 8 -4.5
v 1.5 9 -4.5
v 2.5 9 -4.5
v 2.5 10 -4.5
v 3.5 10 -4.5
v 3.5 11 -4.5
v -1.5 0 2.5
v -0.5 0 2.5
v 1.5 0 2.5
v 2.5 0 2.5
v -1.5 0 1.5
v -0.5 0 1.5
v 1.5 0 1.5
v -2.5 0 0.5
v -1.5 0 0.5
v -0.5 0 0.5
v 1.5 0 0.5
v 2.5 0 0.5
v 3.5 0 0.5
v -0.5 0 -0.5
v 1.5 0 -0.5
v -2.5 0 -1.5
v -1.5 0 -1.5
v -0.5 0 -1.5
v 1.5 0 -1.5
v 2.5 0 -1.5
v 3.5 0 -1.5
v -2.5 0 -2.5
v -1.5 0 -2.5
v -0.5 0 -2.5
v 1.5 0 -2.5
v 2.5 0 -2.5
v 3.5 0 -2.5
v -2.5 2 0.5
v -1.5 2 0.5
v 2.5 2 0.5
v 3.5 2 0.5
v -2.5 2 -0.5
v -1.5 2 -0.5
v 2.5 2 -0.5
v 3.5 2 -0.5
v -1.5 3 2.5
v -0.5 3 2.5
v 0.5 3 2.5
v -1.5 3 1.5
v -0.5 3 1.5
v 0.5 3 1.5
v 0.5 6 2.5
v 2.5 6 2.5
v -2.5 6 1.5
v -1.5 6 1.5
v 0.5 6 1.5
v 2.5 6 1.5
v 3.5 6 1.5
v -2.5 6 0.5
v -1.5 6 0.5
v 2.5 6 0.5
v 3.5 6 0.5
v -2.5 6 -0.5
v -1.5 6 -0.5
v 2.5 6 -0.5
v 3.5 6 -0.5
v -2.5 6 -1.5
v -1.5 6 -1.5
v 2.5 6 -1.5
v 3.5 6 -1.5
v -2.5 7 2.5
v -1.5 7 2.5
v 2.5 7 2.5
v 3.5 7 2.5
v -2.5 7 1.5
v -1.5 7 1.5
v 2.5 7 1.5
v 3.5 7 1.5
v -0.5 7 -1.5
v 0.5 7 -1.5
v 2.5 7 -1.5
v -0.5 7 -2.5
v 0.5 7 -2.5
v 1.5 7 -2.5
v 2.5 7 -2.5
v 0.5 7 -3.5
v 1.5 7 -3.5
v -0.5 8 2.5
v 0.5 8 2.5
v -3.5 8 1.5
v -2.5 8 1.5
v -0.5 8 1.5
v 0.5 8 1.5
v 3.5 8 1.5
v 4.5 8 1.5
v -3.5 8 -1.5
v -2.5 8 -1.5
v -0.5 8 -1.5
v 3.5 8 -1.5
v 4.5 8 -1.5
v -2.5 8 -2.5
v -0.5 8 -2.5
v 0.5 8 -2.5
v -0.5 8 -3.5
v 0.5 8 -3.5
v 1.5 8 -3.5
v 0.5 8 -4.5
v 1.5 8 -4.5
v -2.5 9 3.5
v 0.5 9 3.5
v 2.5 9 3.5
v 3.5 9 3.5
v -3.5 9 2.5
v -2.5 9 2.5
v -1.5 9 2.5
v 0.5 9 2.5
v 2.5 9 2.5
v 3.5 9 2.5
v 4.5 9 2.5
v -3.5 9 1.5
v -2.5 9 1.5
v 0.5 9 1.5
v 1.5 9 1.5
v 2.5 9 1.5
v 3.5 9 1.5
v 4.5 9 1.5
v 2.5 9 -1.5
v 3.5 9 -1.5
v 4.5 9 -1.5
v -2.5 9 -2.5
v -0.5 9 -2.5
v 1.5 9 -2.5
v 2.5 9 -2.5
v 3.5 9 -2.5
v 4.5 9 -2.5
v -2.5 9 -3.5
v -0.5 9 -3.5
v 0.5 9 -3.5
v 2.5 9 -3.5
v 3.5 9 -3.5
v -0.5 9 -4.5
v 0.5 9 -4.5
v 1.5 9 -4.5
v 2.5 9 -4.5
v -2.5 10 -3.5
v -0.5 10 -3.5
v 2.5 10 -3.5
v 3.5 10 -3.5
v -2.5 10 -4.5
v -0.5 10 -4.5
v 2.5 10 -4.5
v 3.5 10 -4.5
v 2.5 13 -0.5
v 3.5 13 -0.5
v 1.5 13 -1.5
v 2.5 13 -1.5
v 3.5 13 -1.5
v 1.5 13 -2.5
v 2.5 13 -2.5
v 3.5 13 -2.5
v 2.5 13 -3.5
v 3.5 13 -3.5
v -1.5 1 2.5
v -0.5 1 2.5
v 1.5 1 2.5
v 2.5 1 2.5
v -1.5 1 1.5
v -0.5 1 1.5
v 0.5 1 1.5
v 1.5 1 1.5
v 2.5 1 1.5
v -2.5 1 0.5
v -1.5 1 0.5
v 2.5 1 0.5
v 3.5 1 0.5
v -2.5 1 -1.5
v -1.5 1 -1.5
v -0.5 1 -1.5
v 1.5 1 -1.5
v 2.5 1 -1.5
v 3.5 1 -1.5
v -2.5 1 -2.5
v -1.5 1 -2.5
v -0.5 1 -2.5
v 1.5 1 -2.5
v 2.5 1 -2.5
v 3.5 1 -2.5
v -0.5 7 2.5
v 2.5 7 2.5
v -0.5 7 1.5
v 2.5 7 1.5
v -2.5 10 3.5
v 0.5 10 3.5
v 2.5 10 3.5
v 3.5 10 3.5
v -3.5 10 2.5
v -2.5 10 2.5
v 0.5 10 2.5
v 2.5 10 2.5
v 3.5 10 2.5
v 4.5 10 2.5
v -3.5 10 -1.5
v -2.5 10 -1.5
v 3.5 10 -2.5
v 4.5 10 -2.5
v -2.5 11 2.5
v 3.5 11 2.5
v -1.5 11 1.5
v 2.5 11 1.5
v -1.5 11 -3.5
v 2.5 11 -3.5
v -2.5 11 -4.5
v 3.5 11 -4.5
v -1.5 12 1.5
v 2.5 12 1.5
v -0.5 12 0.5
v 2.5 12 0.5
v 1.5 12 -1.5
v 2.5 12 -1.5
v -0.5 12 -2.5
v 1.5 12 -2.5
v -1.5 12 -3.5
v 2.5 12 -3.5
v -0.5 13 0.5
v 2.5 13 0.5
v 0.5 13 -0.5
v 1.5 13 -0.5
v 2.5 13 -0.5
v 0.5 13 -1.5
v 1.5 13 -1.5
v -0.5 13 -2.5
v 1.5 13 -2.5
v 0.5 14 -0.5
v 1.5 14 -0.5
v 2.5 14 -0.5
v 3.5 14 -0.5
v 0.5 14 -1.5
v 1.5 14 -1.5
v 2.5 14 -1.5
v 3.5 14 -1.5
v 1.5 14 -2.5
v 2.5 14 -2.5
v 3.5 14 -2.5
v 2.5 14 -3.5
v 3.5 14 -3.5

# faces
f 4/8/1 2/8/1 1/8/1
f 5/8/1 4/8/1 3/8/1
f 6/8/1 2/8/1 4/8/1
f 6/8/1 4/8/1 5/8/1
f 10/8/1 8/8/1 7/8/1
f 11/7/1 9/7/1 8/7/1
f 11/8/1 8/8/1 10/8/1
f 12/7/1 9/7/1 11/7/1
f 15/7/1 14/7/1 13/7/1
f 16/7/1 14/7/1 15/7/1
f 17/8/1 16/8/1 15/8/1
f 18/8/1 16/8/1 17/8/1
f 20/7/1 18/7/1 17/7/1
f 21/7/1 18/7/1 20/7/1
f 24/8/1 21/8/1 20/8/1
f 24/8/1 22/8/1 21/8/1
f 24/8/1 20/8/1 19/8/1
f 25/3/1 24/3/1 23/3/1
f 26/8/1 22/8/1 24/8/1
f 26/3/1 24/3/1 25/3/1
f 27/8/1 22/8/1 26/8/1
f 30/9/1 26/9/1 25/9/1
f 31/9/1 26/9/1 30/9/1
f 32/8/1 28/8/1 27/8/1
f 34/9/1 30/9/1 29/9/1
f 35/9/1 30/9/1 34/9/1
f 36/8/1 32/8/1 27/8/1
f 36/8/1 33/8/1 32/8/1
f 37/8/1 33/8/1 36/8/1
f 39/7/1 38/7/1 37/7/1
f 39/7/1 37/7/1 36/7/1
f 39/7/1 36/7/1 35/7/1
f 40/7/1 38/7/1 39/7/1
f 44/9/1 42/9/1 41/9/1
f 45/8/1 43/8/1 42/8/1
f 45/9/1 42/9/1 44/9/1
f 46/8/1 43/8/1 45/8/1
f 48/9/1 46/9/1 45/9/1
f 49/8/1 47/8/1 46/8/1
f 49/9/1 46/9/1 48/9/1
f 50/8/1 47/8/1 49/8/1
f 51/8/1 47/8/1 50/8/1
f 53/8/1 49/8/1 48/8/1
f 54/8/1 49/8/1 53/8/1
f 55/9/1 51/9/1 50/9/1
f 56/9/1 51/9/1 55/9/1
f 57/8/1 54/8/1 53/8/1
f 57/8/1 53/8/1 52/8/1
f 58/8/1 54/8/1 57/8/1
f 59/8/1 54/8/1 58/8/1
f 60/8/1 56/8/1 55/8/1
f 61/8/1 56/8/1 60/8/1
f 62/7/1 58/7/1 57/7/1
f 63/8/1 59/8/1 58/8/1
f 63/7/1 58/7/1 62/7/1
f 64/8/1 59/8/1 63/8/1
f 65/9/1 61/9/1 60/9/1
f 66/9/1 61/9/1 65/9/1
f 67/8/1 63/8/1 62/8/1
f 68/8/1 63/8/1 67/8/1
f 71/9/1 70/9/1 69/9/1
f 72/9/1 70/9/1 71/9/1
f 75/8/1 74/8/1 73/8/1
f 76/8/1 74/8/1 75/8/1
f 78/8/1 77/8/1 76/8/1
f 79/8/1 77/8/1 78/8/1
f 81/8/1 80/8/1 79/8/1
f 82/8/1 80/8/1 81/8/1
f 85/8/1 84/8/1 83/8/1
f 86/8/1 84/8/1 85/8/1
f 89/8/1 88/8/1 87/8/1
f 90/8/1 88/8/1 89/8/1
f 92/8/1 91/8/1 90/8/1
f 93/8/1 91/8/1 92/8/1
f 96/8/1 95/8/1 94/8/1
f 97/8/1 95/8/1 96/8/1
f 100/7/1 99/7/1 98/7/1
f 101/7/1 99/7/1 100/7/1
f 104/3/1 103/3/1 102/3/1
f 105/3/1 104/3/1 102/3/1
f 106/3/1 104/3/1 105/3/1
f 109/9/1 108/9/1 107/9/1
f 110/9/1 108/9/1 109/9/1
f 111/3/2 112/3/2 113/3/2
f 113/3/2 112/3/2 114/3/2
f 115/7/2 116/7/2 117/7/2
f 117/7/2 116/7/2 118/7/2
f 117/8/2 118/8/2 119/8/2
f 119/8/2 118/8/2 120/8/2
f 119/7/2 120/7/2 121/7/2
f 121/7/2 120/7/2 122/7/2
f 123/3/2 124/3/2 125/3/2
f 125/3/2 124/3/2 126/3/2
f 127/8/2 128/8/2 129/8/2
f 127/8/2 129/8/2 131/8/2
f 129/8/2 130/8/2 131/8/2
f 131/8/2 130/8/2 132/8/2
f 133/8/2 134/8/2 135/8/2
f 135/8/2 134/8/2 136/8/2
f 137/8/2 138/8/2 139/8/2
f 139/8/2 138/8/2 140/8/2
f 140/8/2 138/8/2 141/8/2
f 141/8/2 142/8/2 143/8/2
f 140/8/2 141/8/2 143/8/2
f 143/8/2 142/8/2 144/8/2
f 140/8/2 143/8/2 145/8/2
f 144/8/2 142/8/2 146/8/2
f 140/8/2 145/8/2 147/8/2
f 146/8/2 142/8/2 148/8/2
f 140/8/2 147/8/2 149/8/2
f 149/8/2 147/8/2 150/8/2
f 148/8/2 142/8/2 151/8/2
f 151/8/2 142/8/2 152/8/2
f 149/9/2 150/9/2 154/9/2
f 154/9/2 150/9/2 155/9/2
f 151/9/2 152/9/2 156/9/2
f 156/9/2 152/9/2 157/9/2
f 153/8/2 154/8/2 158/8/2
f 158/8/2 154/8/2 159/8/2
f 160/8/2 161/8/2 162/8/2
f 162/8/2 161/8/2 163/8/2
f 164/8/2 165/8/2 166/8/2
f 166/8/2 165/8/2 167/8/2
f 168/9/2 169/9/2 170/9/2
f 170/9/2 169/9/2 171/9/2
f 171/9/2 169/9/2 172/9/2
f 172/9/2 169/9/2 173/9/2
f 171/8/2 172/8/2 174/8/2
f 174/8/2 172/8/2 175/8/2
f 175/8/2 172/8/2 176/8/2
f 177/9/2 178/9/2 180/9/2
f 178/7/2 179/7/2 181/7/2
f 180/9/2 178/9/2 181/9/2
f 181/7/2 179/7/2 182/7/2
f 183/7/2 184/7/2 185/7/2
f 185/7/2 184/7/2 186/7/2
f 185/8/2 186/8/2 187/8/2
f 187/8/2 186/8/2 188/8/2
f 187/9/2 188/9/2 189/9/2
f 189/9/2 188/9/2 190/9/2
f 189/7/2 190/7/2 192/7/2
f 192/7/2 190/7/2 193/7/2
f 192/8/2 193/8/2 196/8/2
f 193/8/2 194/8/2 196/8/2
f 191/8/2 192/8/2 196/8/2
f 196/8/2 194/8/2 197/8/2
f 195/3/2 196/3/2 197/3/2
f 197/8/2 194/8/2 198/8/2
f 195/3/2 197/3/2 200/3/2
f 200/3/2 197/3/2 201/3/2
f 199/9/2 200/9/2 204/9/2
f 204/9/2 200/9/2 205/9/2
f 202/8/2 203/8/2 206/8/2
f 206/8/2 203/8/2 207/8/2
f 207/7/2 208/7/2 209/7/2
f 206/7/2 207/7/2 209/7/2
f 205/7/2 206/7/2 209/7/2
f 209/7/2 208/7/2 210/7/2
f 211/8/2 212/8/2 215/8/2
f 212/7/2 213/7/2 216/7/2
f 215/8/2 212/8/2 216/8/2
f 213/9/2 214/9/2 217/9/2
f 216/7/2 213/7/2 217/7/2
f 217/9/2 214/9/2 218/9/2
f 219/9/2 220/9/2 222/9/2
f 222/9/2 220/9/2 223/9/2
f 221/8/2 222/8/2 225/8/2
f 223/8/2 224/8/2 225/8/2
f 222/8/2 223/8/2 225/8/2
f 225/8/2 224/8/2 226/8/2
f 229/9/3 228/9/3 227/9/3
f 230/9/3 228/9/3 229/9/3
f 231/8/3 230/8/3 229/8/3
f 232/8/3 230/8/3 231/8/3
f 233/9/3 232/9/3 231/9/3
f 234/9/3 232/9/3 233/9/3
f 239/8/3 236/8/3 235/8/3
f 240/8/3 236/8/3 239/8/3
f 247/3/3 238/3/3 237/3/3
f 248/9/3 239/9/3 238/9/3
f 248/3/3 238/3/3 247/3/3
f 249/9/3 239/9/3 248/9/3
f 250/9/3 243/9/3 242/9/3
f 251/9/3 243/9/3 250/9/3
f 252/8/3 245/8/3 244/8/3
f 253/7/3 246/7/3 245/7/3
f 253/8/3 245/8/3 252/8/3
f 254/7/3 246/7/3 253/7/3
f 255/8/3 247/8/3 246/8/3
f 255/3/3 248/3/3 247/3/3
f 255/3/3 249/3/3 248/3/3
f 256/3/3 249/3/3 255/3/3
f 257/7/3 253/7/3 252/7/3
f 258/8/3 254/8/3 253/8/3
f 258/7/3 253/7/3 257/7/3
f 259/7/3 246/7/3 254/7/3
f 259/8/3 254/8/3 258/8/3
f 260/8/3 255/8/3 246/8/3
f 260/7/3 246/7/3 259/7/3
f 261/3/3 249/3/3 256/3/3
f 262/3/3 249/3/3 261/3/3
f 263/7/3 241/7/3 240/7/3
f 264/7/3 251/7/3 250/7/3
f 265/7/3 251/7/3 264/7/3
f 266/8/3 265/8/3 264/8/3
f 267/8/3 265/8/3 266/8/3
f 268/8/3 255/8/3 260/8/3
f 269/8/3 255/8/3 268/8/3
f 271/7/3 241/7/3 263/7/3
f 272/3/3 270/3/3 269/3/3
f 273/3/3 270/3/3 272/3/3
f 274/7/3 241/7/3 271/7/3
f 275/7/3 241/7/3 274/7/3
f 276/8/3 274/8/3 273/8/3
f 277/8/3 274/8/3 276/8/3
f 282/8/3 279/8/3 278/8/3
f 283/8/3 279/8/3 282/8/3
f 287/8/3 281/8/3 280/8/3
f 288/8/3 281/8/3 287/8/3
f 291/9/3 285/9/3 284/9/3
f 292/8/3 286/8/3 285/8/3
f 292/9/3 285/9/3 291/9/3
f 293/8/3 286/8/3 292/8/3
f 296/9/3 292/9/3 291/9/3
f 296/9/3 293/9/3 292/9/3
f 297/9/3 293/9/3 296/9/3
f 301/1/3 295/1/3 294/1/3
f 303/8/3 297/8/3 296/8/3
f 303/8/3 298/8/3 297/8/3
f 303/8/3 299/8/3 298/8/3
f 304/1/3 302/1/3 301/1/3
f 304/1/3 301/1/3 294/1/3
f 305/1/3 302/1/3 304/1/3
f 306/8/3 299/8/3 303/8/3
f 307/9/3 300/9/3 299/9/3
f 307/8/3 299/8/3 306/8/3
f 308/9/3 300/9/3 307/9/3
f 309/1/3 304/1/3 294/1/3
f 310/6/3 305/6/3 304/6/3
f 310/1/3 304/1/3 309/1/3
f 311/6/3 305/6/3 310/6/3
f 312/9/3 290/9/3 289/9/3
f 313/9/3 290/9/3 312/9/3
f 314/8/3 309/8/3 308/8/3
f 315/8/3 309/8/3 314/8/3
f 318/9/3 317/9/3 316/9/3
f 319/9/3 317/9/3 318/9/3
f 326/8/3 321/8/3 320/8/3
f 327/8/3 321/8/3 326/8/3
f 328/7/3 323/7/3 322/7/3
f 329/8/3 324/8/3 323/8/3
f 329/7/3 323/7/3 328/7/3
f 330/7/3 325/7/3 324/7/3
f 330/8/3 324/8/3 329/8/3
f 331/7/3 325/7/3 330/7/3
f 341/8/3 333/8/3 332/8/3
f 342/8/3 333/8/3 341/8/3
f 343/9/3 335/9/3 334/9/3
f 344/9/3 335/9/3 343/9/3
f 345/7/3 337/7/3 336/7/3
f 346/8/3 338/8/3 337/8/3
f 346/7/3 337/7/3 345/7/3
f 347/9/3 339/9/3 338/9/3
f 347/8/3 338/8/3 346/8/3
f 348/7/3 340/7/3 339/7/3
f 348/9/3 339/9/3 347/9/3
f 349/7/3 340/7/3 348/7/3
f 352/8/3 351/8/3 350/8/3
f 353/8/3 351/8/3 352/8/3
f 354/9/3 353/9/3 352/9/3
f 355/9/3 353/9/3 354/9/3
f 356/8/3 355/8/3 354/8/3
f 357/8/3 355/8/3 356/8/3
f 358/7/4 359/7/4 362/7/4
f 359/8/4 360/8/4 363/8/4
f 362/7/4 359/7/4 363/7/4
f 360/7/4 361/7/4 364/7/4
f 363/8/4 360/8/4 364/8/4
f 364/7/4 361/7/4 365/7/4
f 366/7/4 367/7/4 371/7/4
f 367/8/4 368/8/4 372/8/4
f 371/7/4 367/7/4 372/7/4
f 368/9/4 369/9/4 373/9/4
f 372/8/4 368/8/4 373/8/4
f 369/7/4 370/7/4 374/7/4
f 373/9/4 369/9/4 374/9/4
f 374/7/4 370/7/4 375/7/4
f 376/8/4 377/8/4 379/8/4
f 379/8/4 377/8/4 380/8/4
f 378/8/4 379/8/4 385/8/4
f 381/8/4 382/8/4 386/8/4
f 382/9/4 383/9/4 387/9/4
f 386/8/4 382/8/4 387/8/4
f 383/8/4 384/8/4 388/8/4
f 387/9/4 383/9/4 388/9/4
f 388/8/4 384/8/4 389/8/4
f 385/8/4 379/8/4 390/8/4
f 390/8/4 379/8/4 391/8/4
f 387/8/4 388/8/4 392/8/4
f 388/9/4 389/9/4 392/9/4
f 389/8/4 384/8/4 393/8/4
f 392/9/4 389/9/4 393/9/4
f 384/9/4 385/9/4 394/9/4
f 385/8/4 390/8/4 394/8/4
f 394/8/4 390/8/4 395/8/4
f 386/7/4 387/7/4 398/7/4
f 387/8/4 392/8/4 399/8/4
f 398/7/4 387/7/4 399/7/4
f 392/8/4 393/8/4 399/8/4
f 396/8/4 397/8/4 401/8/4
f 401/8/4 397/8/4 402/8/4
f 398/8/4 399/8/4 403/8/4
f 399/8/4 393/8/4 404/8/4
f 403/8/4 399/8/4 404/8/4
f 394/9/4 395/9/4 404/9/4
f 393/8/4 384/8/4 404/8/4
f 384/9/4 394/9/4 404/9/4
f 404/9/4 395/9/4 405/9/4
f 405/9/4 395/9/4 406/9/4
f 400/8/4 401/8/4 408/8/4
f 408/8/4 401/8/4 409/8/4
f 406/8/4 407/8/4 410/8/4
f 405/8/4 406/8/4 410/8/4
f 410/8/4 407/8/4 411/8/4
f 411/8/4 407/8/4 412/8/4
f 411/9/4 412/9/4 413/9/4
f 413/9/4 412/9/4 414/9/4
f 415/7/4 416/7/4 419/7/4
f 419/7/4 416/7/4 420/7/4
f 419/8/4 420/8/4 421/8/4
f 421/8/4 420/8/4 422/8/4
f 417/8/4 418/8/4 424/8/4
f 424/8/4 418/8/4 425/8/4
f 423/8/4 424/8/4 428/8/4
f 428/8/4 424/8/4 429/8/4
f 421/9/4 422/9/4 430/9/4
f 430/9/4 422/9/4 431/9/4
f 426/8/4 427/8/4 434/8/4
f 434/8/4 427/8/4 435/8/4
f 430/8/4 431/8/4 437/8/4
f 437/8/4 431/8/4 438/8/4
f 432/8/4 433/8/4 439/8/4
f 439/8/4 433/8/4 440/8/4
f 435/7/4 436/7/4 441/7/4
f 441/7/4 436/7/4 442/7/4
f 437/7/4 438/7/4 443/7/4
f 443/7/4 438/7/4 444/7/4
f 445/8/4 446/8/4 447/8/4
f 447/8/4 446/8/4 448/8/4
f 449/8/4 450/8/4 454/8/4
f 454/8/4 450/8/4 455/8/4
f 453/8/4 454/8/4 457/8/4
f 457/8/4 454/8/4 458/8/4
f 456/8/4 457/8/4 459/8/4
f 459/8/4 457/8/4 460/8/4
f 451/9/4 452/9/4 463/9/4
f 463/9/4 452/9/4 464/9/4
f 461/8/4 462/8/4 467/8/4
f 467/8/4 462/8/4 468/8/4
f 465/9/4 466/9/4 469/9/4
f 469/9/4 466/9/4 470/9/4
f 471/7/4 472/7/4 474/7/4
f 473/8/4 474/8/4 476/8/4
f 475/8/4 476/8/4 477/8/4
f 476/8/4 474/8/4 478/8/4
f 477/8/4 476/8/4 478/8/4
f 478/8/4 474/8/4 479/8/4
f 474/7/4 472/7/4 480/7/4
f 479/8/4 474/8/4 480/8/4
f 480/7/4 472/7/4 481/7/4
f 481/7/4 472/7/4 482/7/4
f 487/9/5 484/9/5 483/9/5
f 488/7/5 485/7/5 484/7/5
f 488/9/5 484/9/5 487/9/5
f 489/8/5 486/8/5 485/8/5
f 489/7/5 485/7/5 488/7/5
f 491/8/5 488/8/5 487/8/5
f 492/11/5 489/11/5 488/11/5
f 492/8/5 488/8/5 491/8/5
f 493/8/5 486/8/5 489/8/5
f 493/11/5 489/11/5 492/11/5
f 494/8/5 486/8/5 493/8/5
f 496/11/5 492/11/5 491/11/5
f 496/5/5 493/5/5 492/5/5
f 497/11/5 494/11/5 493/11/5
f 497/5/5 493/5/5 496/5/5
f 498/8/5 491/8/5 490/8/5
f 499/11/5 496/11/5 491/11/5
f 499/8/5 491/8/5 498/8/5
f 500/4/5 497/4/5 496/4/5
f 500/11/5 496/11/5 499/11/5
f 501/11/5 494/11/5 497/11/5
f 501/4/5 497/4/5 500/4/5
f 502/9/5 495/9/5 494/9/5
f 502/11/5 494/11/5 501/11/5
f 503/9/5 495/9/5 502/9/5
f 504/7/5 499/7/5 498/7/5
f 505/8/5 500/8/5 499/8/5
f 505/7/5 499/7/5 504/7/5
f 506/9/5 501/9/5 500/9/5
f 506/8/5 500/8/5 505/8/5
f 507/8/5 502/8/5 501/8/5
f 507/9/5 501/9/5 506/9/5
f 508/7/5 503/7/5 502/7/5
f 508/8/5 502/8/5 507/8/5
f 509/7/5 503/7/5 508/7/5
f 514/7/5 511/7/5 510/7/5
f 515/7/5 511/7/5 514/7/5
f 516/7/5 513/7/5 512/7/5
f 517/7/5 513/7/5 516/7/5
f 521/8/5 519/8/5 518/8/5
f 522/7/5 520/7/5 519/7/5
f 522/8/5 519/8/5 521/8/5
f 523/7/5 520/7/5 522/7/5
f 528/8/5 525/8/5 524/8/5
f 529/8/5 525/8/5 528/8/5
f 531/8/5 527/8/5 526/8/5
f 532/8/5 527/8/5 531/8/5
f 533/8/5 530/8/5 529/8/5
f 534/8/5 530/8/5 533/8/5
f 539/8/5 536/8/5 535/8/5
f 540/8/5 536/8/5 539/8/5
f 541/8/5 538/8/5 537/8/5
f 542/8/5 538/8/5 541/8/5
f 547/3/5 544/3/5 543/3/5
f 548/3/5 544/3/5 547/3/5
f 549/3/5 546/3/5 545/3/5
f 550/3/5 546/3/5 549/3/5
f 554/8/5 552/8/5 551/8/5
f 554/8/5 553/8/5 552/8/5
f 555/8/5 553/8/5 554/8/5
f 556/8/5 553/8/5 555/8/5
f 557/8/5 553/8/5 556/8/5
f 558/8/5 556/8/5 555/8/5
f 559/8/5 556/8/5 558/8/5
f 564/3/5 561/3/5 560/3/5
f 565/3/5 561/3/5 564/3/5
f 568/8/5 563/8/5 562/8/5
f 569/8/5 563/8/5 568/8/5
f 571/9/5 567/9/5 566/9/5
f 572/9/5 567/9/5 571/9/5
f 573/8/5 570/8/5 569/8/5
f 574/8/5 570/8/5 573/8/5
f 576/8/5 575/8/5 574/8/5
f 577/8/5 575/8/5 576/8/5
f 579/8/5 578/8/5 577/8/5
f 580/8/5 578/8/5 579/8/5
f 586/9/5 582/9/5 581/9/5
f 587/9/5 582/9/5 586/9/5
f 588/8/5 583/8/5 582/8/5
f 588/9/5 582/9/5 587/9/5
f 589/9/5 584/9/5 583/9/5
f 589/8/5 583/8/5 588/8/5
f 590/9/5 584/9/5 589/9/5
f 592/8/5 586/8/5 585/8/5
f 593/8/5 586/8/5 592/8/5
f 594/3/5 589/3/5 588/3/5
f 595/3/5 589/3/5 594/3/5
f 596/3/5 589/3/5 595/3/5
f 597/8/5 591/8/5 590/8/5
f 598/8/5 591/8/5 597/8/5
f 605/8/5 600/8/5 599/8/5
f 605/8/5 601/8/5 600/8/5
f 606/8/5 601/8/5 605/8/5
f 607/8/5 601/8/5 606/8/5
f 608/8/5 603/8/5 602/8/5
f 609/8/5 603/8/5 608/8/5
f 611/8/5 605/8/5 604/8/5
f 611/8/5 606/8/5 605/8/5
f 612/8/5 606/8/5 611/8/5
f 613/8/5 610/8/5 609/8/5
f 614/8/5 610/8/5 613/8/5
f 615/8/5 611/8/5 604/8/5
f 616/8/5 611/8/5 615/8/5
f 621/7/5 618/7/5 617/7/5
f 622/7/5 618/7/5 621/7/5
f 623/7/5 620/7/5 619/7/5
f 624/7/5 620/7/5 623/7/5
f 628/8/5 626/8/5 625/8/5
f 629/8/5 626/8/5 628/8/5
f 630/7/5 628/7/5 627/7/5
f 630/7/5 629/7/5 628/7/5
f 631/7/5 629/7/5 630/7/5
f 632/7/5 629/7/5 631/7/5
f 633/9/5 632/9/5 631/9/5
f 634/9/5 632/9/5 633/9/5
f 635/9/6 636/9/6 639/9/6
f 636/7/6 637/7/6 640/7/6
f 639/9/6 636/9/6 640/9/6
f 640/7/6 637/7/6 641/7/6
f 637/8/6 638/8/6 642/8/6
f 641/7/6 637/7/6 642/7/6
f 642/8/6 638/8/6 643/8/6
f 644/8/6 645/8/6 648/8/6
f 648/8/6 645/8/6 649/8/6
f 646/9/6 647/9/6 652/9/6
f 652/9/6 647/9/6 653/9/6
f 648/7/6 649/7/6 654/7/6
f 649/8/6 650/8/6 655/8/6
f 654/7/6 649/7/6 655/7/6
f 650/9/6 651/9/6 656/9/6
f 655/8/6 650/8/6 656/8/6
f 651/8/6 652/8/6 657/8/6
f 656/9/6 651/9/6 657/9/6
f 652/7/6 653/7/6 658/7/6
f 657/8/6 652/8/6 658/8/6
f 658/7/6 653/7/6 659/7/6
f 660/8/6 661/8/6 662/8/6
f 662/8/6 661/8/6 663/8/6
f 664/9/6 665/9/6 669/9/6
f 665/8/6 666/8/6 670/8/6
f 669/9/6 665/9/6 670/9/6
f 666/9/6 667/9/6 671/9/6
f 670/8/6 666/8/6 671/8/6
f 671/9/6 667/9/6 672/9/6
f 668/8/6 669/8/6 674/8/6
f 674/8/6 669/8/6 675/8/6
f 672/8/6 673/8/6 676/8/6
f 676/8/6 673/8/6 677/8/6
f 678/7/6 679/7/6 680/7/6
f 680/7/6 679/7/6 681/7/6
f 678/7/6 680/7/6 682/7/6
f 681/7/6 679/7/6 683/7/6
f 678/7/6 682/7/6 684/7/6
f 682/7/6 683/7/6 684/7/6
f 683/7/6 679/7/6 685/7/6
f 684/7/6 683/7/6 685/7/6
f 686/9/6 687/9/6 688/9/6
f 688/9/6 687/9/6 689/9/6
f 686/9/6 688/9/6 692/9/6
f 690/9/6 691/9/6 693/9/6
f 686/9/6 692/9/6 694/9/6
f 692/9/6 693/9/6 694/9/6
f 693/9/6 691/9/6 695/9/6
f 694/9/6 693/9/6 695/9/6
f 696/8/6 697/8/6 698/8/6
f 698/8/6 697/8/6 699/8/6
f 699/8/6 697/8/6 700/8/6
f 696/8/6 698/8/6 701/8/6
f 696/8/6 701/8/6 703/8/6
f 701/8/6 702/8/6 703/8/6
f 703/8/6 702/8/6 704/8/6
f 705/8/6 706/8/6 709/8/6
f 706/9/6 707/9/6 710/9/6
f 709/8/6 706/8/6 710/8/6
f 707/8/6 708/8/6 711/8/6
f 710/9/6 707/9/6 711/9/6
f 711/8/6 708/8/6 712/8/6
f 710/7/6 711/7/6 713/7/6
f 711/7/6 712/7/6 713/7/6
f 713/7/6 712/7/6 714/7/6
f 714/7/6 712/7/6 715/7/6
f 714/9/6 715/9/6 716/9/6
f 716/9/6 715/9/6 717/9/6
