# MagicaVoxel @ Ephtracy

# group
g SideBlock1

# material
mtllib SideBlock1.mtl
usemtl palette

# normals
vn -1 0 0
vn 1 0 0
vn 0 0 1
vn 0 0 -1
vn 0 -1 0
vn 0 1 0

# texcoords
vt 0.939453 0.5
vt 0.970703 0.5
vt 0.978516 0.5

# verts
v -12 0 12
v -12 0 11
v -12 0 10
v -12 0 -12
v -12 1 -5
v -12 1 -6
v -12 1 -9
v -12 1 -10
v -12 2 11
v -12 2 10
v -12 2 1
v -12 2 -0
v -12 2 -5
v -12 2 -6
v -12 2 -7
v -12 2 -9
v -12 2 -10
v -12 3 10
v -12 3 8
v -12 3 1
v -12 3 -0
v -12 3 -1
v -12 3 -2
v -12 3 -4
v -12 4 5
v -12 4 3
v -12 4 -2
v -12 4 -3
v -12 4 -6
v -12 4 -7
v -12 5 12
v -12 5 10
v -12 5 8
v -12 5 7
v -12 5 3
v -12 5 -0
v -12 5 -1
v -12 5 -3
v -12 5 -4
v -12 5 -5
v -12 5 -6
v -12 5 -9
v -12 5 -11
v -12 5 -12
v -12 6 7
v -12 6 5
v -12 6 -5
v -12 6 -6
v -12 6 -9
v -12 6 -11
v -12 8 6
v -12 8 5
v -12 8 -1
v -12 8 -4
v -12 9 7
v -12 9 6
v -12 9 -1
v -12 9 -4
v -12 10 -6
v -12 10 -8
v -12 12 7
v -12 12 5
v -12 13 -6
v -12 13 -8
v -12 21 12
v -12 21 -12
v -12 23 12
v -12 23 -12
v -11 23 11
v -11 23 -2
v -11 23 -3
v -11 23 -11
v -11 24 11
v -11 24 -2
v -11 24 -3
v -11 24 -11
v -1 23 11
v -1 23 7
v -1 23 6
v -1 23 -2
v -1 24 11
v -1 24 7
v -1 24 6
v -1 24 -2
v 1 23 -2
v 1 23 -5
v 1 23 -6
v 1 23 -11
v 1 24 -2
v 1 24 -5
v 1 24 -6
v 1 24 -11
v 7 23 11
v 7 23 6
v 7 24 11
v 7 24 6
v -2 23 11
v -2 23 -2
v -2 24 11
v -2 24 -2
v 0 23 -3
v 0 23 -11
v 0 24 -3
v 0 24 -11
v 6 23 11
v 6 23 7
v 6 24 11
v 6 24 7
v 11 23 11
v 11 23 -5
v 11 23 -6
v 11 23 -11
v 11 24 11
v 11 24 -5
v 11 24 -6
v 11 24 -11
v 12 0 12
v 12 0 6
v 12 0 5
v 12 0 -0
v 12 0 -2
v 12 0 -3
v 12 0 -11
v 12 0 -12
v 12 1 11
v 12 1 10
v 12 1 -0
v 12 1 -2
v 12 1 -4
v 12 1 -9
v 12 2 11
v 12 2 10
v 12 2 6
v 12 2 5
v 12 2 -3
v 12 2 -4
v 12 2 -9
v 12 2 -10
v 12 2 -11
v 12 2 -12
v 12 3 8
v 12 3 7
v 12 3 -10
v 12 3 -12
v 12 4 8
v 12 4 7
v 12 4 3
v 12 4 2
v 12 4 -2
v 12 4 -3
v 12 4 -5
v 12 4 -6
v 12 5 11
v 12 5 9
v 12 5 3
v 12 5 2
v 12 5 -2
v 12 5 -3
v 12 5 -6
v 12 5 -8
v 12 6 6
v 12 6 5
v 12 6 3
v 12 6 2
v 12 6 -1
v 12 6 -2
v 12 6 -4
v 12 6 -5
v 12 6 -8
v 12 6 -11
v 12 7 12
v 12 7 11
v 12 7 9
v 12 7 6
v 12 7 5
v 12 7 3
v 12 7 2
v 12 7 1
v 12 7 -2
v 12 7 -4
v 12 7 -11
v 12 7 -12
v 12 8 1
v 12 8 -1
v 12 10 -1
v 12 10 -2
v 12 13 -1
v 12 13 -2
v 12 13 -6
v 12 13 -7
v 12 14 7
v 12 14 5
v 12 15 -6
v 12 15 -7
v 12 18 7
v 12 18 5
v 12 21 12
v 12 21 -12
v 12 23 12
v 12 23 -12
v -12 0 12
v -12 5 12
v -12 21 12
v -12 23 12
v -11 1 12
v -11 2 12
v -10 1 12
v -10 2 12
v -9 1 12
v -9 3 12
v -9 5 12
v -9 7 12
v -8 6 12
v -8 7 12
v -8 9 12
v -8 14 12
v -7 1 12
v -7 3 12
v -7 4 12
v -7 5 12
v -7 6 12
v -6 3 12
v -6 4 12
v -6 9 12
v -6 14 12
v -5 4 12
v -5 5 12
v -2 3 12
v -2 4 12
v -1 5 12
v -1 7 12
v 0 0 12
v 0 2 12
v 0 3 12
v 0 5 12
v 0 7 12
v 0 8 12
v 0 11 12
v 0 14 12
v 1 4 12
v 1 8 12
v 1 11 12
v 1 14 12
v 2 0 12
v 2 2 12
v 2 4 12
v 2 6 12
v 3 1 12
v 3 2 12
v 4 1 12
v 4 2 12
v 4 5 12
v 4 6 12
v 6 3 12
v 6 5 12
v 6 14 12
v 6 17 12
v 7 3 12
v 7 8 12
v 8 4 12
v 8 8 12
v 8 14 12
v 8 17 12
v 9 1 12
v 9 2 12
v 9 4 12
v 9 7 12
v 10 1 12
v 10 2 12
v 10 4 12
v 10 7 12
v 11 4 12
v 11 7 12
v 12 0 12
v 12 7 12
v 12 21 12
v 12 23 12
v -11 23 11
v -11 24 11
v -2 23 11
v -2 24 11
v -1 23 11
v -1 24 11
v 6 23 11
v 6 24 11
v 7 23 11
v 7 24 11
v 11 23 11
v 11 24 11
v -1 23 6
v -1 24 6
v 7 23 6
v 7 24 6
v -11 23 -3
v -11 24 -3
v 0 23 -3
v 0 24 -3
v 1 23 -6
v 1 24 -6
v 11 23 -6
v 11 24 -6
v -1 23 7
v -1 24 7
v 6 23 7
v 6 24 7
v -11 23 -2
v -11 24 -2
v -2 23 -2
v -2 24 -2
v -1 23 -2
v -1 24 -2
v 1 23 -2
v 1 24 -2
v 1 23 -5
v 1 24 -5
v 11 23 -5
v 11 24 -5
v -11 23 -11
v -11 24 -11
v 0 23 -11
v 0 24 -11
v 1 23 -11
v 1 24 -11
v 11 23 -11
v 11 24 -11
v -12 0 -12
v -12 5 -12
v -12 21 -12
v -12 23 -12
v -11 4 -12
v -11 5 -12
v -10 1 -12
v -10 2 -12
v -9 1 -12
v -9 2 -12
v -9 4 -12
v -9 6 -12
v -6 11 -12
v -6 14 -12
v -5 5 -12
v -5 6 -12
v -4 1 -12
v -4 2 -12
v -4 11 -12
v -4 14 -12
v -3 1 -12
v -3 2 -12
v -3 5 -12
v -3 7 -12
v -1 4 -12
v -1 7 -12
v 0 4 -12
v 0 6 -12
v 2 5 -12
v 2 6 -12
v 3 12 -12
v 3 16 -12
v 4 3 -12
v 4 5 -12
v 4 12 -12
v 4 16 -12
v 5 3 -12
v 5 6 -12
v 6 2 -12
v 6 4 -12
v 6 6 -12
v 6 7 -12
v 7 6 -12
v 7 7 -12
v 7 8 -12
v 7 13 -12
v 8 3 -12
v 8 4 -12
v 9 2 -12
v 9 3 -12
v 9 8 -12
v 9 13 -12
v 10 3 -12
v 10 4 -12
v 10 5 -12
v 10 6 -12
v 11 2 -12
v 11 3 -12
v 11 4 -12
v 11 5 -12
v 11 7 -12
v 12 0 -12
v 12 2 -12
v 12 3 -12
v 12 7 -12
v 12 21 -12
v 12 23 -12
v -12 0 12
v 0 0 12
v 2 0 12
v 12 0 12
v -12 0 11
v 0 0 11
v 2 0 11
v 11 0 11
v -12 0 10
v -11 0 10
v 11 0 6
v 12 0 6
v 11 0 5
v 12 0 5
v 11 0 -0
v 12 0 -0
v 11 0 -2
v 12 0 -2
v 11 0 -3
v 12 0 -3
v -11 0 -11
v 12 0 -11
v -12 0 -12
v 12 0 -12
v -12 23 12
v 12 23 12
v -11 23 11
v -2 23 11
v -1 23 11
v 6 23 11
v 7 23 11
v 11 23 11
v -1 23 7
v 6 23 7
v -1 23 6
v 7 23 6
v -11 23 -2
v -2 23 -2
v -1 23 -2
v 1 23 -2
v -11 23 -3
v 0 23 -3
v 1 23 -5
v 11 23 -5
v 1 23 -6
v 11 23 -6
v -11 23 -11
v 0 23 -11
v 1 23 -11
v 11 23 -11
v -12 23 -12
v 12 23 -12
v -11 24 11
v -2 24 11
v -1 24 11
v 6 24 11
v 7 24 11
v 11 24 11
v -7 24 8
v -5 24 8
v -1 24 7
v 6 24 7
v -7 24 6
v -5 24 6
v -1 24 6
v 7 24 6
v 3 24 1
v 5 24 1
v 3 24 -1
v 5 24 -1
v -11 24 -2
v -2 24 -2
v -1 24 -2
v 1 24 -2
v -11 24 -3
v 0 24 -3
v -9 24 -5
v -7 24 -5
v 1 24 -5
v 11 24 -5
v 1 24 -6
v 11 24 -6
v -9 24 -7
v -7 24 -7
v 8 24 -7
v 9 24 -7
v 8 24 -8
v 9 24 -8
v -11 24 -11
v 0 24 -11
v 1 24 -11
v 11 24 -11

# faces
f 5/1/1 4/1/1 3/1/1
f 6/1/1 4/1/1 5/1/1
f 7/1/1 4/1/1 6/1/1
f 8/1/1 4/1/1 7/1/1
f 9/1/1 2/1/1 1/1/1
f 9/2/1 3/2/1 2/2/1
f 10/1/1 5/1/1 3/1/1
f 10/2/1 3/2/1 9/2/1
f 11/1/1 5/1/1 10/1/1
f 12/1/1 5/1/1 11/1/1
f 13/2/1 6/2/1 5/2/1
f 13/1/1 5/1/1 12/1/1
f 14/1/1 7/1/1 6/1/1
f 14/2/1 6/2/1 13/2/1
f 15/1/1 7/1/1 14/1/1
f 16/2/1 8/2/1 7/2/1
f 16/1/1 7/1/1 15/1/1
f 17/1/1 4/1/1 8/1/1
f 17/2/1 8/2/1 16/2/1
f 18/1/1 10/1/1 9/1/1
f 18/1/1 11/1/1 10/1/1
f 19/1/1 11/1/1 18/1/1
f 20/2/1 12/2/1 11/2/1
f 20/1/1 11/1/1 19/1/1
f 21/1/1 13/1/1 12/1/1
f 21/2/1 12/2/1 20/2/1
f 21/1/1 14/1/1 13/1/1
f 22/1/1 14/1/1 21/1/1
f 23/1/1 14/1/1 22/1/1
f 24/1/1 14/1/1 23/1/1
f 25/1/1 20/1/1 19/1/1
f 25/1/1 21/1/1 20/1/1
f 26/1/1 21/1/1 25/1/1
f 27/2/1 24/2/1 23/2/1
f 27/1/1 23/1/1 22/1/1
f 28/2/1 24/2/1 27/2/1
f 29/2/1 15/2/1 14/2/1
f 29/1/1 14/1/1 24/1/1
f 30/1/1 16/1/1 15/1/1
f 30/2/1 15/2/1 29/2/1
f 30/1/1 17/1/1 16/1/1
f 31/1/1 9/1/1 1/1/1
f 31/1/1 18/1/1 9/1/1
f 32/2/1 19/2/1 18/2/1
f 32/1/1 18/1/1 31/1/1
f 33/1/1 25/1/1 19/1/1
f 33/2/1 19/2/1 32/2/1
f 34/1/1 25/1/1 33/1/1
f 35/1/1 21/1/1 26/1/1
f 35/2/1 26/2/1 25/2/1
f 36/2/1 22/2/1 21/2/1
f 36/1/1 21/1/1 35/1/1
f 37/1/1 28/1/1 27/1/1
f 37/2/1 22/2/1 36/2/1
f 37/1/1 27/1/1 22/1/1
f 38/2/1 24/2/1 28/2/1
f 38/1/1 28/1/1 37/1/1
f 39/1/1 29/1/1 24/1/1
f 39/2/1 24/2/1 38/2/1
f 39/1/1 30/1/1 29/1/1
f 40/1/1 30/1/1 39/1/1
f 41/1/1 30/1/1 40/1/1
f 42/1/1 17/1/1 30/1/1
f 42/1/1 30/1/1 41/1/1
f 43/1/1 4/1/1 17/1/1
f 43/1/1 17/1/1 42/1/1
f 44/1/1 4/1/1 43/1/1
f 45/2/1 33/2/1 32/2/1
f 45/2/1 32/2/1 31/2/1
f 45/1/1 25/1/1 34/1/1
f 45/2/1 34/2/1 33/2/1
f 46/2/1 38/2/1 37/2/1
f 46/1/1 25/1/1 45/1/1
f 46/2/1 37/2/1 36/2/1
f 46/2/1 39/2/1 38/2/1
f 46/2/1 40/2/1 39/2/1
f 46/2/1 35/2/1 25/2/1
f 46/2/1 36/2/1 35/2/1
f 47/1/1 41/1/1 40/1/1
f 47/2/1 40/2/1 46/2/1
f 48/2/1 42/2/1 41/2/1
f 48/1/1 41/1/1 47/1/1
f 49/1/1 43/1/1 42/1/1
f 49/2/1 42/2/1 48/2/1
f 50/2/1 44/2/1 43/2/1
f 50/1/1 43/1/1 49/1/1
f 51/2/1 48/2/1 47/2/1
f 51/2/1 46/2/1 45/2/1
f 51/2/1 50/2/1 49/2/1
f 51/2/1 49/2/1 48/2/1
f 51/2/1 47/2/1 46/2/1
f 52/2/1 50/2/1 51/2/1
f 53/2/1 50/2/1 52/2/1
f 54/2/1 50/2/1 53/2/1
f 55/2/1 45/2/1 31/2/1
f 55/2/1 51/2/1 45/2/1
f 56/1/1 52/1/1 51/1/1
f 56/2/1 51/2/1 55/2/1
f 57/1/1 54/1/1 53/1/1
f 57/2/1 53/2/1 52/2/1
f 58/2/1 50/2/1 54/2/1
f 58/1/1 54/1/1 57/1/1
f 59/2/1 58/2/1 57/2/1
f 59/2/1 50/2/1 58/2/1
f 60/2/1 50/2/1 59/2/1
f 61/2/1 55/2/1 31/2/1
f 61/1/1 56/1/1 55/1/1
f 62/2/1 57/2/1 52/2/1
f 62/1/1 56/1/1 61/1/1
f 62/1/1 52/1/1 56/1/1
f 62/2/1 59/2/1 57/2/1
f 63/1/1 60/1/1 59/1/1
f 63/2/1 59/2/1 62/2/1
f 63/2/1 62/2/1 61/2/1
f 64/2/1 50/2/1 60/2/1
f 64/1/1 60/1/1 63/1/1
f 65/2/1 61/2/1 31/2/1
f 65/2/1 63/2/1 61/2/1
f 65/2/1 64/2/1 63/2/1
f 66/2/1 50/2/1 64/2/1
f 66/2/1 64/2/1 65/2/1
f 66/2/1 44/2/1 50/2/1
f 67/3/1 66/3/1 65/3/1
f 68/3/1 66/3/1 67/3/1
f 73/3/1 70/3/1 69/3/1
f 74/3/1 70/3/1 73/3/1
f 75/3/1 72/3/1 71/3/1
f 76/3/1 72/3/1 75/3/1
f 81/3/1 78/3/1 77/3/1
f 82/3/1 78/3/1 81/3/1
f 83/3/1 80/3/1 79/3/1
f 84/3/1 80/3/1 83/3/1
f 89/3/1 86/3/1 85/3/1
f 90/3/1 86/3/1 89/3/1
f 91/3/1 88/3/1 87/3/1
f 92/3/1 88/3/1 91/3/1
f 95/3/1 94/3/1 93/3/1
f 96/3/1 94/3/1 95/3/1
f 97/3/2 98/3/2 99/3/2
f 99/3/2 98/3/2 100/3/2
f 101/3/2 102/3/2 103/3/2
f 103/3/2 102/3/2 104/3/2
f 105/3/2 106/3/2 107/3/2
f 107/3/2 106/3/2 108/3/2
f 109/3/2 110/3/2 113/3/2
f 113/3/2 110/3/2 114/3/2
f 111/3/2 112/3/2 115/3/2
f 115/3/2 112/3/2 116/3/2
f 117/1/2 118/1/2 125/1/2
f 125/1/2 118/1/2 126/1/2
f 119/1/2 120/1/2 127/1/2
f 120/2/2 121/2/2 127/2/2
f 121/1/2 122/1/2 128/1/2
f 127/2/2 121/2/2 128/2/2
f 122/2/2 123/2/2 129/2/2
f 129/2/2 123/2/2 130/2/2
f 125/2/2 126/2/2 131/2/2
f 117/1/2 125/1/2 131/1/2
f 126/1/2 118/1/2 132/1/2
f 131/2/2 126/2/2 132/2/2
f 118/2/2 119/2/2 133/2/2
f 132/1/2 118/1/2 133/1/2
f 119/1/2 127/1/2 134/1/2
f 133/2/2 119/2/2 134/2/2
f 127/1/2 128/1/2 134/1/2
f 128/1/2 122/1/2 135/1/2
f 134/1/2 128/1/2 135/1/2
f 122/2/2 129/2/2 135/2/2
f 129/1/2 130/1/2 136/1/2
f 135/2/2 129/2/2 136/2/2
f 130/2/2 123/2/2 137/2/2
f 136/1/2 130/1/2 137/1/2
f 137/2/2 123/2/2 138/2/2
f 123/1/2 124/1/2 139/1/2
f 138/2/2 123/2/2 139/2/2
f 139/1/2 124/1/2 140/1/2
f 137/1/2 138/1/2 141/1/2
f 131/1/2 132/1/2 141/1/2
f 135/1/2 136/1/2 141/1/2
f 132/1/2 133/1/2 141/1/2
f 136/1/2 137/1/2 141/1/2
f 134/1/2 135/1/2 141/1/2
f 133/1/2 134/1/2 141/1/2
f 141/1/2 138/1/2 142/1/2
f 139/2/2 140/2/2 143/2/2
f 142/1/2 138/1/2 143/1/2
f 138/2/2 139/2/2 143/2/2
f 143/2/2 140/2/2 144/2/2
f 141/2/2 142/2/2 145/2/2
f 131/1/2 141/1/2 145/1/2
f 143/1/2 144/1/2 146/1/2
f 145/2/2 142/2/2 146/2/2
f 142/1/2 143/1/2 146/1/2
f 146/1/2 144/1/2 147/1/2
f 147/1/2 144/1/2 148/1/2
f 148/1/2 144/1/2 149/1/2
f 149/1/2 144/1/2 150/1/2
f 150/1/2 144/1/2 151/1/2
f 151/1/2 144/1/2 152/1/2
f 117/1/2 131/1/2 153/1/2
f 131/1/2 145/1/2 153/1/2
f 145/1/2 146/1/2 153/1/2
f 146/1/2 147/1/2 153/1/2
f 153/1/2 147/1/2 154/1/2
f 147/2/2 148/2/2 155/2/2
f 154/1/2 147/1/2 155/1/2
f 148/1/2 149/1/2 156/1/2
f 155/2/2 148/2/2 156/2/2
f 149/2/2 150/2/2 157/2/2
f 156/1/2 149/1/2 157/1/2
f 150/1/2 151/1/2 158/1/2
f 157/2/2 150/2/2 158/2/2
f 152/1/2 144/1/2 159/1/2
f 151/2/2 152/2/2 159/2/2
f 159/1/2 144/1/2 160/1/2
f 157/1/2 158/1/2 161/1/2
f 156/1/2 157/1/2 161/1/2
f 155/1/2 156/1/2 161/1/2
f 154/1/2 155/1/2 161/1/2
f 161/1/2 158/1/2 162/1/2
f 162/1/2 158/1/2 163/1/2
f 163/1/2 158/1/2 164/1/2
f 164/1/2 158/1/2 165/1/2
f 165/1/2 158/1/2 166/1/2
f 158/1/2 151/1/2 167/1/2
f 166/1/2 158/1/2 167/1/2
f 159/2/2 160/2/2 168/2/2
f 167/1/2 151/1/2 168/1/2
f 151/2/2 159/2/2 168/2/2
f 160/1/2 144/1/2 169/1/2
f 168/2/2 160/2/2 169/2/2
f 169/1/2 144/1/2 170/1/2
f 117/1/2 153/1/2 171/1/2
f 153/2/2 154/2/2 172/2/2
f 171/1/2 153/1/2 172/1/2
f 154/1/2 161/1/2 173/1/2
f 172/2/2 154/2/2 173/2/2
f 161/2/2 162/2/2 174/2/2
f 173/1/2 161/1/2 174/1/2
f 162/1/2 163/1/2 175/1/2
f 174/2/2 162/2/2 175/2/2
f 163/2/2 164/2/2 176/2/2
f 175/1/2 163/1/2 176/1/2
f 164/1/2 165/1/2 177/1/2
f 176/2/2 164/2/2 177/2/2
f 177/1/2 165/1/2 178/1/2
f 165/2/2 166/2/2 179/2/2
f 166/1/2 167/1/2 179/1/2
f 167/2/2 168/2/2 180/2/2
f 179/1/2 167/1/2 180/1/2
f 168/2/2 169/2/2 180/2/2
f 169/2/2 170/2/2 180/2/2
f 170/1/2 144/1/2 181/1/2
f 180/2/2 170/2/2 181/2/2
f 181/1/2 144/1/2 182/1/2
f 178/1/2 165/1/2 183/1/2
f 177/2/2 178/2/2 183/2/2
f 175/2/2 176/2/2 183/2/2
f 171/2/2 172/2/2 183/2/2
f 176/2/2 177/2/2 183/2/2
f 174/2/2 175/2/2 183/2/2
f 173/2/2 174/2/2 183/2/2
f 172/2/2 173/2/2 183/2/2
f 165/2/2 179/2/2 184/2/2
f 183/1/2 165/1/2 184/1/2
f 181/2/2 182/2/2 184/2/2
f 179/2/2 180/2/2 184/2/2
f 180/2/2 181/2/2 184/2/2
f 183/2/2 184/2/2 185/2/2
f 184/2/2 182/2/2 185/2/2
f 185/2/2 182/2/2 186/2/2
f 183/2/2 185/2/2 187/2/2
f 185/1/2 186/1/2 187/1/2
f 186/2/2 182/2/2 188/2/2
f 187/1/2 186/1/2 188/1/2
f 188/2/2 182/2/2 189/2/2
f 189/2/2 182/2/2 190/2/2
f 171/2/2 183/2/2 191/2/2
f 183/2/2 187/2/2 191/2/2
f 187/2/2 188/2/2 191/2/2
f 188/2/2 189/2/2 191/2/2
f 191/2/2 189/2/2 192/2/2
f 189/1/2 190/1/2 193/1/2
f 192/2/2 189/2/2 193/2/2
f 190/2/2 182/2/2 194/2/2
f 193/1/2 190/1/2 194/1/2
f 191/1/2 192/1/2 195/1/2
f 171/2/2 191/2/2 195/2/2
f 192/2/2 193/2/2 196/2/2
f 195/1/2 192/1/2 196/1/2
f 193/2/2 194/2/2 196/2/2
f 171/2/2 195/2/2 197/2/2
f 195/2/2 196/2/2 197/2/2
f 196/2/2 194/2/2 198/2/2
f 197/2/2 196/2/2 198/2/2
f 194/2/2 182/2/2 198/2/2
f 197/3/2 198/3/2 199/3/2
f 199/3/2 198/3/2 200/3/2
f 205/1/3 202/1/3 201/1/3
f 206/1/3 202/1/3 205/1/3
f 207/1/3 205/1/3 201/1/3
f 207/2/3 206/2/3 205/2/3
f 208/1/3 202/1/3 206/1/3
f 208/2/3 206/2/3 207/2/3
f 209/1/3 207/1/3 201/1/3
f 209/1/3 208/1/3 207/1/3
f 210/1/3 202/1/3 208/1/3
f 210/1/3 208/1/3 209/1/3
f 211/2/3 203/2/3 202/2/3
f 211/1/3 202/1/3 210/1/3
f 212/2/3 203/2/3 211/2/3
f 213/1/3 211/1/3 210/1/3
f 213/1/3 212/1/3 211/1/3
f 214/2/3 203/2/3 212/2/3
f 214/1/3 212/1/3 213/1/3
f 215/2/3 203/2/3 214/2/3
f 216/2/3 203/2/3 215/2/3
f 217/2/3 210/2/3 209/2/3
f 217/1/3 209/1/3 201/1/3
f 218/1/3 213/1/3 210/1/3
f 218/2/3 210/2/3 217/2/3
f 219/1/3 213/1/3 218/1/3
f 220/1/3 213/1/3 219/1/3
f 221/2/3 214/2/3 213/2/3
f 221/1/3 213/1/3 220/1/3
f 221/2/3 215/2/3 214/2/3
f 222/2/3 219/2/3 218/2/3
f 222/1/3 218/1/3 217/1/3
f 223/1/3 220/1/3 219/1/3
f 223/2/3 219/2/3 222/2/3
f 224/1/3 216/1/3 215/1/3
f 224/2/3 215/2/3 221/2/3
f 224/2/3 221/2/3 220/2/3
f 225/2/3 203/2/3 216/2/3
f 225/1/3 216/1/3 224/1/3
f 226/1/3 220/1/3 223/1/3
f 226/1/3 223/1/3 222/1/3
f 227/2/3 224/2/3 220/2/3
f 227/1/3 220/1/3 226/1/3
f 227/2/3 225/2/3 224/2/3
f 228/1/3 226/1/3 222/1/3
f 228/1/3 222/1/3 217/1/3
f 229/2/3 227/2/3 226/2/3
f 229/1/3 226/1/3 228/1/3
f 230/2/3 225/2/3 227/2/3
f 230/2/3 227/2/3 229/2/3
f 230/2/3 229/2/3 228/2/3
f 231/2/3 225/2/3 230/2/3
f 232/1/3 228/1/3 217/1/3
f 232/1/3 217/1/3 201/1/3
f 233/1/3 228/1/3 232/1/3
f 234/2/3 230/2/3 228/2/3
f 234/1/3 228/1/3 233/1/3
f 235/1/3 231/1/3 230/1/3
f 235/2/3 230/2/3 234/2/3
f 236/2/3 225/2/3 231/2/3
f 236/1/3 231/1/3 235/1/3
f 237/2/3 225/2/3 236/2/3
f 238/2/3 225/2/3 237/2/3
f 239/2/3 203/2/3 225/2/3
f 239/2/3 225/2/3 238/2/3
f 240/1/3 235/1/3 234/1/3
f 240/1/3 234/1/3 233/1/3
f 240/1/3 236/1/3 235/1/3
f 240/1/3 237/1/3 236/1/3
f 241/2/3 238/2/3 237/2/3
f 241/1/3 237/1/3 240/1/3
f 242/1/3 239/1/3 238/1/3
f 242/2/3 238/2/3 241/2/3
f 243/2/3 203/2/3 239/2/3
f 243/1/3 239/1/3 242/1/3
f 244/2/3 233/2/3 232/2/3
f 245/1/3 240/1/3 233/1/3
f 245/2/3 233/2/3 244/2/3
f 246/2/3 242/2/3 241/2/3
f 246/1/3 240/1/3 245/1/3
f 246/2/3 241/2/3 240/2/3
f 246/2/3 243/2/3 242/2/3
f 247/2/3 243/2/3 246/2/3
f 248/1/3 245/1/3 244/1/3
f 248/1/3 246/1/3 245/1/3
f 248/1/3 247/1/3 246/1/3
f 249/1/3 247/1/3 248/1/3
f 250/1/3 248/1/3 244/1/3
f 250/2/3 249/2/3 248/2/3
f 251/1/3 247/1/3 249/1/3
f 251/2/3 249/2/3 250/2/3
f 252/1/3 247/1/3 251/1/3
f 253/2/3 243/2/3 247/2/3
f 253/1/3 247/1/3 252/1/3
f 254/1/3 252/1/3 251/1/3
f 254/1/3 251/1/3 250/1/3
f 255/2/3 253/2/3 252/2/3
f 255/1/3 252/1/3 254/1/3
f 256/2/3 243/2/3 253/2/3
f 256/2/3 253/2/3 255/2/3
f 256/2/3 203/2/3 243/2/3
f 257/2/3 203/2/3 256/2/3
f 258/2/3 255/2/3 254/2/3
f 258/1/3 254/1/3 250/1/3
f 258/2/3 256/2/3 255/2/3
f 259/2/3 256/2/3 258/2/3
f 260/1/3 259/1/3 258/1/3
f 261/2/3 256/2/3 259/2/3
f 261/1/3 259/1/3 260/1/3
f 262/1/3 257/1/3 256/1/3
f 262/2/3 256/2/3 261/2/3
f 263/2/3 203/2/3 257/2/3
f 263/1/3 257/1/3 262/1/3
f 264/1/3 250/1/3 244/1/3
f 264/1/3 258/1/3 250/1/3
f 264/1/3 260/1/3 258/1/3
f 265/1/3 260/1/3 264/1/3
f 266/2/3 262/2/3 261/2/3
f 266/1/3 260/1/3 265/1/3
f 266/2/3 261/2/3 260/2/3
f 266/2/3 263/2/3 262/2/3
f 267/2/3 263/2/3 266/2/3
f 268/2/3 265/2/3 264/2/3
f 268/1/3 264/1/3 244/1/3
f 269/1/3 267/1/3 266/1/3
f 269/2/3 265/2/3 268/2/3
f 269/1/3 266/1/3 265/1/3
f 270/1/3 267/1/3 269/1/3
f 271/2/3 263/2/3 267/2/3
f 271/1/3 267/1/3 270/1/3
f 272/1/3 270/1/3 269/1/3
f 272/1/3 269/1/3 268/1/3
f 272/2/3 271/2/3 270/2/3
f 273/2/3 263/2/3 271/2/3
f 273/2/3 271/2/3 272/2/3
f 274/1/3 272/1/3 268/1/3
f 274/1/3 268/1/3 244/1/3
f 274/1/3 273/1/3 272/1/3
f 275/2/3 263/2/3 273/2/3
f 275/1/3 273/1/3 274/1/3
f 276/3/3 204/3/3 203/3/3
f 276/2/3 263/2/3 275/2/3
f 276/2/3 203/2/3 263/2/3
f 277/3/3 204/3/3 276/3/3
f 280/3/3 279/3/3 278/3/3
f 281/3/3 279/3/3 280/3/3
f 284/3/3 283/3/3 282/3/3
f 285/3/3 283/3/3 284/3/3
f 288/3/3 287/3/3 286/3/3
f 289/3/3 287/3/3 288/3/3
f 292/3/3 291/3/3 290/3/3
f 293/3/3 291/3/3 292/3/3
f 296/3/3 295/3/3 294/3/3
f 297/3/3 295/3/3 296/3/3
f 300/3/3 299/3/3 298/3/3
f 301/3/3 299/3/3 300/3/3
f 302/3/4 303/3/4 304/3/4
f 304/3/4 303/3/4 305/3/4
f 306/3/4 307/3/4 308/3/4
f 308/3/4 307/3/4 309/3/4
f 310/3/4 311/3/4 312/3/4
f 312/3/4 311/3/4 313/3/4
f 314/3/4 315/3/4 316/3/4
f 316/3/4 315/3/4 317/3/4
f 318/3/4 319/3/4 320/3/4
f 320/3/4 319/3/4 321/3/4
f 322/3/4 323/3/4 324/3/4
f 324/3/4 323/3/4 325/3/4
f 326/1/4 327/1/4 330/1/4
f 327/2/4 328/2/4 331/2/4
f 330/1/4 327/1/4 331/1/4
f 326/1/4 330/1/4 332/1/4
f 332/1/4 330/1/4 333/1/4
f 326/1/4 332/1/4 334/1/4
f 332/2/4 333/2/4 334/2/4
f 333/1/4 330/1/4 335/1/4
f 334/2/4 333/2/4 335/2/4
f 330/2/4 331/2/4 336/2/4
f 335/1/4 330/1/4 336/1/4
f 331/2/4 328/2/4 337/2/4
f 336/2/4 331/2/4 337/2/4
f 337/2/4 328/2/4 338/2/4
f 338/2/4 328/2/4 339/2/4
f 335/1/4 336/1/4 340/1/4
f 334/1/4 335/1/4 340/1/4
f 336/1/4 337/1/4 340/1/4
f 337/2/4 338/2/4 341/2/4
f 340/1/4 337/1/4 341/1/4
f 326/1/4 334/1/4 342/1/4
f 334/1/4 340/1/4 342/1/4
f 342/1/4 340/1/4 343/1/4
f 338/1/4 339/1/4 344/1/4
f 341/2/4 338/2/4 344/2/4
f 340/2/4 341/2/4 344/2/4
f 339/2/4 328/2/4 345/2/4
f 344/1/4 339/1/4 345/1/4
f 342/2/4 343/2/4 346/2/4
f 326/1/4 342/1/4 346/1/4
f 343/1/4 340/1/4 347/1/4
f 346/2/4 343/2/4 347/2/4
f 340/2/4 344/2/4 348/2/4
f 347/1/4 340/1/4 348/1/4
f 344/2/4 345/2/4 348/2/4
f 348/2/4 345/2/4 349/2/4
f 346/1/4 347/1/4 350/1/4
f 347/1/4 348/1/4 350/1/4
f 348/1/4 349/1/4 350/1/4
f 349/2/4 345/2/4 351/2/4
f 350/1/4 349/1/4 351/1/4
f 346/1/4 350/1/4 352/1/4
f 350/2/4 351/2/4 352/2/4
f 352/2/4 351/2/4 353/2/4
f 352/1/4 353/1/4 354/1/4
f 353/2/4 351/2/4 355/2/4
f 354/1/4 353/1/4 355/1/4
f 351/2/4 345/2/4 356/2/4
f 355/2/4 351/2/4 356/2/4
f 354/2/4 355/2/4 356/2/4
f 345/2/4 328/2/4 357/2/4
f 356/2/4 345/2/4 357/2/4
f 352/1/4 354/1/4 358/1/4
f 346/1/4 352/1/4 358/1/4
f 354/2/4 356/2/4 359/2/4
f 358/1/4 354/1/4 359/1/4
f 356/1/4 357/1/4 360/1/4
f 359/2/4 356/2/4 360/2/4
f 357/2/4 328/2/4 361/2/4
f 360/1/4 357/1/4 361/1/4
f 359/2/4 360/2/4 362/2/4
f 346/1/4 358/1/4 362/1/4
f 360/2/4 361/2/4 362/2/4
f 358/2/4 359/2/4 362/2/4
f 362/2/4 361/2/4 363/2/4
f 346/1/4 362/1/4 364/1/4
f 362/1/4 363/1/4 364/1/4
f 364/1/4 363/1/4 365/1/4
f 363/2/4 361/2/4 366/2/4
f 365/1/4 363/1/4 366/1/4
f 366/2/4 361/2/4 367/2/4
f 365/1/4 366/1/4 368/1/4
f 366/1/4 367/1/4 368/1/4
f 367/2/4 361/2/4 369/2/4
f 368/1/4 367/1/4 369/1/4
f 369/2/4 361/2/4 370/2/4
f 370/2/4 361/2/4 371/2/4
f 364/2/4 365/2/4 372/2/4
f 365/1/4 368/1/4 373/1/4
f 372/2/4 365/2/4 373/2/4
f 346/1/4 364/1/4 374/1/4
f 364/2/4 372/2/4 374/2/4
f 372/1/4 373/1/4 375/1/4
f 374/2/4 372/2/4 375/2/4
f 368/2/4 369/2/4 376/2/4
f 369/2/4 370/2/4 376/2/4
f 370/1/4 371/1/4 376/1/4
f 371/2/4 361/2/4 377/2/4
f 376/1/4 371/1/4 377/1/4
f 375/1/4 373/1/4 378/1/4
f 374/1/4 375/1/4 378/1/4
f 373/1/4 368/1/4 379/1/4
f 378/1/4 373/1/4 379/1/4
f 379/1/4 368/1/4 380/1/4
f 368/2/4 376/2/4 381/2/4
f 380/1/4 368/1/4 381/1/4
f 376/2/4 377/2/4 381/2/4
f 374/1/4 378/1/4 382/1/4
f 346/1/4 374/1/4 382/1/4
f 378/2/4 379/2/4 383/2/4
f 382/1/4 378/1/4 383/1/4
f 379/1/4 380/1/4 384/1/4
f 383/2/4 379/2/4 384/2/4
f 380/2/4 381/2/4 385/2/4
f 384/1/4 380/1/4 385/1/4
f 381/2/4 377/2/4 386/2/4
f 385/2/4 381/2/4 386/2/4
f 326/1/4 346/1/4 387/1/4
f 346/1/4 382/1/4 387/1/4
f 382/2/4 383/2/4 388/2/4
f 387/1/4 382/1/4 388/1/4
f 384/1/4 385/1/4 389/1/4
f 388/2/4 383/2/4 389/2/4
f 383/1/4 384/1/4 389/1/4
f 385/1/4 386/1/4 389/1/4
f 386/2/4 377/2/4 390/2/4
f 389/1/4 386/1/4 390/1/4
f 328/3/4 329/3/4 391/3/4
f 390/2/4 377/2/4 391/2/4
f 361/2/4 328/2/4 391/2/4
f 377/2/4 361/2/4 391/2/4
f 391/3/4 329/3/4 392/3/4
f 397/1/5 394/1/5 393/1/5
f 398/2/5 395/2/5 394/2/5
f 398/1/5 394/1/5 397/1/5
f 399/1/5 396/1/5 395/1/5
f 399/2/5 395/2/5 398/2/5
f 400/1/5 396/1/5 399/1/5
f 401/2/5 398/2/5 397/2/5
f 401/2/5 399/2/5 398/2/5
f 401/2/5 400/2/5 399/2/5
f 402/2/5 400/2/5 401/2/5
f 403/1/5 396/1/5 400/1/5
f 403/2/5 400/2/5 402/2/5
f 404/1/5 396/1/5 403/1/5
f 405/2/5 403/2/5 402/2/5
f 405/2/5 404/2/5 403/2/5
f 406/2/5 404/2/5 405/2/5
f 407/2/5 405/2/5 402/2/5
f 407/1/5 406/1/5 405/1/5
f 408/1/5 406/1/5 407/1/5
f 409/2/5 407/2/5 402/2/5
f 409/2/5 408/2/5 407/2/5
f 410/2/5 408/2/5 409/2/5
f 411/2/5 409/2/5 402/2/5
f 411/1/5 410/1/5 409/1/5
f 412/1/5 410/1/5 411/1/5
f 413/1/5 402/1/5 401/1/5
f 413/2/5 411/2/5 402/2/5
f 413/2/5 412/2/5 411/2/5
f 414/2/5 412/2/5 413/2/5
f 415/1/5 413/1/5 401/1/5
f 415/1/5 414/1/5 413/1/5
f 416/1/5 414/1/5 415/1/5
f 417/3/6 418/3/6 419/3/6
f 419/3/6 418/3/6 420/3/6
f 420/3/6 418/3/6 421/3/6
f 421/3/6 418/3/6 422/3/6
f 422/3/6 418/3/6 423/3/6
f 423/3/6 418/3/6 424/3/6
f 420/3/6 421/3/6 425/3/6
f 422/3/6 423/3/6 426/3/6
f 420/3/6 425/3/6 427/3/6
f 425/3/6 426/3/6 427/3/6
f 426/3/6 423/3/6 428/3/6
f 427/3/6 426/3/6 428/3/6
f 417/3/6 419/3/6 429/3/6
f 420/3/6 427/3/6 430/3/6
f 430/3/6 427/3/6 431/3/6
f 417/3/6 429/3/6 433/3/6
f 431/3/6 432/3/6 433/3/6
f 430/3/6 431/3/6 433/3/6
f 429/3/6 430/3/6 433/3/6
f 433/3/6 432/3/6 434/3/6
f 434/3/6 432/3/6 435/3/6
f 424/3/6 418/3/6 436/3/6
f 434/3/6 435/3/6 437/3/6
f 435/3/6 436/3/6 437/3/6
f 436/3/6 418/3/6 438/3/6
f 437/3/6 436/3/6 438/3/6
f 417/3/6 433/3/6 439/3/6
f 434/3/6 437/3/6 440/3/6
f 440/3/6 437/3/6 441/3/6
f 438/3/6 418/3/6 442/3/6
f 417/3/6 439/3/6 443/3/6
f 441/3/6 442/3/6 443/3/6
f 440/3/6 441/3/6 443/3/6
f 439/3/6 440/3/6 443/3/6
f 442/3/6 418/3/6 444/3/6
f 443/3/6 442/3/6 444/3/6
f 445/3/6 446/3/6 451/3/6
f 451/3/6 446/3/6 452/3/6
f 447/3/6 448/3/6 453/3/6
f 453/3/6 448/3/6 454/3/6
f 445/3/6 451/3/6 455/3/6
f 451/2/6 452/2/6 455/2/6
f 452/3/6 446/3/6 456/3/6
f 455/2/6 452/2/6 456/2/6
f 449/3/6 450/3/6 458/3/6
f 457/3/6 458/3/6 459/3/6
f 459/3/6 458/3/6 460/3/6
f 457/3/6 459/3/6 461/3/6
f 459/2/6 460/2/6 461/2/6
f 460/3/6 458/3/6 462/3/6
f 461/2/6 460/2/6 462/2/6
f 445/3/6 455/3/6 463/3/6
f 455/3/6 456/3/6 463/3/6
f 456/3/6 446/3/6 464/3/6
f 463/3/6 456/3/6 464/3/6
f 461/3/6 462/3/6 465/3/6
f 457/3/6 461/3/6 465/3/6
f 465/3/6 462/3/6 466/3/6
f 467/3/6 468/3/6 469/3/6
f 469/3/6 468/3/6 470/3/6
f 466/3/6 462/3/6 471/3/6
f 462/3/6 458/3/6 472/3/6
f 471/3/6 462/3/6 472/3/6
f 458/3/6 450/3/6 472/3/6
f 469/2/6 470/2/6 475/2/6
f 467/3/6 469/3/6 475/3/6
f 470/3/6 468/3/6 476/3/6
f 475/2/6 470/2/6 476/2/6
f 473/3/6 474/3/6 477/3/6
f 477/3/6 474/3/6 478/3/6
f 473/3/6 477/3/6 479/3/6
f 477/2/6 478/2/6 479/2/6
f 478/3/6 474/3/6 480/3/6
f 479/2/6 478/2/6 480/2/6
f 467/3/6 475/3/6 481/3/6
f 475/3/6 476/3/6 481/3/6
f 476/3/6 468/3/6 482/3/6
f 481/3/6 476/3/6 482/3/6
f 479/3/6 480/3/6 483/3/6
f 473/3/6 479/3/6 483/3/6
f 480/3/6 474/3/6 484/3/6
f 483/3/6 480/3/6 484/3/6
