# MagicaVoxel @ Ephtracy

# material
mtllib WallTFillLeft.mtl
usemtl palette

# normals
vn -1 0 0
vn 1 0 0
vn 0 0 1
vn 0 0 -1
vn 0 -1 0
vn 0 1 0

# texcoords
vt 0.939453 0.5
vt 0.970703 0.5
vt 0.978516 0.5
vt 0.982422 0.5

# verts
v -12 0 8
v -12 0 7
v -12 0 -12
v -12 1 8
v -12 1 7
v -12 4 8
v -12 4 7
v -12 4 -12
v -12 9 7
v -12 9 6
v -12 24 6
v -12 24 -12
v -4 4 7
v -4 4 6
v -4 9 7
v -4 9 6
v 4 4 7
v 4 4 6
v 4 9 7
v 4 9 6
v -5 4 7
v -5 4 6
v -5 9 7
v -5 9 6
v 3 4 7
v 3 4 6
v 3 9 7
v 3 9 6
v 6 9 -6
v 6 9 -7
v 6 9 -8
v 6 9 -12
v 6 10 -6
v 6 10 -7
v 6 10 -8
v 6 14 -6
v 6 14 -7
v 6 15 -6
v 6 15 -7
v 6 16 -7
v 6 16 -8
v 6 18 -6
v 6 18 -7
v 6 20 -6
v 6 20 -7
v 6 21 -7
v 6 21 -8
v 6 24 -6
v 6 24 -7
v 6 24 -12
v 7 4 -7
v 7 4 -12
v 7 9 -7
v 7 9 -12
v 8 0 -8
v 8 0 -9
v 8 0 -11
v 8 0 -12
v 8 1 -8
v 8 1 -9
v 8 1 -11
v 8 3 -8
v 8 3 -9
v 8 4 -8
v 8 4 -12
v 11 4 7
v 11 4 6
v 11 4 -6
v 11 4 -7
v 11 9 7
v 11 9 6
v 11 9 -6
v 11 9 -7
v 12 0 8
v 12 0 -8
v 12 4 8
v 12 4 6
v 12 4 -6
v 12 4 -8
v 12 24 6
v 12 24 -6
v -12 0 8
v -12 1 8
v -12 4 8
v -11 1 8
v -11 3 8
v -10 0 8
v -10 3 8
v -9 1 8
v -9 2 8
v -8 0 8
v -8 1 8
v -8 2 8
v -7 1 8
v -7 3 8
v -6 1 8
v -6 3 8
v -4 0 8
v -4 1 8
v -4 2 8
v -3 0 8
v -3 1 8
v -3 2 8
v -2 0 8
v -2 1 8
v -2 2 8
v -1 0 8
v -1 1 8
v -1 2 8
v -1 3 8
v 0 1 8
v 0 2 8
v 1 0 8
v 1 1 8
v 1 2 8
v 1 3 8
v 2 0 8
v 2 2 8
v 3 1 8
v 3 2 8
v 5 1 8
v 5 2 8
v 6 0 8
v 6 2 8
v 6 3 8
v 7 2 8
v 7 3 8
v 8 0 8
v 8 1 8
v 9 1 8
v 9 2 8
v 10 1 8
v 10 2 8
v 10 3 8
v 11 0 8
v 11 1 8
v 11 2 8
v 11 3 8
v 12 0 8
v 12 4 8
v -12 4 7
v -12 9 7
v -5 4 7
v -5 9 7
v -4 4 7
v -4 9 7
v 3 4 7
v 3 9 7
v 4 4 7
v 4 9 7
v 11 4 7
v 11 9 7
v -12 9 6
v -12 24 6
v -8 9 6
v -8 13 6
v -8 20 6
v -8 22 6
v -7 9 6
v -7 11 6
v -7 13 6
v -7 15 6
v -7 16 6
v -7 20 6
v -7 22 6
v -7 24 6
v -6 11 6
v -6 14 6
v -6 15 6
v -6 16 6
v -6 19 6
v -6 24 6
v -5 4 6
v -5 9 6
v -5 14 6
v -5 19 6
v -4 4 6
v -4 9 6
v 1 9 6
v 1 15 6
v 1 17 6
v 1 24 6
v 2 12 6
v 2 14 6
v 2 15 6
v 2 17 6
v 2 22 6
v 2 24 6
v 3 4 6
v 3 9 6
v 3 12 6
v 3 14 6
v 3 22 6
v 4 4 6
v 4 9 6
v 7 9 6
v 7 12 6
v 7 15 6
v 7 19 6
v 8 9 6
v 8 12 6
v 8 15 6
v 8 17 6
v 8 19 6
v 8 24 6
v 9 12 6
v 9 15 6
v 9 17 6
v 9 20 6
v 9 22 6
v 9 24 6
v 10 20 6
v 10 22 6
v 11 4 6
v 11 9 6
v 12 4 6
v 12 24 6
v 6 9 -6
v 6 10 -6
v 6 14 -6
v 6 15 -6
v 6 18 -6
v 6 20 -6
v 6 24 -6
v 11 4 -6
v 11 9 -6
v 12 4 -6
v 12 24 -6
v 7 4 -7
v 7 9 -7
v 11 4 -7
v 11 9 -7
v 8 0 -8
v 8 1 -8
v 8 3 -8
v 8 4 -8
v 12 0 -8
v 12 4 -8
v -12 0 -12
v -12 4 -12
v -12 24 -12
v 6 9 -12
v 6 24 -12
v 7 4 -12
v 7 9 -12
v 8 0 -12
v 8 4 -12
v -12 0 8
v -10 0 8
v -8 0 8
v -4 0 8
v -3 0 8
v -2 0 8
v -1 0 8
v 1 0 8
v 2 0 8
v 6 0 8
v 8 0 8
v 11 0 8
v 12 0 8
v -12 0 7
v -10 0 7
v -8 0 7
v -4 0 7
v -3 0 7
v -2 0 7
v -1 0 7
v 1 0 7
v 2 0 7
v 6 0 7
v 8 0 7
v 11 0 7
v 8 0 -8
v 12 0 -8
v 7 0 -9
v 8 0 -9
v 7 0 -11
v 8 0 -11
v -12 0 -12
v 8 0 -12
v -12 4 8
v 12 4 8
v -12 4 7
v -5 4 7
v -4 4 7
v 3 4 7
v 4 4 7
v 11 4 7
v -5 4 6
v -4 4 6
v 3 4 6
v 4 4 6
v 11 4 6
v 12 4 6
v 11 4 -6
v 12 4 -6
v 7 4 -7
v 11 4 -7
v 8 4 -8
v 12 4 -8
v 7 4 -12
v 8 4 -12
v -12 9 7
v -5 9 7
v -4 9 7
v 3 9 7
v 4 9 7
v 11 9 7
v -12 9 6
v -8 9 6
v -7 9 6
v -5 9 6
v -4 9 6
v 1 9 6
v 3 9 6
v 4 9 6
v 7 9 6
v 8 9 6
v 11 9 6
v 6 9 -6
v 11 9 -6
v 6 9 -7
v 7 9 -7
v 11 9 -7
v 6 9 -8
v 6 9 -12
v 7 9 -12
v -12 24 6
v -7 24 6
v -6 24 6
v 1 24 6
v 2 24 6
v 8 24 6
v 9 24 6
v 12 24 6
v -7 24 5
v -6 24 5
v 1 24 5
v 2 24 5
v 8 24 5
v 9 24 5
v 5 24 -6
v 6 24 -6
v 12 24 -6
v 5 24 -7
v 6 24 -7
v -12 24 -12
v 6 24 -12

# faces
f 4/1/1 2/1/1 1/1/1
f 5/4/1 3/4/1 2/4/1
f 5/1/1 2/1/1 4/1/1
f 6/4/1 5/4/1 4/4/1
f 7/4/1 3/4/1 5/4/1
f 7/4/1 5/4/1 6/4/1
f 8/4/1 3/4/1 7/4/1
f 9/3/1 8/3/1 7/3/1
f 10/3/1 8/3/1 9/3/1
f 11/3/1 8/3/1 10/3/1
f 12/3/1 8/3/1 11/3/1
f 15/2/1 14/2/1 13/2/1
f 16/2/1 14/2/1 15/2/1
f 19/3/1 18/3/1 17/3/1
f 20/3/1 18/3/1 19/3/1
f 21/3/2 22/3/2 23/3/2
f 23/3/2 22/3/2 24/3/2
f 25/2/2 26/2/2 27/2/2
f 27/2/2 26/2/2 28/2/2
f 29/3/2 30/3/2 33/3/2
f 30/4/2 31/4/2 34/4/2
f 33/3/2 30/3/2 34/3/2
f 31/3/2 32/3/2 35/3/2
f 34/4/2 31/4/2 35/4/2
f 33/4/2 34/4/2 36/4/2
f 34/3/2 35/3/2 37/3/2
f 36/4/2 34/4/2 37/4/2
f 36/3/2 37/3/2 38/3/2
f 37/3/2 35/3/2 39/3/2
f 38/3/2 37/3/2 39/3/2
f 38/4/2 39/4/2 40/4/2
f 39/3/2 35/3/2 40/3/2
f 35/3/2 32/3/2 41/3/2
f 40/3/2 35/3/2 41/3/2
f 38/4/2 40/4/2 42/4/2
f 40/4/2 41/4/2 42/4/2
f 42/4/2 41/4/2 43/4/2
f 42/3/2 43/3/2 44/3/2
f 43/4/2 41/4/2 45/4/2
f 44/3/2 43/3/2 45/3/2
f 44/4/2 45/4/2 46/4/2
f 45/4/2 41/4/2 46/4/2
f 41/3/2 32/3/2 47/3/2
f 46/4/2 41/4/2 47/4/2
f 44/4/2 46/4/2 48/4/2
f 46/3/2 47/3/2 49/3/2
f 48/4/2 46/4/2 49/4/2
f 47/3/2 32/3/2 50/3/2
f 49/3/2 47/3/2 50/3/2
f 51/3/2 52/3/2 53/3/2
f 53/3/2 52/3/2 54/3/2
f 55/4/2 56/4/2 59/4/2
f 56/1/2 57/1/2 60/1/2
f 59/4/2 56/4/2 60/4/2
f 57/4/2 58/4/2 61/4/2
f 60/1/2 57/1/2 61/1/2
f 59/1/2 60/1/2 62/1/2
f 60/4/2 61/4/2 63/4/2
f 62/1/2 60/1/2 63/1/2
f 62/4/2 63/4/2 64/4/2
f 61/4/2 58/4/2 65/4/2
f 64/4/2 63/4/2 65/4/2
f 63/4/2 61/4/2 65/4/2
f 66/3/2 67/3/2 70/3/2
f 70/3/2 67/3/2 71/3/2
f 68/3/2 69/3/2 72/3/2
f 72/3/2 69/3/2 73/3/2
f 74/4/2 75/4/2 76/4/2
f 76/4/2 75/4/2 77/4/2
f 77/4/2 75/4/2 78/4/2
f 78/4/2 75/4/2 79/4/2
f 77/3/2 78/3/2 80/3/2
f 80/3/2 78/3/2 81/3/2
f 85/1/3 83/1/3 82/1/3
f 85/4/3 84/4/3 83/4/3
f 86/4/3 84/4/3 85/4/3
f 87/1/3 85/1/3 82/1/3
f 87/1/3 86/1/3 85/1/3
f 88/4/3 84/4/3 86/4/3
f 88/1/3 86/1/3 87/1/3
f 89/4/3 88/4/3 87/4/3
f 90/4/3 88/4/3 89/4/3
f 91/4/3 89/4/3 87/4/3
f 92/1/3 90/1/3 89/1/3
f 92/4/3 89/4/3 91/4/3
f 93/4/3 88/4/3 90/4/3
f 93/1/3 90/1/3 92/1/3
f 94/1/3 92/1/3 91/1/3
f 94/4/3 93/4/3 92/4/3
f 95/4/3 84/4/3 88/4/3
f 95/4/3 93/4/3 94/4/3
f 95/4/3 88/4/3 93/4/3
f 96/1/3 94/1/3 91/1/3
f 96/1/3 95/1/3 94/1/3
f 97/4/3 84/4/3 95/4/3
f 97/1/3 95/1/3 96/1/3
f 98/1/3 96/1/3 91/1/3
f 99/4/3 97/4/3 96/4/3
f 99/1/3 96/1/3 98/1/3
f 100/4/3 97/4/3 99/4/3
f 101/4/3 99/4/3 98/4/3
f 102/1/3 100/1/3 99/1/3
f 102/4/3 99/4/3 101/4/3
f 103/4/3 97/4/3 100/4/3
f 103/1/3 100/1/3 102/1/3
f 104/1/3 102/1/3 101/1/3
f 105/4/3 103/4/3 102/4/3
f 105/1/3 102/1/3 104/1/3
f 106/4/3 97/4/3 103/4/3
f 106/4/3 103/4/3 105/4/3
f 107/4/3 105/4/3 104/4/3
f 108/1/3 106/1/3 105/1/3
f 108/4/3 105/4/3 107/4/3
f 109/4/3 97/4/3 106/4/3
f 109/1/3 106/1/3 108/1/3
f 110/4/3 84/4/3 97/4/3
f 110/4/3 97/4/3 109/4/3
f 111/1/3 109/1/3 108/1/3
f 111/1/3 108/1/3 107/1/3
f 111/1/3 110/1/3 109/1/3
f 112/1/3 110/1/3 111/1/3
f 113/1/3 111/1/3 107/1/3
f 114/4/3 112/4/3 111/4/3
f 114/1/3 111/1/3 113/1/3
f 115/1/3 110/1/3 112/1/3
f 115/4/3 112/4/3 114/4/3
f 116/4/3 84/4/3 110/4/3
f 116/1/3 110/1/3 115/1/3
f 117/4/3 115/4/3 114/4/3
f 117/4/3 114/4/3 113/4/3
f 117/4/3 116/4/3 115/4/3
f 118/4/3 116/4/3 117/4/3
f 119/1/3 118/1/3 117/1/3
f 120/4/3 116/4/3 118/4/3
f 120/1/3 118/1/3 119/1/3
f 121/1/3 119/1/3 117/1/3
f 121/4/3 120/4/3 119/4/3
f 122/4/3 116/4/3 120/4/3
f 122/4/3 120/4/3 121/4/3
f 123/1/3 121/1/3 117/1/3
f 123/1/3 122/1/3 121/1/3
f 124/4/3 116/4/3 122/4/3
f 124/1/3 122/1/3 123/1/3
f 125/4/3 84/4/3 116/4/3
f 125/4/3 116/4/3 124/4/3
f 126/4/3 124/4/3 123/4/3
f 126/1/3 125/1/3 124/1/3
f 127/4/3 84/4/3 125/4/3
f 127/1/3 125/1/3 126/1/3
f 128/4/3 126/4/3 123/4/3
f 128/4/3 127/4/3 126/4/3
f 129/4/3 127/4/3 128/4/3
f 130/1/3 129/1/3 128/1/3
f 130/4/3 127/4/3 129/4/3
f 131/4/3 127/4/3 130/4/3
f 132/1/3 130/1/3 128/1/3
f 132/1/3 131/1/3 130/1/3
f 133/4/3 127/4/3 131/4/3
f 133/1/3 131/1/3 132/1/3
f 134/4/3 84/4/3 127/4/3
f 134/4/3 127/4/3 133/4/3
f 135/1/3 132/1/3 128/1/3
f 136/4/3 133/4/3 132/4/3
f 136/1/3 132/1/3 135/1/3
f 137/1/3 134/1/3 133/1/3
f 137/4/3 133/4/3 136/4/3
f 138/4/3 84/4/3 134/4/3
f 138/1/3 134/1/3 137/1/3
f 139/4/3 137/4/3 136/4/3
f 139/4/3 136/4/3 135/4/3
f 139/4/3 138/4/3 137/4/3
f 140/4/3 84/4/3 138/4/3
f 140/4/3 138/4/3 139/4/3
f 143/3/3 142/3/3 141/3/3
f 144/3/3 142/3/3 143/3/3
f 147/2/3 146/2/3 145/2/3
f 148/2/3 146/2/3 147/2/3
f 151/3/3 150/3/3 149/3/3
f 152/3/3 150/3/3 151/3/3
f 155/3/3 154/3/3 153/3/3
f 156/3/3 154/3/3 155/3/3
f 157/3/3 154/3/3 156/3/3
f 158/3/3 154/3/3 157/3/3
f 159/4/3 156/4/3 155/4/3
f 160/4/3 156/4/3 159/4/3
f 161/3/3 157/3/3 156/3/3
f 161/4/3 156/4/3 160/4/3
f 162/3/3 157/3/3 161/3/3
f 163/3/3 157/3/3 162/3/3
f 164/4/3 158/4/3 157/4/3
f 164/3/3 157/3/3 163/3/3
f 165/3/3 154/3/3 158/3/3
f 165/4/3 158/4/3 164/4/3
f 166/3/3 154/3/3 165/3/3
f 167/3/3 160/3/3 159/3/3
f 167/4/3 161/4/3 160/4/3
f 167/4/3 162/4/3 161/4/3
f 168/4/3 162/4/3 167/4/3
f 169/3/3 163/3/3 162/3/3
f 169/4/3 162/4/3 168/4/3
f 170/4/3 164/4/3 163/4/3
f 170/3/3 163/3/3 169/3/3
f 170/4/3 166/4/3 165/4/3
f 170/4/3 165/4/3 164/4/3
f 171/4/3 166/4/3 170/4/3
f 172/4/3 166/4/3 171/4/3
f 174/3/3 168/3/3 167/3/3
f 174/3/3 167/3/3 159/3/3
f 175/4/3 169/4/3 168/4/3
f 175/4/3 170/4/3 169/4/3
f 175/3/3 168/3/3 174/3/3
f 175/4/3 171/4/3 170/4/3
f 176/3/3 172/3/3 171/3/3
f 176/4/3 171/4/3 175/4/3
f 177/3/3 174/3/3 173/3/3
f 177/3/3 175/3/3 174/3/3
f 177/3/3 176/3/3 175/3/3
f 178/3/3 176/3/3 177/3/3
f 179/3/3 176/3/3 178/3/3
f 180/3/3 176/3/3 179/3/3
f 181/3/3 176/3/3 180/3/3
f 182/3/3 172/3/3 176/3/3
f 182/3/3 176/3/3 181/3/3
f 183/4/3 180/4/3 179/4/3
f 184/4/3 180/4/3 183/4/3
f 185/3/3 181/3/3 180/3/3
f 185/4/3 180/4/3 184/4/3
f 186/4/3 182/4/3 181/4/3
f 186/3/3 181/3/3 185/3/3
f 187/4/3 182/4/3 186/4/3
f 188/4/3 182/4/3 187/4/3
f 190/4/3 183/4/3 179/4/3
f 191/3/3 184/3/3 183/3/3
f 191/4/3 183/4/3 190/4/3
f 192/4/3 185/4/3 184/4/3
f 192/3/3 184/3/3 191/3/3
f 192/4/3 186/4/3 185/4/3
f 192/4/3 187/4/3 186/4/3
f 193/3/3 188/3/3 187/3/3
f 193/4/3 187/4/3 192/4/3
f 194/3/3 190/3/3 189/3/3
f 194/3/3 191/3/3 190/3/3
f 194/3/3 193/3/3 192/3/3
f 194/3/3 192/3/3 191/3/3
f 195/3/3 193/3/3 194/3/3
f 196/3/3 193/3/3 195/3/3
f 197/3/3 193/3/3 196/3/3
f 198/3/3 193/3/3 197/3/3
f 199/3/3 193/3/3 198/3/3
f 200/4/3 197/4/3 196/4/3
f 201/3/3 198/3/3 197/3/3
f 201/4/3 197/4/3 200/4/3
f 202/4/3 199/4/3 198/4/3
f 202/3/3 198/3/3 201/3/3
f 203/4/3 199/4/3 202/4/3
f 204/3/3 193/3/3 199/3/3
f 204/4/3 199/4/3 203/4/3
f 205/3/3 188/3/3 193/3/3
f 205/3/3 193/3/3 204/3/3
f 206/3/3 201/3/3 200/3/3
f 206/4/3 202/4/3 201/4/3
f 207/3/3 203/3/3 202/3/3
f 207/4/3 202/4/3 206/4/3
f 208/4/3 204/4/3 203/4/3
f 208/3/3 203/3/3 207/3/3
f 208/4/3 205/4/3 204/4/3
f 209/4/3 205/4/3 208/4/3
f 210/4/3 205/4/3 209/4/3
f 211/4/3 205/4/3 210/4/3
f 212/3/3 207/3/3 206/3/3
f 212/3/3 208/3/3 207/3/3
f 212/3/3 209/3/3 208/3/3
f 212/4/3 210/4/3 209/4/3
f 213/3/3 211/3/3 210/3/3
f 213/4/3 210/4/3 212/4/3
f 215/3/3 206/3/3 200/3/3
f 215/3/3 212/3/3 206/3/3
f 215/3/3 213/3/3 212/3/3
f 216/3/3 215/3/3 214/3/3
f 217/3/3 211/3/3 213/3/3
f 217/3/3 215/3/3 216/3/3
f 217/3/3 213/3/3 215/3/3
f 218/3/4 219/3/4 226/3/4
f 223/3/4 224/3/4 226/3/4
f 222/3/4 223/3/4 226/3/4
f 221/3/4 222/3/4 226/3/4
f 220/3/4 221/3/4 226/3/4
f 219/3/4 220/3/4 226/3/4
f 225/3/4 226/3/4 227/3/4
f 226/3/4 224/3/4 228/3/4
f 227/3/4 226/3/4 228/3/4
f 229/3/4 230/3/4 231/3/4
f 231/3/4 230/3/4 232/3/4
f 233/4/4 234/4/4 237/4/4
f 235/4/4 236/4/4 237/4/4
f 234/4/4 235/4/4 237/4/4
f 237/4/4 236/4/4 238/4/4
f 240/3/4 241/3/4 242/3/4
f 242/3/4 241/3/4 243/3/4
f 239/4/4 240/4/4 244/4/4
f 240/3/4 242/3/4 244/3/4
f 244/3/4 242/3/4 245/3/4
f 239/4/4 244/4/4 246/4/4
f 246/4/4 244/4/4 247/4/4
f 261/1/5 249/1/5 248/1/5
f 262/4/5 250/4/5 249/4/5
f 262/1/5 249/1/5 261/1/5
f 263/1/5 251/1/5 250/1/5
f 263/4/5 250/4/5 262/4/5
f 264/4/5 252/4/5 251/4/5
f 264/1/5 251/1/5 263/1/5
f 265/1/5 253/1/5 252/1/5
f 265/4/5 252/4/5 264/4/5
f 266/4/5 254/4/5 253/4/5
f 266/1/5 253/1/5 265/1/5
f 267/1/5 255/1/5 254/1/5
f 267/4/5 254/4/5 266/4/5
f 268/4/5 256/4/5 255/4/5
f 268/1/5 255/1/5 267/1/5
f 269/1/5 257/1/5 256/1/5
f 269/4/5 256/4/5 268/4/5
f 270/4/5 258/4/5 257/4/5
f 270/1/5 257/1/5 269/1/5
f 271/1/5 259/1/5 258/1/5
f 271/4/5 258/4/5 270/4/5
f 272/4/5 260/4/5 259/4/5
f 272/1/5 259/1/5 271/1/5
f 273/4/5 271/4/5 270/4/5
f 273/4/5 262/4/5 261/4/5
f 273/4/5 272/4/5 271/4/5
f 273/4/5 270/4/5 269/4/5
f 273/4/5 269/4/5 268/4/5
f 273/4/5 268/4/5 267/4/5
f 273/4/5 267/4/5 266/4/5
f 273/4/5 266/4/5 265/4/5
f 273/4/5 265/4/5 264/4/5
f 273/4/5 264/4/5 263/4/5
f 273/4/5 263/4/5 262/4/5
f 274/4/5 260/4/5 272/4/5
f 274/4/5 272/4/5 273/4/5
f 275/4/5 273/4/5 261/4/5
f 276/4/5 273/4/5 275/4/5
f 277/4/5 275/4/5 261/4/5
f 277/1/5 276/1/5 275/1/5
f 278/1/5 276/1/5 277/1/5
f 279/4/5 277/4/5 261/4/5
f 279/4/5 278/4/5 277/4/5
f 280/4/5 278/4/5 279/4/5
f 281/4/6 282/4/6 283/4/6
f 283/4/6 282/4/6 284/4/6
f 284/4/6 282/4/6 285/4/6
f 285/4/6 282/4/6 286/4/6
f 286/4/6 282/4/6 287/4/6
f 287/4/6 282/4/6 288/4/6
f 284/4/6 285/4/6 289/4/6
f 289/4/6 285/4/6 290/4/6
f 286/4/6 287/4/6 291/4/6
f 291/4/6 287/4/6 292/4/6
f 288/4/6 282/4/6 293/4/6
f 293/4/6 282/4/6 294/4/6
f 295/4/6 296/4/6 298/4/6
f 297/4/6 298/4/6 299/4/6
f 298/4/6 296/4/6 300/4/6
f 299/4/6 298/4/6 300/4/6
f 297/4/6 299/4/6 301/4/6
f 301/4/6 299/4/6 302/4/6
f 303/3/6 304/3/6 309/3/6
f 309/3/6 304/3/6 310/3/6
f 310/3/6 304/3/6 311/3/6
f 311/3/6 304/3/6 312/3/6
f 305/2/6 306/2/6 313/2/6
f 313/2/6 306/2/6 314/2/6
f 314/2/6 306/2/6 315/2/6
f 307/3/6 308/3/6 316/3/6
f 316/3/6 308/3/6 317/3/6
f 317/3/6 308/3/6 318/3/6
f 318/3/6 308/3/6 319/3/6
f 320/3/6 321/3/6 322/3/6
f 322/3/6 321/3/6 323/3/6
f 323/3/6 321/3/6 324/3/6
f 322/3/6 323/3/6 325/3/6
f 325/3/6 323/3/6 326/3/6
f 326/3/6 323/3/6 327/3/6
f 328/3/6 329/3/6 336/3/6
f 329/4/6 330/4/6 336/4/6
f 330/3/6 331/3/6 337/3/6
f 336/4/6 330/4/6 337/4/6
f 331/4/6 332/4/6 338/4/6
f 337/3/6 331/3/6 338/3/6
f 332/3/6 333/3/6 339/3/6
f 338/4/6 332/4/6 339/4/6
f 333/4/6 334/4/6 340/4/6
f 339/3/6 333/3/6 340/3/6
f 334/3/6 335/3/6 341/3/6
f 340/4/6 334/4/6 341/4/6
f 339/3/6 340/3/6 342/3/6
f 338/3/6 339/3/6 342/3/6
f 340/3/6 341/3/6 342/3/6
f 337/3/6 338/3/6 342/3/6
f 336/3/6 337/3/6 342/3/6
f 342/3/6 341/3/6 343/3/6
f 341/3/6 335/3/6 344/3/6
f 343/3/6 341/3/6 344/3/6
f 342/4/6 343/4/6 345/4/6
f 336/3/6 342/3/6 345/3/6
f 345/4/6 343/4/6 346/4/6
f 328/3/6 336/3/6 347/3/6
f 336/3/6 345/3/6 347/3/6
f 345/3/6 346/3/6 347/3/6
f 347/3/6 346/3/6 348/3/6
