# MagicaVoxel @ Ephtracy

# material
mtllib WallBlock1.mtl
usemtl palette

# normals
vn -1 0 0
vn 1 0 0
vn 0 0 1
vn 0 0 -1
vn 0 -1 0
vn 0 1 0

# texcoords
vt 0.939453 0.5
vt 0.970703 0.5
vt 0.978516 0.5
vt 0.982422 0.5

# verts
v -12 0 8
v -12 0 7
v -12 0 -7
v -12 0 -8
v -12 1 8
v -12 1 7
v -12 1 -7
v -12 1 -8
v -12 4 8
v -12 4 6
v -12 4 -6
v -12 4 -8
v -12 24 6
v -12 24 -6
v -11 4 7
v -11 4 6
v -11 4 -6
v -11 4 -7
v -11 9 7
v -11 9 6
v -11 9 -6
v -11 9 -7
v -3 4 7
v -3 4 6
v -3 4 -6
v -3 4 -7
v -3 9 7
v -3 9 6
v -3 9 -6
v -3 9 -7
v 6 4 7
v 6 4 6
v 6 4 -6
v 6 4 -7
v 6 9 7
v 6 9 6
v 6 9 -6
v 6 9 -7
v -4 4 7
v -4 4 6
v -4 4 -6
v -4 4 -7
v -4 9 7
v -4 9 6
v -4 9 -6
v -4 9 -7
v 5 4 7
v 5 4 6
v 5 4 -6
v 5 4 -7
v 5 9 7
v 5 9 6
v 5 9 -6
v 5 9 -7
v 12 0 8
v 12 0 -8
v 12 4 8
v 12 4 7
v 12 4 -7
v 12 4 -8
v 12 9 7
v 12 9 6
v 12 9 -6
v 12 9 -7
v 12 24 6
v 12 24 -6
v -12 0 8
v -12 1 8
v -12 4 8
v -11 1 8
v -11 4 8
v -10 2 8
v -10 4 8
v -9 0 8
v -9 2 8
v -8 2 8
v -8 4 8
v -7 3 8
v -7 4 8
v -6 2 8
v -6 3 8
v -4 0 8
v -4 1 8
v -2 1 8
v -2 2 8
v -2 3 8
v -2 4 8
v -1 0 8
v -1 1 8
v -1 3 8
v -1 4 8
v 0 1 8
v 0 2 8
v 2 2 8
v 2 3 8
v 3 0 8
v 3 2 8
v 4 0 8
v 4 2 8
v 5 1 8
v 5 2 8
v 5 3 8
v 6 1 8
v 6 2 8
v 8 1 8
v 8 3 8
v 9 3 8
v 9 4 8
v 10 1 8
v 10 4 8
v 12 0 8
v 12 4 8
v -11 4 7
v -11 9 7
v -10 4 7
v -8 4 7
v -7 4 7
v -4 4 7
v -4 9 7
v -3 4 7
v -3 9 7
v -2 4 7
v -1 4 7
v 5 4 7
v 5 9 7
v 6 4 7
v 6 9 7
v 9 4 7
v 10 4 7
v 12 4 7
v 12 9 7
v -12 4 6
v -12 24 6
v -11 4 6
v -11 9 6
v -11 17 6
v -11 18 6
v -8 16 6
v -8 17 6
v -8 18 6
v -7 9 6
v -7 11 6
v -7 15 6
v -7 16 6
v -7 20 6
v -7 22 6
v -6 11 6
v -6 15 6
v -6 17 6
v -6 20 6
v -6 22 6
v -6 24 6
v -5 9 6
v -5 12 6
v -5 14 6
v -5 16 6
v -5 21 6
v -5 24 6
v -4 4 6
v -4 9 6
v -4 12 6
v -4 14 6
v -4 16 6
v -4 21 6
v -3 4 6
v -3 9 6
v -2 14 6
v -2 16 6
v -1 13 6
v -1 14 6
v -1 15 6
v 0 13 6
v 0 14 6
v 0 15 6
v 0 16 6
v 2 12 6
v 2 15 6
v 2 19 6
v 2 23 6
v 3 10 6
v 3 12 6
v 3 13 6
v 3 15 6
v 3 19 6
v 3 21 6
v 3 23 6
v 3 24 6
v 4 9 6
v 4 10 6
v 4 11 6
v 4 13 6
v 4 21 6
v 4 24 6
v 5 4 6
v 5 9 6
v 5 11 6
v 5 12 6
v 6 4 6
v 6 9 6
v 7 10 6
v 7 11 6
v 8 11 6
v 8 12 6
v 11 10 6
v 11 11 6
v 12 9 6
v 12 24 6
v -12 4 -6
v -12 24 -6
v -11 4 -6
v -11 9 -6
v -11 17 -6
v -11 18 -6
v -8 16 -6
v -8 17 -6
v -8 18 -6
v -7 9 -6
v -7 11 -6
v -7 15 -6
v -7 16 -6
v -6 11 -6
v -6 15 -6
v -6 17 -6
v -6 24 -6
v -5 9 -6
v -5 12 -6
v -5 14 -6
v -5 24 -6
v -4 4 -6
v -4 9 -6
v -4 12 -6
v -4 14 -6
v -3 4 -6
v -3 9 -6
v -2 14 -6
v -2 16 -6
v -1 13 -6
v -1 14 -6
v -1 15 -6
v 0 13 -6
v 0 14 -6
v 0 15 -6
v 0 16 -6
v 2 12 -6
v 2 15 -6
v 2 19 -6
v 2 23 -6
v 3 10 -6
v 3 12 -6
v 3 13 -6
v 3 15 -6
v 3 19 -6
v 3 21 -6
v 3 23 -6
v 3 24 -6
v 4 9 -6
v 4 10 -6
v 4 11 -6
v 4 13 -6
v 4 21 -6
v 4 24 -6
v 5 4 -6
v 5 9 -6
v 5 11 -6
v 5 15 -6
v 5 16 -6
v 5 20 -6
v 6 4 -6
v 6 9 -6
v 6 11 -6
v 6 13 -6
v 6 14 -6
v 6 15 -6
v 6 16 -6
v 6 17 -6
v 6 19 -6
v 6 20 -6
v 6 24 -6
v 7 9 -6
v 7 10 -6
v 7 12 -6
v 7 13 -6
v 7 14 -6
v 7 17 -6
v 7 19 -6
v 7 24 -6
v 8 11 -6
v 8 12 -6
v 11 10 -6
v 11 11 -6
v 12 9 -6
v 12 24 -6
v -11 4 -7
v -11 9 -7
v -10 4 -7
v -8 4 -7
v -7 4 -7
v -4 4 -7
v -4 9 -7
v -3 4 -7
v -3 9 -7
v -2 4 -7
v -1 4 -7
v 5 4 -7
v 5 9 -7
v 6 4 -7
v 6 9 -7
v 9 4 -7
v 10 4 -7
v 12 4 -7
v 12 9 -7
v -12 0 -8
v -12 1 -8
v -12 4 -8
v -11 1 -8
v -11 4 -8
v -10 2 -8
v -10 4 -8
v -9 0 -8
v -9 2 -8
v -8 2 -8
v -8 4 -8
v -7 3 -8
v -7 4 -8
v -6 2 -8
v -6 3 -8
v -4 0 -8
v -4 1 -8
v -2 1 -8
v -2 2 -8
v -2 3 -8
v -2 4 -8
v -1 0 -8
v -1 1 -8
v -1 3 -8
v -1 4 -8
v 0 1 -8
v 0 2 -8
v 2 2 -8
v 2 3 -8
v 3 0 -8
v 3 2 -8
v 4 0 -8
v 4 2 -8
v 5 1 -8
v 5 2 -8
v 5 3 -8
v 6 1 -8
v 6 2 -8
v 8 1 -8
v 8 3 -8
v 9 3 -8
v 9 4 -8
v 10 1 -8
v 10 4 -8
v 12 0 -8
v 12 4 -8
v -12 0 8
v -9 0 8
v -4 0 8
v -1 0 8
v 3 0 8
v 4 0 8
v 12 0 8
v -12 0 7
v -9 0 7
v -4 0 7
v -1 0 7
v 3 0 7
v 4 0 7
v -12 0 -7
v -9 0 -7
v -4 0 -7
v -1 0 -7
v 3 0 -7
v 4 0 -7
v -12 0 -8
v -9 0 -8
v -4 0 -8
v -1 0 -8
v 3 0 -8
v 4 0 -8
v 12 0 -8
v -12 4 8
v -11 4 8
v -10 4 8
v -8 4 8
v -7 4 8
v -2 4 8
v -1 4 8
v 9 4 8
v 10 4 8
v 12 4 8
v -11 4 7
v -10 4 7
v -8 4 7
v -7 4 7
v -4 4 7
v -3 4 7
v -2 4 7
v -1 4 7
v 5 4 7
v 6 4 7
v 9 4 7
v 10 4 7
v 12 4 7
v -12 4 6
v -11 4 6
v -4 4 6
v -3 4 6
v 5 4 6
v 6 4 6
v -12 4 -6
v -11 4 -6
v -4 4 -6
v -3 4 -6
v 5 4 -6
v 6 4 -6
v -11 4 -7
v -10 4 -7
v -8 4 -7
v -7 4 -7
v -4 4 -7
v -3 4 -7
v -2 4 -7
v -1 4 -7
v 5 4 -7
v 6 4 -7
v 9 4 -7
v 10 4 -7
v 12 4 -7
v -12 4 -8
v -11 4 -8
v -10 4 -8
v -8 4 -8
v -7 4 -8
v -2 4 -8
v -1 4 -8
v 9 4 -8
v 10 4 -8
v 12 4 -8
v -11 9 7
v -4 9 7
v -3 9 7
v 5 9 7
v 6 9 7
v 12 9 7
v -11 9 6
v -7 9 6
v -5 9 6
v -4 9 6
v -3 9 6
v 4 9 6
v 5 9 6
v 6 9 6
v 12 9 6
v -11 9 -6
v -7 9 -6
v -5 9 -6
v -4 9 -6
v -3 9 -6
v 4 9 -6
v 5 9 -6
v 6 9 -6
v 7 9 -6
v 12 9 -6
v -11 9 -7
v -4 9 -7
v -3 9 -7
v 5 9 -7
v 6 9 -7
v 12 9 -7
v -12 24 6
v -6 24 6
v -5 24 6
v 3 24 6
v 4 24 6
v 12 24 6
v -6 24 5
v -5 24 5
v 3 24 5
v 4 24 5
v -6 24 -5
v -5 24 -5
v 3 24 -5
v 4 24 -5
v 6 24 -5
v 7 24 -5
v -12 24 -6
v -6 24 -6
v -5 24 -6
v 3 24 -6
v 4 24 -6
v 6 24 -6
v 7 24 -6
v 12 24 -6

# faces
f 5/1/1 2/1/1 1/1/1
f 6/4/1 3/4/1 2/4/1
f 6/1/1 2/1/1 5/1/1
f 7/1/1 4/1/1 3/1/1
f 7/4/1 3/4/1 6/4/1
f 8/1/1 4/1/1 7/1/1
f 9/4/1 6/4/1 5/4/1
f 9/4/1 7/4/1 6/4/1
f 9/4/1 8/4/1 7/4/1
f 10/4/1 8/4/1 9/4/1
f 11/4/1 8/4/1 10/4/1
f 12/4/1 8/4/1 11/4/1
f 13/3/1 11/3/1 10/3/1
f 14/3/1 11/3/1 13/3/1
f 19/3/1 16/3/1 15/3/1
f 20/3/1 16/3/1 19/3/1
f 21/3/1 18/3/1 17/3/1
f 22/3/1 18/3/1 21/3/1
f 27/2/1 24/2/1 23/2/1
f 28/2/1 24/2/1 27/2/1
f 29/2/1 26/2/1 25/2/1
f 30/2/1 26/2/1 29/2/1
f 35/3/1 32/3/1 31/3/1
f 36/3/1 32/3/1 35/3/1
f 37/3/1 34/3/1 33/3/1
f 38/3/1 34/3/1 37/3/1
f 39/3/2 40/3/2 43/3/2
f 43/3/2 40/3/2 44/3/2
f 41/3/2 42/3/2 45/3/2
f 45/3/2 42/3/2 46/3/2
f 47/2/2 48/2/2 51/2/2
f 51/2/2 48/2/2 52/2/2
f 49/2/2 50/2/2 53/2/2
f 53/2/2 50/2/2 54/2/2
f 55/4/2 56/4/2 57/4/2
f 57/4/2 56/4/2 58/4/2
f 58/4/2 56/4/2 59/4/2
f 59/4/2 56/4/2 60/4/2
f 58/3/2 59/3/2 61/3/2
f 61/3/2 59/3/2 62/3/2
f 62/3/2 59/3/2 63/3/2
f 63/3/2 59/3/2 64/3/2
f 62/3/2 63/3/2 65/3/2
f 65/3/2 63/3/2 66/3/2
f 70/1/3 68/1/3 67/1/3
f 70/4/3 69/4/3 68/4/3
f 71/4/3 69/4/3 70/4/3
f 72/1/3 71/1/3 70/1/3
f 73/1/3 71/1/3 72/1/3
f 74/1/3 70/1/3 67/1/3
f 74/1/3 72/1/3 70/1/3
f 75/4/3 73/4/3 72/4/3
f 75/1/3 72/1/3 74/1/3
f 76/4/3 75/4/3 74/4/3
f 76/4/3 73/4/3 75/4/3
f 77/4/3 73/4/3 76/4/3
f 78/1/3 77/1/3 76/1/3
f 79/1/3 77/1/3 78/1/3
f 80/4/3 76/4/3 74/4/3
f 80/1/3 78/1/3 76/1/3
f 81/4/3 79/4/3 78/4/3
f 81/1/3 78/1/3 80/1/3
f 82/4/3 80/4/3 74/4/3
f 82/4/3 81/4/3 80/4/3
f 83/4/3 81/4/3 82/4/3
f 84/1/3 83/1/3 82/1/3
f 84/4/3 81/4/3 83/4/3
f 85/4/3 81/4/3 84/4/3
f 86/4/3 79/4/3 81/4/3
f 86/4/3 81/4/3 85/4/3
f 87/4/3 79/4/3 86/4/3
f 88/1/3 85/1/3 84/1/3
f 88/1/3 84/1/3 82/1/3
f 89/1/3 85/1/3 88/1/3
f 90/1/3 87/1/3 86/1/3
f 90/4/3 86/4/3 85/4/3
f 91/1/3 87/1/3 90/1/3
f 92/1/3 85/1/3 89/1/3
f 92/4/3 89/4/3 88/4/3
f 93/4/3 91/4/3 90/4/3
f 93/1/3 85/1/3 92/1/3
f 93/4/3 90/4/3 85/4/3
f 94/4/3 93/4/3 92/4/3
f 94/4/3 91/4/3 93/4/3
f 95/4/3 91/4/3 94/4/3
f 96/4/3 92/4/3 88/4/3
f 96/4/3 94/4/3 92/4/3
f 97/1/3 95/1/3 94/1/3
f 97/4/3 94/4/3 96/4/3
f 98/1/3 97/1/3 96/1/3
f 99/1/3 95/1/3 97/1/3
f 99/1/3 97/1/3 98/1/3
f 100/4/3 99/4/3 98/4/3
f 101/1/3 95/1/3 99/1/3
f 101/4/3 99/4/3 100/4/3
f 102/4/3 91/4/3 95/4/3
f 102/1/3 95/1/3 101/1/3
f 103/1/3 101/1/3 100/1/3
f 103/4/3 100/4/3 98/4/3
f 104/4/3 102/4/3 101/4/3
f 104/1/3 101/1/3 103/1/3
f 105/4/3 103/4/3 98/4/3
f 105/4/3 104/4/3 103/4/3
f 106/4/3 91/4/3 102/4/3
f 106/4/3 104/4/3 105/4/3
f 106/4/3 102/4/3 104/4/3
f 107/1/3 106/1/3 105/1/3
f 107/4/3 91/4/3 106/4/3
f 108/4/3 91/4/3 107/4/3
f 109/4/3 105/4/3 98/4/3
f 109/1/3 107/1/3 105/1/3
f 109/1/3 108/1/3 107/1/3
f 110/1/3 108/1/3 109/1/3
f 111/4/3 109/4/3 98/4/3
f 111/4/3 110/4/3 109/4/3
f 112/4/3 110/4/3 111/4/3
f 115/3/3 114/3/3 113/3/3
f 116/3/3 114/3/3 115/3/3
f 117/3/3 114/3/3 116/3/3
f 118/3/3 114/3/3 117/3/3
f 119/3/3 114/3/3 118/3/3
f 122/2/3 121/2/3 120/2/3
f 123/2/3 121/2/3 122/2/3
f 124/2/3 121/2/3 123/2/3
f 125/2/3 121/2/3 124/2/3
f 128/3/3 127/3/3 126/3/3
f 129/3/3 127/3/3 128/3/3
f 130/3/3 127/3/3 129/3/3
f 131/3/3 127/3/3 130/3/3
f 134/3/3 133/3/3 132/3/3
f 135/3/3 133/3/3 134/3/3
f 136/3/3 133/3/3 135/3/3
f 137/3/3 133/3/3 136/3/3
f 138/3/3 136/3/3 135/3/3
f 139/4/3 137/4/3 136/4/3
f 139/3/3 136/3/3 138/3/3
f 140/3/3 133/3/3 137/3/3
f 140/4/3 137/4/3 139/4/3
f 141/3/3 138/3/3 135/3/3
f 142/3/3 138/3/3 141/3/3
f 143/3/3 138/3/3 142/3/3
f 144/4/3 139/4/3 138/4/3
f 144/3/3 138/3/3 143/3/3
f 145/3/3 133/3/3 140/3/3
f 145/3/3 140/3/3 139/3/3
f 146/3/3 133/3/3 145/3/3
f 147/3/3 143/3/3 142/3/3
f 147/4/3 142/4/3 141/4/3
f 148/4/3 144/4/3 143/4/3
f 148/3/3 143/3/3 147/3/3
f 149/4/3 139/4/3 144/4/3
f 149/4/3 144/4/3 148/4/3
f 149/3/3 145/3/3 139/3/3
f 150/4/3 146/4/3 145/4/3
f 150/3/3 145/3/3 149/3/3
f 151/3/3 133/3/3 146/3/3
f 151/4/3 146/4/3 150/4/3
f 152/3/3 133/3/3 151/3/3
f 153/4/3 150/4/3 149/4/3
f 153/4/3 148/4/3 147/4/3
f 153/4/3 152/4/3 151/4/3
f 153/4/3 151/4/3 150/4/3
f 153/4/3 149/4/3 148/4/3
f 153/4/3 147/4/3 141/4/3
f 154/4/3 152/4/3 153/4/3
f 155/4/3 152/4/3 154/4/3
f 156/4/3 152/4/3 155/4/3
f 157/4/3 152/4/3 156/4/3
f 158/4/3 152/4/3 157/4/3
f 160/3/3 154/3/3 153/3/3
f 161/4/3 155/4/3 154/4/3
f 161/3/3 154/3/3 160/3/3
f 162/3/3 156/3/3 155/3/3
f 162/4/3 155/4/3 161/4/3
f 163/4/3 157/4/3 156/4/3
f 163/3/3 156/3/3 162/3/3
f 164/3/3 158/3/3 157/3/3
f 164/4/3 157/4/3 163/4/3
f 165/3/3 160/3/3 159/3/3
f 165/3/3 161/3/3 160/3/3
f 165/3/3 164/3/3 163/3/3
f 165/3/3 162/3/3 161/3/3
f 165/3/3 163/3/3 162/3/3
f 166/3/3 164/3/3 165/3/3
f 167/3/3 164/3/3 166/3/3
f 168/3/3 164/3/3 167/3/3
f 169/3/3 167/3/3 166/3/3
f 170/4/3 168/4/3 167/4/3
f 170/3/3 167/3/3 169/3/3
f 171/4/3 168/4/3 170/4/3
f 172/3/3 169/3/3 166/3/3
f 172/4/3 170/4/3 169/4/3
f 173/3/3 171/3/3 170/3/3
f 173/4/3 170/4/3 172/4/3
f 174/4/3 168/4/3 171/4/3
f 174/3/3 171/3/3 173/3/3
f 175/3/3 164/3/3 168/3/3
f 175/4/3 168/4/3 174/4/3
f 176/3/3 174/3/3 173/3/3
f 176/3/3 173/3/3 172/3/3
f 176/3/3 175/3/3 174/3/3
f 176/3/3 172/3/3 166/3/3
f 177/3/3 175/3/3 176/3/3
f 178/3/3 164/3/3 175/3/3
f 178/3/3 175/3/3 177/3/3
f 179/3/3 158/3/3 164/3/3
f 179/3/3 164/3/3 178/3/3
f 180/3/3 176/3/3 166/3/3
f 181/4/3 177/4/3 176/4/3
f 181/3/3 176/3/3 180/3/3
f 182/4/3 177/4/3 181/4/3
f 183/3/3 178/3/3 177/3/3
f 183/4/3 177/4/3 182/4/3
f 184/4/3 179/4/3 178/4/3
f 184/3/3 178/3/3 183/3/3
f 185/4/3 179/4/3 184/4/3
f 186/3/3 158/3/3 179/3/3
f 186/4/3 179/4/3 185/4/3
f 187/3/3 158/3/3 186/3/3
f 188/3/3 180/3/3 166/3/3
f 189/4/3 182/4/3 181/4/3
f 189/3/3 180/3/3 188/3/3
f 189/4/3 181/4/3 180/4/3
f 190/4/3 182/4/3 189/4/3
f 191/3/3 185/3/3 184/3/3
f 191/4/3 182/4/3 190/4/3
f 191/3/3 183/3/3 182/3/3
f 191/3/3 184/3/3 183/3/3
f 192/4/3 187/4/3 186/4/3
f 192/3/3 185/3/3 191/3/3
f 192/4/3 186/4/3 185/4/3
f 193/4/3 187/4/3 192/4/3
f 195/4/3 190/4/3 189/4/3
f 195/4/3 189/4/3 188/4/3
f 196/3/3 193/3/3 192/3/3
f 196/3/3 191/3/3 190/3/3
f 196/4/3 190/4/3 195/4/3
f 196/3/3 192/3/3 191/3/3
f 197/3/3 193/3/3 196/3/3
f 198/3/3 195/3/3 194/3/3
f 198/3/3 196/3/3 195/3/3
f 199/3/3 196/3/3 198/3/3
f 200/3/3 196/3/3 199/3/3
f 201/4/3 197/4/3 196/4/3
f 201/3/3 196/3/3 200/3/3
f 202/4/3 201/4/3 200/4/3
f 202/4/3 197/4/3 201/4/3
f 203/3/3 193/3/3 197/3/3
f 203/4/3 197/4/3 202/4/3
f 204/4/3 202/4/3 200/4/3
f 204/3/3 200/3/3 199/3/3
f 205/3/3 203/3/3 202/3/3
f 205/4/3 202/4/3 204/4/3
f 206/3/3 204/3/3 199/3/3
f 206/3/3 205/3/3 204/3/3
f 207/3/3 193/3/3 203/3/3
f 207/3/3 205/3/3 206/3/3
f 207/3/3 203/3/3 205/3/3
f 208/3/4 209/3/4 210/3/4
f 210/3/4 209/3/4 211/3/4
f 211/3/4 209/3/4 212/3/4
f 212/3/4 209/3/4 213/3/4
f 211/3/4 212/3/4 214/3/4
f 212/4/4 213/4/4 215/4/4
f 214/3/4 212/3/4 215/3/4
f 213/3/4 209/3/4 216/3/4
f 215/4/4 213/4/4 216/4/4
f 211/3/4 214/3/4 217/3/4
f 217/3/4 214/3/4 218/3/4
f 218/3/4 214/3/4 219/3/4
f 214/4/4 215/4/4 220/4/4
f 219/3/4 214/3/4 220/3/4
f 218/3/4 219/3/4 221/3/4
f 217/4/4 218/4/4 221/4/4
f 219/4/4 220/4/4 222/4/4
f 221/3/4 219/3/4 222/3/4
f 220/4/4 215/4/4 223/4/4
f 222/4/4 220/4/4 223/4/4
f 215/3/4 216/3/4 223/3/4
f 216/3/4 209/3/4 224/3/4
f 223/3/4 216/3/4 224/3/4
f 221/4/4 222/4/4 225/4/4
f 222/4/4 223/4/4 225/4/4
f 223/4/4 224/4/4 225/4/4
f 217/4/4 221/4/4 225/4/4
f 225/4/4 224/4/4 226/4/4
f 226/4/4 224/4/4 227/4/4
f 227/4/4 224/4/4 228/4/4
f 225/3/4 226/3/4 230/3/4
f 226/4/4 227/4/4 231/4/4
f 230/3/4 226/3/4 231/3/4
f 227/3/4 228/3/4 232/3/4
f 231/4/4 227/4/4 232/4/4
f 229/3/4 230/3/4 233/3/4
f 230/3/4 231/3/4 233/3/4
f 231/3/4 232/3/4 233/3/4
f 233/3/4 232/3/4 234/3/4
f 232/3/4 228/3/4 235/3/4
f 234/3/4 232/3/4 235/3/4
f 235/3/4 228/3/4 236/3/4
f 234/3/4 235/3/4 237/3/4
f 235/4/4 236/4/4 238/4/4
f 237/3/4 235/3/4 238/3/4
f 238/4/4 236/4/4 239/4/4
f 234/3/4 237/3/4 240/3/4
f 237/4/4 238/4/4 240/4/4
f 238/3/4 239/3/4 241/3/4
f 240/4/4 238/4/4 241/4/4
f 239/4/4 236/4/4 242/4/4
f 241/3/4 239/3/4 242/3/4
f 236/3/4 228/3/4 243/3/4
f 242/4/4 236/4/4 243/4/4
f 241/3/4 242/3/4 244/3/4
f 240/3/4 241/3/4 244/3/4
f 242/3/4 243/3/4 244/3/4
f 234/3/4 240/3/4 244/3/4
f 244/3/4 243/3/4 245/3/4
f 243/3/4 228/3/4 246/3/4
f 245/3/4 243/3/4 246/3/4
f 246/3/4 228/3/4 247/3/4
f 234/3/4 244/3/4 248/3/4
f 244/4/4 245/4/4 249/4/4
f 248/3/4 244/3/4 249/3/4
f 249/4/4 245/4/4 250/4/4
f 245/3/4 246/3/4 251/3/4
f 250/4/4 245/4/4 251/4/4
f 246/4/4 247/4/4 252/4/4
f 251/3/4 246/3/4 252/3/4
f 252/4/4 247/4/4 253/4/4
f 247/3/4 228/3/4 254/3/4
f 253/4/4 247/4/4 254/4/4
f 254/3/4 228/3/4 255/3/4
f 234/3/4 248/3/4 256/3/4
f 249/4/4 250/4/4 257/4/4
f 256/3/4 248/3/4 257/3/4
f 248/4/4 249/4/4 257/4/4
f 257/4/4 250/4/4 258/4/4
f 252/3/4 253/3/4 259/3/4
f 258/4/4 250/4/4 259/4/4
f 250/3/4 251/3/4 259/3/4
f 251/3/4 252/3/4 259/3/4
f 254/4/4 255/4/4 260/4/4
f 259/3/4 253/3/4 260/3/4
f 253/4/4 254/4/4 260/4/4
f 260/4/4 255/4/4 261/4/4
f 257/4/4 258/4/4 263/4/4
f 256/4/4 257/4/4 263/4/4
f 260/3/4 261/3/4 264/3/4
f 258/3/4 259/3/4 264/3/4
f 263/4/4 258/4/4 264/4/4
f 259/3/4 260/3/4 264/3/4
f 264/3/4 261/3/4 265/3/4
f 265/3/4 261/3/4 266/3/4
f 266/3/4 261/3/4 267/3/4
f 262/3/4 263/3/4 268/3/4
f 263/3/4 264/3/4 268/3/4
f 268/3/4 264/3/4 269/3/4
f 264/4/4 265/4/4 270/4/4
f 269/3/4 264/3/4 270/3/4
f 270/4/4 265/4/4 271/4/4
f 271/4/4 265/4/4 272/4/4
f 265/3/4 266/3/4 273/3/4
f 272/4/4 265/4/4 273/4/4
f 266/4/4 267/4/4 274/4/4
f 273/3/4 266/3/4 274/3/4
f 274/4/4 267/4/4 275/4/4
f 275/4/4 267/4/4 276/4/4
f 267/3/4 261/3/4 277/3/4
f 276/4/4 267/4/4 277/4/4
f 277/3/4 261/3/4 278/3/4
f 269/4/4 270/4/4 279/4/4
f 270/4/4 271/4/4 279/4/4
f 279/4/4 271/4/4 280/4/4
f 280/4/4 271/4/4 281/4/4
f 271/3/4 272/3/4 282/3/4
f 281/4/4 271/4/4 282/4/4
f 272/4/4 273/4/4 283/4/4
f 282/3/4 272/3/4 283/3/4
f 273/4/4 274/4/4 283/4/4
f 274/4/4 275/4/4 283/4/4
f 275/3/4 276/3/4 284/3/4
f 283/4/4 275/4/4 284/4/4
f 277/4/4 278/4/4 285/4/4
f 284/3/4 276/3/4 285/3/4
f 276/4/4 277/4/4 285/4/4
f 285/4/4 278/4/4 286/4/4
f 280/4/4 281/4/4 287/4/4
f 282/3/4 283/3/4 288/3/4
f 287/4/4 281/4/4 288/4/4
f 281/3/4 282/3/4 288/3/4
f 285/3/4 286/3/4 288/3/4
f 284/3/4 285/3/4 288/3/4
f 283/3/4 284/3/4 288/3/4
f 280/4/4 287/4/4 289/4/4
f 279/3/4 280/3/4 289/3/4
f 287/3/4 288/3/4 290/3/4
f 289/4/4 287/4/4 290/4/4
f 279/3/4 289/3/4 291/3/4
f 289/3/4 290/3/4 291/3/4
f 288/3/4 286/3/4 292/3/4
f 291/3/4 290/3/4 292/3/4
f 290/3/4 288/3/4 292/3/4
f 293/3/4 294/3/4 295/3/4
f 295/3/4 294/3/4 296/3/4
f 296/3/4 294/3/4 297/3/4
f 297/3/4 294/3/4 298/3/4
f 298/3/4 294/3/4 299/3/4
f 300/2/4 301/2/4 302/2/4
f 302/2/4 301/2/4 303/2/4
f 303/2/4 301/2/4 304/2/4
f 304/2/4 301/2/4 305/2/4
f 306/3/4 307/3/4 308/3/4
f 308/3/4 307/3/4 309/3/4
f 309/3/4 307/3/4 310/3/4
f 310/3/4 307/3/4 311/3/4
f 312/1/4 313/1/4 315/1/4
f 313/4/4 314/4/4 315/4/4
f 315/4/4 314/4/4 316/4/4
f 315/1/4 316/1/4 317/1/4
f 317/1/4 316/1/4 318/1/4
f 312/1/4 315/1/4 319/1/4
f 315/1/4 317/1/4 319/1/4
f 317/4/4 318/4/4 320/4/4
f 319/1/4 317/1/4 320/1/4
f 319/4/4 320/4/4 321/4/4
f 320/4/4 318/4/4 321/4/4
f 321/4/4 318/4/4 322/4/4
f 321/1/4 322/1/4 323/1/4
f 323/1/4 322/1/4 324/1/4
f 319/4/4 321/4/4 325/4/4
f 321/1/4 323/1/4 325/1/4
f 323/4/4 324/4/4 326/4/4
f 325/1/4 323/1/4 326/1/4
f 319/4/4 325/4/4 327/4/4
f 325/4/4 326/4/4 327/4/4
f 327/4/4 326/4/4 328/4/4
f 327/1/4 328/1/4 329/1/4
f 328/4/4 326/4/4 329/4/4
f 329/4/4 326/4/4 330/4/4
f 326/4/4 324/4/4 331/4/4
f 330/4/4 326/4/4 331/4/4
f 331/4/4 324/4/4 332/4/4
f 329/1/4 330/1/4 333/1/4
f 327/1/4 329/1/4 333/1/4
f 333/1/4 330/1/4 334/1/4
f 331/1/4 332/1/4 335/1/4
f 330/4/4 331/4/4 335/4/4
f 335/1/4 332/1/4 336/1/4
f 334/1/4 330/1/4 337/1/4
f 333/4/4 334/4/4 337/4/4
f 335/4/4 336/4/4 338/4/4
f 337/1/4 330/1/4 338/1/4
f 330/4/4 335/4/4 338/4/4
f 337/4/4 338/4/4 339/4/4
f 338/4/4 336/4/4 339/4/4
f 339/4/4 336/4/4 340/4/4
f 333/4/4 337/4/4 341/4/4
f 337/4/4 339/4/4 341/4/4
f 339/1/4 340/1/4 342/1/4
f 341/4/4 339/4/4 342/4/4
f 341/1/4 342/1/4 343/1/4
f 342/1/4 340/1/4 344/1/4
f 343/1/4 342/1/4 344/1/4
f 343/4/4 344/4/4 345/4/4
f 344/1/4 340/1/4 346/1/4
f 345/4/4 344/4/4 346/4/4
f 340/4/4 336/4/4 347/4/4
f 346/1/4 340/1/4 347/1/4
f 345/1/4 346/1/4 348/1/4
f 343/4/4 345/4/4 348/4/4
f 346/4/4 347/4/4 349/4/4
f 348/1/4 346/1/4 349/1/4
f 343/4/4 348/4/4 350/4/4
f 348/4/4 349/4/4 350/4/4
f 347/4/4 336/4/4 351/4/4
f 350/4/4 349/4/4 351/4/4
f 349/4/4 347/4/4 351/4/4
f 350/1/4 351/1/4 352/1/4
f 351/4/4 336/4/4 352/4/4
f 352/4/4 336/4/4 353/4/4
f 343/4/4 350/4/4 354/4/4
f 350/1/4 352/1/4 354/1/4
f 352/1/4 353/1/4 354/1/4
f 354/1/4 353/1/4 355/1/4
f 343/4/4 354/4/4 356/4/4
f 354/4/4 355/4/4 356/4/4
f 356/4/4 355/4/4 357/4/4
f 365/1/5 359/1/5 358/1/5
f 366/4/5 360/4/5 359/4/5
f 366/1/5 359/1/5 365/1/5
f 367/1/5 361/1/5 360/1/5
f 367/4/5 360/4/5 366/4/5
f 368/4/5 362/4/5 361/4/5
f 368/1/5 361/1/5 367/1/5
f 369/1/5 363/1/5 362/1/5
f 369/4/5 362/4/5 368/4/5
f 370/4/5 364/4/5 363/4/5
f 370/1/5 363/1/5 369/1/5
f 371/4/5 369/4/5 368/4/5
f 371/4/5 366/4/5 365/4/5
f 371/4/5 370/4/5 369/4/5
f 371/4/5 368/4/5 367/4/5
f 371/4/5 367/4/5 366/4/5
f 372/4/5 370/4/5 371/4/5
f 373/4/5 370/4/5 372/4/5
f 374/4/5 370/4/5 373/4/5
f 375/4/5 370/4/5 374/4/5
f 376/4/5 364/4/5 370/4/5
f 376/4/5 370/4/5 375/4/5
f 377/1/5 372/1/5 371/1/5
f 378/4/5 373/4/5 372/4/5
f 378/1/5 372/1/5 377/1/5
f 379/1/5 374/1/5 373/1/5
f 379/4/5 373/4/5 378/4/5
f 380/4/5 375/4/5 374/4/5
f 380/1/5 374/1/5 379/1/5
f 381/1/5 376/1/5 375/1/5
f 381/4/5 375/4/5 380/4/5
f 382/4/5 364/4/5 376/4/5
f 382/1/5 376/1/5 381/1/5
f 383/4/5 364/4/5 382/4/5
f 384/4/6 385/4/6 394/4/6
f 385/1/6 386/1/6 394/1/6
f 386/4/6 387/4/6 395/4/6
f 394/1/6 386/1/6 395/1/6
f 387/1/6 388/1/6 396/1/6
f 395/4/6 387/4/6 396/4/6
f 388/4/6 389/4/6 397/4/6
f 396/1/6 388/1/6 397/1/6
f 397/4/6 389/4/6 398/4/6
f 398/4/6 389/4/6 399/4/6
f 389/1/6 390/1/6 400/1/6
f 399/4/6 389/4/6 400/4/6
f 390/4/6 391/4/6 401/4/6
f 400/1/6 390/1/6 401/1/6
f 401/4/6 391/4/6 402/4/6
f 402/4/6 391/4/6 403/4/6
f 391/1/6 392/1/6 404/1/6
f 403/4/6 391/4/6 404/4/6
f 392/4/6 393/4/6 405/4/6
f 404/1/6 392/1/6 405/1/6
f 405/4/6 393/4/6 406/4/6
f 384/4/6 394/4/6 407/4/6
f 407/4/6 394/4/6 408/4/6
f 398/4/6 399/4/6 409/4/6
f 409/4/6 399/4/6 410/4/6
f 402/4/6 403/4/6 411/4/6
f 411/4/6 403/4/6 412/4/6
f 413/4/6 414/4/6 419/4/6
f 415/4/6 416/4/6 423/4/6
f 423/4/6 416/4/6 424/4/6
f 417/4/6 418/4/6 427/4/6
f 427/4/6 418/4/6 428/4/6
f 413/4/6 419/4/6 432/4/6
f 419/1/6 420/1/6 433/1/6
f 432/4/6 419/4/6 433/4/6
f 420/4/6 421/4/6 434/4/6
f 433/1/6 420/1/6 434/1/6
f 421/1/6 422/1/6 435/1/6
f 434/4/6 421/4/6 435/4/6
f 422/4/6 423/4/6 436/4/6
f 435/1/6 422/1/6 436/1/6
f 423/4/6 424/4/6 436/4/6
f 424/4/6 425/4/6 436/4/6
f 425/1/6 426/1/6 437/1/6
f 436/4/6 425/4/6 437/4/6
f 427/4/6 428/4/6 438/4/6
f 437/1/6 426/1/6 438/1/6
f 428/4/6 429/4/6 438/4/6
f 426/4/6 427/4/6 438/4/6
f 429/1/6 430/1/6 439/1/6
f 438/4/6 429/4/6 439/4/6
f 430/4/6 431/4/6 440/4/6
f 439/1/6 430/1/6 440/1/6
f 440/4/6 431/4/6 441/4/6
f 442/3/6 443/3/6 448/3/6
f 448/3/6 443/3/6 449/3/6
f 449/3/6 443/3/6 450/3/6
f 450/3/6 443/3/6 451/3/6
f 444/2/6 445/2/6 452/2/6
f 452/2/6 445/2/6 453/2/6
f 453/2/6 445/2/6 454/2/6
f 446/3/6 447/3/6 455/3/6
f 455/3/6 447/3/6 456/3/6
f 457/3/6 458/3/6 467/3/6
f 458/3/6 459/3/6 467/3/6
f 459/3/6 460/3/6 467/3/6
f 467/3/6 460/3/6 468/3/6
f 462/2/6 463/2/6 469/2/6
f 461/2/6 462/2/6 469/2/6
f 469/2/6 463/2/6 470/2/6
f 465/3/6 466/3/6 471/3/6
f 464/3/6 465/3/6 471/3/6
f 471/3/6 466/3/6 472/3/6
f 473/3/6 474/3/6 479/3/6
f 474/4/6 475/4/6 479/4/6
f 475/3/6 476/3/6 480/3/6
f 479/4/6 475/4/6 480/4/6
f 476/4/6 477/4/6 481/4/6
f 480/3/6 476/3/6 481/3/6
f 477/3/6 478/3/6 482/3/6
f 481/4/6 477/4/6 482/4/6
f 480/3/6 481/3/6 483/3/6
f 479/3/6 480/3/6 483/3/6
f 481/3/6 482/3/6 483/3/6
f 473/3/6 479/3/6 483/3/6
f 483/3/6 482/3/6 484/3/6
f 484/3/6 482/3/6 485/3/6
f 482/3/6 478/3/6 486/3/6
f 485/3/6 482/3/6 486/3/6
f 486/3/6 478/3/6 487/3/6
f 487/3/6 478/3/6 488/3/6
f 473/3/6 483/3/6 489/3/6
f 483/4/6 484/4/6 490/4/6
f 489/3/6 483/3/6 490/3/6
f 484/3/6 485/3/6 491/3/6
f 490/4/6 484/4/6 491/4/6
f 485/4/6 486/4/6 492/4/6
f 491/3/6 485/3/6 492/3/6
f 486/3/6 487/3/6 493/3/6
f 492/4/6 486/4/6 493/4/6
f 487/4/6 488/4/6 494/4/6
f 493/3/6 487/3/6 494/3/6
f 488/3/6 478/3/6 495/3/6
f 494/4/6 488/4/6 495/4/6
f 495/3/6 478/3/6 496/3/6
