# MagicaVoxel @ Ephtracy

# material
mtllib WallTBlock1.mtl
usemtl palette

# normals
vn -1 0 0
vn 1 0 0
vn 0 0 1
vn 0 0 -1
vn 0 -1 0
vn 0 1 0

# texcoords
vt 0.939453 0.5
vt 0.970703 0.5
vt 0.978516 0.5
vt 0.982422 0.5

# verts
v -12 0 8
v -12 0 7
v -12 0 -8
v -12 1 8
v -12 1 7
v -12 4 8
v -12 4 7
v -12 4 -7
v -12 4 -8
v -12 9 7
v -12 9 6
v -12 9 -6
v -12 9 -7
v -12 24 6
v -12 24 -6
v -8 0 -8
v -8 0 -9
v -8 0 -10
v -8 0 -12
v -8 1 -8
v -8 1 -9
v -8 1 -11
v -8 1 -12
v -8 2 -10
v -8 2 -11
v -8 4 -6
v -8 4 -7
v -8 4 -8
v -8 4 -12
v -8 9 -6
v -8 9 -7
v -7 4 -7
v -7 4 -12
v -7 9 -7
v -7 9 -12
v -6 9 -6
v -6 9 -12
v -6 24 -6
v -6 24 -12
v -4 4 7
v -4 4 6
v -4 9 7
v -4 9 6
v 4 4 7
v 4 4 6
v 4 9 7
v 4 9 6
v -9 4 -6
v -9 4 -7
v -9 9 -6
v -9 9 -7
v -5 4 7
v -5 4 6
v -5 9 7
v -5 9 6
v 3 4 7
v 3 4 6
v 3 9 7
v 3 9 6
v 6 9 -6
v 6 9 -7
v 6 9 -8
v 6 9 -12
v 6 10 -6
v 6 10 -7
v 6 10 -8
v 6 14 -6
v 6 14 -7
v 6 15 -6
v 6 15 -7
v 6 16 -7
v 6 16 -8
v 6 18 -6
v 6 18 -7
v 6 20 -6
v 6 20 -7
v 6 21 -7
v 6 21 -8
v 6 24 -6
v 6 24 -7
v 6 24 -12
v 7 4 -7
v 7 4 -12
v 7 9 -7
v 7 9 -12
v 8 0 -8
v 8 0 -9
v 8 0 -11
v 8 0 -12
v 8 1 -8
v 8 1 -9
v 8 1 -11
v 8 3 -8
v 8 3 -9
v 8 4 -8
v 8 4 -12
v 11 4 7
v 11 4 6
v 11 4 -6
v 11 4 -7
v 11 9 7
v 11 9 6
v 11 9 -6
v 11 9 -7
v 12 0 8
v 12 0 -8
v 12 4 8
v 12 4 6
v 12 4 -6
v 12 4 -8
v 12 24 6
v 12 24 -6
v -12 0 8
v -12 1 8
v -12 4 8
v -11 1 8
v -11 3 8
v -10 0 8
v -10 3 8
v -9 1 8
v -9 2 8
v -8 0 8
v -8 1 8
v -8 2 8
v -7 1 8
v -7 3 8
v -6 1 8
v -6 3 8
v -4 0 8
v -4 1 8
v -4 2 8
v -3 0 8
v -3 1 8
v -3 2 8
v -2 0 8
v -2 1 8
v -2 2 8
v -1 0 8
v -1 1 8
v -1 2 8
v -1 3 8
v 0 1 8
v 0 2 8
v 1 0 8
v 1 1 8
v 1 2 8
v 1 3 8
v 2 0 8
v 2 2 8
v 3 1 8
v 3 2 8
v 5 1 8
v 5 2 8
v 6 0 8
v 6 2 8
v 6 3 8
v 7 2 8
v 7 3 8
v 8 0 8
v 8 1 8
v 9 1 8
v 9 2 8
v 10 1 8
v 10 2 8
v 10 3 8
v 11 0 8
v 11 1 8
v 11 2 8
v 11 3 8
v 12 0 8
v 12 4 8
v -12 4 7
v -12 9 7
v -5 4 7
v -5 9 7
v -4 4 7
v -4 9 7
v 3 4 7
v 3 9 7
v 4 4 7
v 4 9 7
v 11 4 7
v 11 9 7
v -12 9 6
v -12 24 6
v -8 9 6
v -8 13 6
v -8 20 6
v -8 22 6
v -7 9 6
v -7 11 6
v -7 13 6
v -7 15 6
v -7 16 6
v -7 20 6
v -7 22 6
v -7 24 6
v -6 11 6
v -6 14 6
v -6 15 6
v -6 16 6
v -6 19 6
v -6 24 6
v -5 4 6
v -5 9 6
v -5 14 6
v -5 19 6
v -4 4 6
v -4 9 6
v 1 9 6
v 1 15 6
v 1 17 6
v 1 24 6
v 2 12 6
v 2 14 6
v 2 15 6
v 2 17 6
v 2 22 6
v 2 24 6
v 3 4 6
v 3 9 6
v 3 12 6
v 3 14 6
v 3 22 6
v 4 4 6
v 4 9 6
v 7 9 6
v 7 12 6
v 7 15 6
v 7 19 6
v 8 9 6
v 8 12 6
v 8 15 6
v 8 17 6
v 8 19 6
v 8 24 6
v 9 12 6
v 9 15 6
v 9 17 6
v 9 20 6
v 9 22 6
v 9 24 6
v 10 20 6
v 10 22 6
v 11 4 6
v 11 9 6
v 12 4 6
v 12 24 6
v -12 9 -6
v -12 24 -6
v -9 4 -6
v -9 9 -6
v -8 4 -6
v -8 9 -6
v -6 9 -6
v -6 24 -6
v 6 9 -6
v 6 10 -6
v 6 14 -6
v 6 15 -6
v 6 18 -6
v 6 20 -6
v 6 24 -6
v 11 4 -6
v 11 9 -6
v 12 4 -6
v 12 24 -6
v -12 4 -7
v -12 9 -7
v -9 4 -7
v -9 9 -7
v -8 4 -7
v -8 9 -7
v -7 4 -7
v -7 9 -7
v 7 4 -7
v 7 9 -7
v 11 4 -7
v 11 9 -7
v -12 0 -8
v -12 4 -8
v -11 0 -8
v -11 1 -8
v -11 2 -8
v -11 3 -8
v -10 1 -8
v -10 2 -8
v -10 3 -8
v -9 1 -8
v -9 2 -8
v -8 0 -8
v -8 1 -8
v -8 4 -8
v 8 0 -8
v 8 1 -8
v 8 3 -8
v 8 4 -8
v 12 0 -8
v 12 4 -8
v -8 0 -12
v -8 1 -12
v -8 4 -12
v -7 0 -12
v -7 1 -12
v -7 4 -12
v -7 9 -12
v -6 4 -12
v -6 9 -12
v -6 24 -12
v 6 9 -12
v 6 24 -12
v 7 4 -12
v 7 9 -12
v 8 0 -12
v 8 4 -12
v -12 0 8
v -10 0 8
v -8 0 8
v -4 0 8
v -3 0 8
v -2 0 8
v -1 0 8
v 1 0 8
v 2 0 8
v 6 0 8
v 8 0 8
v 11 0 8
v 12 0 8
v -12 0 7
v -10 0 7
v -8 0 7
v -4 0 7
v -3 0 7
v -2 0 7
v -1 0 7
v 1 0 7
v 2 0 7
v 6 0 7
v 8 0 7
v 11 0 7
v -11 0 -7
v -8 0 -7
v -12 0 -8
v -11 0 -8
v -8 0 -8
v -7 0 -8
v 8 0 -8
v 12 0 -8
v -8 0 -9
v -7 0 -9
v 7 0 -9
v 8 0 -9
v -8 0 -10
v -7 0 -10
v 7 0 -11
v 8 0 -11
v -8 0 -12
v -7 0 -12
v 8 0 -12
v -12 4 8
v 12 4 8
v -12 4 7
v -5 4 7
v -4 4 7
v 3 4 7
v 4 4 7
v 11 4 7
v -5 4 6
v -4 4 6
v 3 4 6
v 4 4 6
v 11 4 6
v 12 4 6
v -9 4 -6
v -8 4 -6
v 11 4 -6
v 12 4 -6
v -12 4 -7
v -9 4 -7
v -8 4 -7
v -7 4 -7
v 7 4 -7
v 11 4 -7
v -12 4 -8
v -8 4 -8
v 8 4 -8
v 12 4 -8
v -8 4 -12
v -7 4 -12
v 7 4 -12
v 8 4 -12
v -12 9 7
v -5 9 7
v -4 9 7
v 3 9 7
v 4 9 7
v 11 9 7
v -12 9 6
v -8 9 6
v -7 9 6
v -5 9 6
v -4 9 6
v 1 9 6
v 3 9 6
v 4 9 6
v 7 9 6
v 8 9 6
v 11 9 6
v -12 9 -6
v -9 9 -6
v -8 9 -6
v -6 9 -6
v 6 9 -6
v 11 9 -6
v -12 9 -7
v -9 9 -7
v -8 9 -7
v -7 9 -7
v 6 9 -7
v 7 9 -7
v 11 9 -7
v 6 9 -8
v -7 9 -12
v -6 9 -12
v 6 9 -12
v 7 9 -12
v -12 24 6
v -7 24 6
v -6 24 6
v 1 24 6
v 2 24 6
v 8 24 6
v 9 24 6
v 12 24 6
v -7 24 5
v -6 24 5
v 1 24 5
v 2 24 5
v 8 24 5
v 9 24 5
v -12 24 -6
v -6 24 -6
v 5 24 -6
v 6 24 -6
v 12 24 -6
v 5 24 -7
v 6 24 -7
v -6 24 -12
v 6 24 -12

# faces
f 4/1/1 2/1/1 1/1/1
f 5/4/1 3/4/1 2/4/1
f 5/1/1 2/1/1 4/1/1
f 6/4/1 5/4/1 4/4/1
f 7/4/1 3/4/1 5/4/1
f 7/4/1 5/4/1 6/4/1
f 8/4/1 3/4/1 7/4/1
f 9/4/1 3/4/1 8/4/1
f 10/3/1 8/3/1 7/3/1
f 11/3/1 8/3/1 10/3/1
f 12/3/1 8/3/1 11/3/1
f 13/3/1 8/3/1 12/3/1
f 14/3/1 12/3/1 11/3/1
f 15/3/1 12/3/1 14/3/1
f 20/1/1 17/1/1 16/1/1
f 21/4/1 18/4/1 17/4/1
f 21/1/1 17/1/1 20/1/1
f 22/1/1 19/1/1 18/1/1
f 23/1/1 19/1/1 22/1/1
f 24/4/1 18/4/1 21/4/1
f 24/4/1 21/4/1 20/4/1
f 24/1/1 22/1/1 18/1/1
f 25/4/1 23/4/1 22/4/1
f 25/1/1 22/1/1 24/1/1
f 28/4/1 24/4/1 20/4/1
f 28/4/1 25/4/1 24/4/1
f 29/4/1 23/4/1 25/4/1
f 29/4/1 25/4/1 28/4/1
f 30/2/1 27/2/1 26/2/1
f 31/2/1 27/2/1 30/2/1
f 34/2/1 33/2/1 32/2/1
f 35/2/1 33/2/1 34/2/1
f 38/3/1 37/3/1 36/3/1
f 39/3/1 37/3/1 38/3/1
f 42/2/1 41/2/1 40/2/1
f 43/2/1 41/2/1 42/2/1
f 46/3/1 45/3/1 44/3/1
f 47/3/1 45/3/1 46/3/1
f 48/3/2 49/3/2 50/3/2
f 50/3/2 49/3/2 51/3/2
f 52/3/2 53/3/2 54/3/2
f 54/3/2 53/3/2 55/3/2
f 56/2/2 57/2/2 58/2/2
f 58/2/2 57/2/2 59/2/2
f 60/3/2 61/3/2 64/3/2
f 61/4/2 62/4/2 65/4/2
f 64/3/2 61/3/2 65/3/2
f 62/3/2 63/3/2 66/3/2
f 65/4/2 62/4/2 66/4/2
f 64/4/2 65/4/2 67/4/2
f 65/3/2 66/3/2 68/3/2
f 67/4/2 65/4/2 68/4/2
f 67/3/2 68/3/2 69/3/2
f 68/3/2 66/3/2 70/3/2
f 69/3/2 68/3/2 70/3/2
f 69/4/2 70/4/2 71/4/2
f 70/3/2 66/3/2 71/3/2
f 66/3/2 63/3/2 72/3/2
f 71/3/2 66/3/2 72/3/2
f 69/4/2 71/4/2 73/4/2
f 71/4/2 72/4/2 73/4/2
f 73/4/2 72/4/2 74/4/2
f 73/3/2 74/3/2 75/3/2
f 74/4/2 72/4/2 76/4/2
f 75/3/2 74/3/2 76/3/2
f 75/4/2 76/4/2 77/4/2
f 76/4/2 72/4/2 77/4/2
f 72/3/2 63/3/2 78/3/2
f 77/4/2 72/4/2 78/4/2
f 75/4/2 77/4/2 79/4/2
f 77/3/2 78/3/2 80/3/2
f 79/4/2 77/4/2 80/4/2
f 78/3/2 63/3/2 81/3/2
f 80/3/2 78/3/2 81/3/2
f 82/3/2 83/3/2 84/3/2
f 84/3/2 83/3/2 85/3/2
f 86/4/2 87/4/2 90/4/2
f 87/1/2 88/1/2 91/1/2
f 90/4/2 87/4/2 91/4/2
f 88/4/2 89/4/2 92/4/2
f 91/1/2 88/1/2 92/1/2
f 90/1/2 91/1/2 93/1/2
f 91/4/2 92/4/2 94/4/2
f 93/1/2 91/1/2 94/1/2
f 93/4/2 94/4/2 95/4/2
f 92/4/2 89/4/2 96/4/2
f 95/4/2 94/4/2 96/4/2
f 94/4/2 92/4/2 96/4/2
f 97/3/2 98/3/2 101/3/2
f 101/3/2 98/3/2 102/3/2
f 99/3/2 100/3/2 103/3/2
f 103/3/2 100/3/2 104/3/2
f 105/4/2 106/4/2 107/4/2
f 107/4/2 106/4/2 108/4/2
f 108/4/2 106/4/2 109/4/2
f 109/4/2 106/4/2 110/4/2
f 108/3/2 109/3/2 111/3/2
f 111/3/2 109/3/2 112/3/2
f 116/1/3 114/1/3 113/1/3
f 116/4/3 115/4/3 114/4/3
f 117/4/3 115/4/3 116/4/3
f 118/1/3 116/1/3 113/1/3
f 118/1/3 117/1/3 116/1/3
f 119/4/3 115/4/3 117/4/3
f 119/1/3 117/1/3 118/1/3
f 120/4/3 119/4/3 118/4/3
f 121/4/3 119/4/3 120/4/3
f 122/4/3 120/4/3 118/4/3
f 123/1/3 121/1/3 120/1/3
f 123/4/3 120/4/3 122/4/3
f 124/4/3 119/4/3 121/4/3
f 124/1/3 121/1/3 123/1/3
f 125/1/3 123/1/3 122/1/3
f 125/4/3 124/4/3 123/4/3
f 126/4/3 115/4/3 119/4/3
f 126/4/3 124/4/3 125/4/3
f 126/4/3 119/4/3 124/4/3
f 127/1/3 125/1/3 122/1/3
f 127/1/3 126/1/3 125/1/3
f 128/4/3 115/4/3 126/4/3
f 128/1/3 126/1/3 127/1/3
f 129/1/3 127/1/3 122/1/3
f 130/4/3 128/4/3 127/4/3
f 130/1/3 127/1/3 129/1/3
f 131/4/3 128/4/3 130/4/3
f 132/4/3 130/4/3 129/4/3
f 133/1/3 131/1/3 130/1/3
f 133/4/3 130/4/3 132/4/3
f 134/4/3 128/4/3 131/4/3
f 134/1/3 131/1/3 133/1/3
f 135/1/3 133/1/3 132/1/3
f 136/4/3 134/4/3 133/4/3
f 136/1/3 133/1/3 135/1/3
f 137/4/3 128/4/3 134/4/3
f 137/4/3 134/4/3 136/4/3
f 138/4/3 136/4/3 135/4/3
f 139/1/3 137/1/3 136/1/3
f 139/4/3 136/4/3 138/4/3
f 140/4/3 128/4/3 137/4/3
f 140/1/3 137/1/3 139/1/3
f 141/4/3 115/4/3 128/4/3
f 141/4/3 128/4/3 140/4/3
f 142/1/3 140/1/3 139/1/3
f 142/1/3 139/1/3 138/1/3
f 142/1/3 141/1/3 140/1/3
f 143/1/3 141/1/3 142/1/3
f 144/1/3 142/1/3 138/1/3
f 145/4/3 143/4/3 142/4/3
f 145/1/3 142/1/3 144/1/3
f 146/1/3 141/1/3 143/1/3
f 146/4/3 143/4/3 145/4/3
f 147/4/3 115/4/3 141/4/3
f 147/1/3 141/1/3 146/1/3
f 148/4/3 146/4/3 145/4/3
f 148/4/3 145/4/3 144/4/3
f 148/4/3 147/4/3 146/4/3
f 149/4/3 147/4/3 148/4/3
f 150/1/3 149/1/3 148/1/3
f 151/4/3 147/4/3 149/4/3
f 151/1/3 149/1/3 150/1/3
f 152/1/3 150/1/3 148/1/3
f 152/4/3 151/4/3 150/4/3
f 153/4/3 147/4/3 151/4/3
f 153/4/3 151/4/3 152/4/3
f 154/1/3 152/1/3 148/1/3
f 154/1/3 153/1/3 152/1/3
f 155/4/3 147/4/3 153/4/3
f 155/1/3 153/1/3 154/1/3
f 156/4/3 115/4/3 147/4/3
f 156/4/3 147/4/3 155/4/3
f 157/4/3 155/4/3 154/4/3
f 157/1/3 156/1/3 155/1/3
f 158/4/3 115/4/3 156/4/3
f 158/1/3 156/1/3 157/1/3
f 159/4/3 157/4/3 154/4/3
f 159/4/3 158/4/3 157/4/3
f 160/4/3 158/4/3 159/4/3
f 161/1/3 160/1/3 159/1/3
f 161/4/3 158/4/3 160/4/3
f 162/4/3 158/4/3 161/4/3
f 163/1/3 161/1/3 159/1/3
f 163/1/3 162/1/3 161/1/3
f 164/4/3 158/4/3 162/4/3
f 164/1/3 162/1/3 163/1/3
f 165/4/3 115/4/3 158/4/3
f 165/4/3 158/4/3 164/4/3
f 166/1/3 163/1/3 159/1/3
f 167/4/3 164/4/3 163/4/3
f 167/1/3 163/1/3 166/1/3
f 168/1/3 165/1/3 164/1/3
f 168/4/3 164/4/3 167/4/3
f 169/4/3 115/4/3 165/4/3
f 169/1/3 165/1/3 168/1/3
f 170/4/3 168/4/3 167/4/3
f 170/4/3 167/4/3 166/4/3
f 170/4/3 169/4/3 168/4/3
f 171/4/3 115/4/3 169/4/3
f 171/4/3 169/4/3 170/4/3
f 174/3/3 173/3/3 172/3/3
f 175/3/3 173/3/3 174/3/3
f 178/2/3 177/2/3 176/2/3
f 179/2/3 177/2/3 178/2/3
f 182/3/3 181/3/3 180/3/3
f 183/3/3 181/3/3 182/3/3
f 186/3/3 185/3/3 184/3/3
f 187/3/3 185/3/3 186/3/3
f 188/3/3 185/3/3 187/3/3
f 189/3/3 185/3/3 188/3/3
f 190/4/3 187/4/3 186/4/3
f 191/4/3 187/4/3 190/4/3
f 192/3/3 188/3/3 187/3/3
f 192/4/3 187/4/3 191/4/3
f 193/3/3 188/3/3 192/3/3
f 194/3/3 188/3/3 193/3/3
f 195/4/3 189/4/3 188/4/3
f 195/3/3 188/3/3 194/3/3
f 196/3/3 185/3/3 189/3/3
f 196/4/3 189/4/3 195/4/3
f 197/3/3 185/3/3 196/3/3
f 198/3/3 191/3/3 190/3/3
f 198/4/3 192/4/3 191/4/3
f 198/4/3 193/4/3 192/4/3
f 199/4/3 193/4/3 198/4/3
f 200/3/3 194/3/3 193/3/3
f 200/4/3 193/4/3 199/4/3
f 201/4/3 195/4/3 194/4/3
f 201/3/3 194/3/3 200/3/3
f 201/4/3 197/4/3 196/4/3
f 201/4/3 196/4/3 195/4/3
f 202/4/3 197/4/3 201/4/3
f 203/4/3 197/4/3 202/4/3
f 205/3/3 199/3/3 198/3/3
f 205/3/3 198/3/3 190/3/3
f 206/4/3 200/4/3 199/4/3
f 206/4/3 201/4/3 200/4/3
f 206/3/3 199/3/3 205/3/3
f 206/4/3 202/4/3 201/4/3
f 207/3/3 203/3/3 202/3/3
f 207/4/3 202/4/3 206/4/3
f 208/3/3 205/3/3 204/3/3
f 208/3/3 206/3/3 205/3/3
f 208/3/3 207/3/3 206/3/3
f 209/3/3 207/3/3 208/3/3
f 210/3/3 207/3/3 209/3/3
f 211/3/3 207/3/3 210/3/3
f 212/3/3 207/3/3 211/3/3
f 213/3/3 203/3/3 207/3/3
f 213/3/3 207/3/3 212/3/3
f 214/4/3 211/4/3 210/4/3
f 215/4/3 211/4/3 214/4/3
f 216/3/3 212/3/3 211/3/3
f 216/4/3 211/4/3 215/4/3
f 217/4/3 213/4/3 212/4/3
f 217/3/3 212/3/3 216/3/3
f 218/4/3 213/4/3 217/4/3
f 219/4/3 213/4/3 218/4/3
f 221/4/3 214/4/3 210/4/3
f 222/3/3 215/3/3 214/3/3
f 222/4/3 214/4/3 221/4/3
f 223/4/3 216/4/3 215/4/3
f 223/3/3 215/3/3 222/3/3
f 223/4/3 217/4/3 216/4/3
f 223/4/3 218/4/3 217/4/3
f 224/3/3 219/3/3 218/3/3
f 224/4/3 218/4/3 223/4/3
f 225/3/3 221/3/3 220/3/3
f 225/3/3 222/3/3 221/3/3
f 225/3/3 224/3/3 223/3/3
f 225/3/3 223/3/3 222/3/3
f 226/3/3 224/3/3 225/3/3
f 227/3/3 224/3/3 226/3/3
f 228/3/3 224/3/3 227/3/3
f 229/3/3 224/3/3 228/3/3
f 230/3/3 224/3/3 229/3/3
f 231/4/3 228/4/3 227/4/3
f 232/3/3 229/3/3 228/3/3
f 232/4/3 228/4/3 231/4/3
f 233/4/3 230/4/3 229/4/3
f 233/3/3 229/3/3 232/3/3
f 234/4/3 230/4/3 233/4/3
f 235/3/3 224/3/3 230/3/3
f 235/4/3 230/4/3 234/4/3
f 236/3/3 219/3/3 224/3/3
f 236/3/3 224/3/3 235/3/3
f 237/3/3 232/3/3 231/3/3
f 237/4/3 233/4/3 232/4/3
f 238/3/3 234/3/3 233/3/3
f 238/4/3 233/4/3 237/4/3
f 239/4/3 235/4/3 234/4/3
f 239/3/3 234/3/3 238/3/3
f 239/4/3 236/4/3 235/4/3
f 240/4/3 236/4/3 239/4/3
f 241/4/3 236/4/3 240/4/3
f 242/4/3 236/4/3 241/4/3
f 243/3/3 238/3/3 237/3/3
f 243/3/3 239/3/3 238/3/3
f 243/3/3 240/3/3 239/3/3
f 243/4/3 241/4/3 240/4/3
f 244/3/3 242/3/3 241/3/3
f 244/4/3 241/4/3 243/4/3
f 246/3/3 237/3/3 231/3/3
f 246/3/3 243/3/3 237/3/3
f 246/3/3 244/3/3 243/3/3
f 247/3/3 246/3/3 245/3/3
f 248/3/3 242/3/3 244/3/3
f 248/3/3 246/3/3 247/3/3
f 248/3/3 244/3/3 246/3/3
f 249/3/4 250/3/4 252/3/4
f 251/3/4 252/3/4 253/3/4
f 252/3/4 250/3/4 254/3/4
f 253/3/4 252/3/4 254/3/4
f 254/3/4 250/3/4 255/3/4
f 255/3/4 250/3/4 256/3/4
f 257/3/4 258/3/4 265/3/4
f 262/3/4 263/3/4 265/3/4
f 261/3/4 262/3/4 265/3/4
f 260/3/4 261/3/4 265/3/4
f 259/3/4 260/3/4 265/3/4
f 258/3/4 259/3/4 265/3/4
f 264/3/4 265/3/4 266/3/4
f 265/3/4 263/3/4 267/3/4
f 266/3/4 265/3/4 267/3/4
f 268/3/4 269/3/4 270/3/4
f 270/3/4 269/3/4 271/3/4
f 272/2/4 273/2/4 274/2/4
f 274/2/4 273/2/4 275/2/4
f 276/3/4 277/3/4 278/3/4
f 278/3/4 277/3/4 279/3/4
f 280/4/4 281/4/4 282/4/4
f 282/4/4 281/4/4 283/4/4
f 283/4/4 281/4/4 284/4/4
f 284/4/4 281/4/4 285/4/4
f 282/1/4 283/1/4 286/1/4
f 283/4/4 284/4/4 286/4/4
f 284/1/4 285/1/4 287/1/4
f 286/4/4 284/4/4 287/4/4
f 285/4/4 281/4/4 288/4/4
f 287/1/4 285/1/4 288/1/4
f 286/1/4 287/1/4 289/1/4
f 282/1/4 286/1/4 289/1/4
f 287/4/4 288/4/4 290/4/4
f 289/1/4 287/1/4 290/1/4
f 282/1/4 289/1/4 291/1/4
f 289/4/4 290/4/4 292/4/4
f 291/1/4 289/1/4 292/1/4
f 288/4/4 281/4/4 293/4/4
f 292/4/4 290/4/4 293/4/4
f 290/4/4 288/4/4 293/4/4
f 294/4/4 295/4/4 298/4/4
f 296/4/4 297/4/4 298/4/4
f 295/4/4 296/4/4 298/4/4
f 298/4/4 297/4/4 299/4/4
f 300/1/4 301/1/4 303/1/4
f 301/4/4 302/4/4 304/4/4
f 303/1/4 301/1/4 304/1/4
f 304/4/4 302/4/4 305/4/4
f 303/4/4 304/4/4 307/4/4
f 305/2/4 306/2/4 307/2/4
f 304/4/4 305/4/4 307/4/4
f 307/2/4 306/2/4 308/2/4
f 307/3/4 308/3/4 310/3/4
f 308/3/4 309/3/4 310/3/4
f 310/3/4 309/3/4 311/3/4
f 303/4/4 307/4/4 312/4/4
f 307/3/4 310/3/4 312/3/4
f 312/3/4 310/3/4 313/3/4
f 303/4/4 312/4/4 314/4/4
f 314/4/4 312/4/4 315/4/4
f 329/1/5 317/1/5 316/1/5
f 330/4/5 318/4/5 317/4/5
f 330/1/5 317/1/5 329/1/5
f 331/1/5 319/1/5 318/1/5
f 331/4/5 318/4/5 330/4/5
f 332/4/5 320/4/5 319/4/5
f 332/1/5 319/1/5 331/1/5
f 333/1/5 321/1/5 320/1/5
f 333/4/5 320/4/5 332/4/5
f 334/4/5 322/4/5 321/4/5
f 334/1/5 321/1/5 333/1/5
f 335/1/5 323/1/5 322/1/5
f 335/4/5 322/4/5 334/4/5
f 336/4/5 324/4/5 323/4/5
f 336/1/5 323/1/5 335/1/5
f 337/1/5 325/1/5 324/1/5
f 337/4/5 324/4/5 336/4/5
f 338/4/5 326/4/5 325/4/5
f 338/1/5 325/1/5 337/1/5
f 339/1/5 327/1/5 326/1/5
f 339/4/5 326/4/5 338/4/5
f 340/4/5 328/4/5 327/4/5
f 340/1/5 327/1/5 339/1/5
f 341/4/5 339/4/5 338/4/5
f 341/4/5 330/4/5 329/4/5
f 341/4/5 340/4/5 339/4/5
f 341/4/5 338/4/5 337/4/5
f 341/4/5 337/4/5 336/4/5
f 341/4/5 336/4/5 335/4/5
f 341/4/5 335/4/5 334/4/5
f 341/4/5 334/4/5 333/4/5
f 341/4/5 333/4/5 332/4/5
f 341/4/5 332/4/5 331/4/5
f 341/4/5 331/4/5 330/4/5
f 342/4/5 340/4/5 341/4/5
f 343/4/5 341/4/5 329/4/5
f 344/1/5 342/1/5 341/1/5
f 344/4/5 341/4/5 343/4/5
f 345/4/5 340/4/5 342/4/5
f 345/1/5 342/1/5 344/1/5
f 346/4/5 340/4/5 345/4/5
f 347/4/5 340/4/5 346/4/5
f 348/4/5 328/4/5 340/4/5
f 348/4/5 340/4/5 347/4/5
f 349/1/5 346/1/5 345/1/5
f 350/4/5 347/4/5 346/4/5
f 350/1/5 346/1/5 349/1/5
f 351/4/5 347/4/5 350/4/5
f 352/4/5 347/4/5 351/4/5
f 353/4/5 350/4/5 349/4/5
f 353/4/5 351/4/5 350/4/5
f 354/4/5 351/4/5 353/4/5
f 355/1/5 352/1/5 351/1/5
f 355/4/5 351/4/5 354/4/5
f 356/1/5 352/1/5 355/1/5
f 357/1/5 354/1/5 353/1/5
f 358/4/5 355/4/5 354/4/5
f 358/1/5 354/1/5 357/1/5
f 358/4/5 356/4/5 355/4/5
f 359/4/5 356/4/5 358/4/5
f 360/4/6 361/4/6 362/4/6
f 362/4/6 361/4/6 363/4/6
f 363/4/6 361/4/6 364/4/6
f 364/4/6 361/4/6 365/4/6
f 365/4/6 361/4/6 366/4/6
f 366/4/6 361/4/6 367/4/6
f 363/4/6 364/4/6 368/4/6
f 368/4/6 364/4/6 369/4/6
f 365/4/6 366/4/6 370/4/6
f 370/4/6 366/4/6 371/4/6
f 367/4/6 361/4/6 372/4/6
f 372/4/6 361/4/6 373/4/6
f 374/4/6 375/4/6 379/4/6
f 379/4/6 375/4/6 380/4/6
f 376/4/6 377/4/6 383/4/6
f 380/4/6 381/4/6 384/4/6
f 378/4/6 379/4/6 384/4/6
f 379/4/6 380/4/6 384/4/6
f 384/4/6 381/4/6 385/4/6
f 382/4/6 383/4/6 386/4/6
f 383/4/6 377/4/6 387/4/6
f 386/4/6 383/4/6 387/4/6
f 385/4/6 381/4/6 388/4/6
f 388/4/6 381/4/6 389/4/6
f 382/4/6 386/4/6 390/4/6
f 390/4/6 386/4/6 391/4/6
f 392/3/6 393/3/6 398/3/6
f 398/3/6 393/3/6 399/3/6
f 399/3/6 393/3/6 400/3/6
f 400/3/6 393/3/6 401/3/6
f 394/2/6 395/2/6 402/2/6
f 402/2/6 395/2/6 403/2/6
f 403/2/6 395/2/6 404/2/6
f 396/3/6 397/3/6 405/3/6
f 405/3/6 397/3/6 406/3/6
f 406/3/6 397/3/6 407/3/6
f 407/3/6 397/3/6 408/3/6
f 409/3/6 410/3/6 415/3/6
f 415/3/6 410/3/6 416/3/6
f 411/2/6 412/2/6 417/2/6
f 417/2/6 412/2/6 418/2/6
f 413/3/6 414/3/6 419/3/6
f 419/3/6 414/3/6 420/3/6
f 420/3/6 414/3/6 421/3/6
f 419/3/6 420/3/6 422/3/6
f 418/2/6 412/2/6 423/2/6
f 423/2/6 412/2/6 424/2/6
f 422/3/6 420/3/6 425/3/6
f 425/3/6 420/3/6 426/3/6
f 427/3/6 428/3/6 435/3/6
f 428/4/6 429/4/6 435/4/6
f 429/3/6 430/3/6 436/3/6
f 435/4/6 429/4/6 436/4/6
f 430/4/6 431/4/6 437/4/6
f 436/3/6 430/3/6 437/3/6
f 431/3/6 432/3/6 438/3/6
f 437/4/6 431/4/6 438/4/6
f 432/4/6 433/4/6 439/4/6
f 438/3/6 432/3/6 439/3/6
f 433/3/6 434/3/6 440/3/6
f 439/4/6 433/4/6 440/4/6
f 438/3/6 439/3/6 441/3/6
f 437/3/6 438/3/6 441/3/6
f 439/3/6 440/3/6 441/3/6
f 436/3/6 437/3/6 441/3/6
f 435/3/6 436/3/6 441/3/6
f 427/3/6 435/3/6 441/3/6
f 441/3/6 440/3/6 442/3/6
f 442/3/6 440/3/6 443/3/6
f 443/3/6 440/3/6 444/3/6
f 440/3/6 434/3/6 445/3/6
f 444/3/6 440/3/6 445/3/6
f 443/4/6 444/4/6 446/4/6
f 442/3/6 443/3/6 446/3/6
f 446/4/6 444/4/6 447/4/6
f 442/3/6 446/3/6 448/3/6
f 446/3/6 447/3/6 448/3/6
f 448/3/6 447/3/6 449/3/6
