# MagicaVoxel @ Ephtracy

# material
mtllib WallCornerFill.mtl
usemtl palette

# normals
vn -1 0 0
vn 1 0 0
vn 0 0 1
vn 0 0 -1
vn 0 -1 0
vn 0 1 0

# texcoords
vt 0.939453 0.5
vt 0.970703 0.5
vt 0.978516 0.5
vt 0.982422 0.5

# verts
v -12 0 8
v -12 0 7
v -12 0 -12
v -12 1 8
v -12 1 7
v -12 4 8
v -12 4 7
v -12 4 -12
v -12 9 7
v -12 9 6
v -12 24 6
v -12 24 -12
v -4 4 7
v -4 4 6
v -4 9 7
v -4 9 6
v 4 4 7
v 4 4 6
v 4 9 7
v 4 9 6
v -5 4 7
v -5 4 6
v -5 9 7
v -5 9 6
v 3 4 7
v 3 4 6
v 3 9 7
v 3 9 6
v 6 4 1
v 6 4 -0
v 6 4 -7
v 6 4 -8
v 6 9 6
v 6 9 2
v 6 9 1
v 6 9 -0
v 6 9 -7
v 6 9 -8
v 6 9 -12
v 6 10 -6
v 6 10 -7
v 6 10 -8
v 6 11 2
v 6 11 1
v 6 11 -0
v 6 12 -5
v 6 12 -6
v 6 13 2
v 6 13 1
v 6 14 1
v 6 14 -0
v 6 14 -6
v 6 14 -7
v 6 15 1
v 6 15 -0
v 6 15 -6
v 6 15 -7
v 6 16 -5
v 6 16 -6
v 6 16 -7
v 6 16 -8
v 6 17 2
v 6 17 1
v 6 18 -6
v 6 18 -7
v 6 19 2
v 6 19 1
v 6 20 -6
v 6 20 -7
v 6 21 2
v 6 21 1
v 6 21 -7
v 6 21 -8
v 6 24 6
v 6 24 1
v 6 24 -0
v 6 24 -6
v 6 24 -7
v 6 24 -12
v 7 4 7
v 7 4 1
v 7 4 -0
v 7 4 -7
v 7 4 -8
v 7 4 -12
v 7 9 7
v 7 9 1
v 7 9 -0
v 7 9 -7
v 7 9 -8
v 7 9 -12
v 8 0 8
v 8 0 7
v 8 0 4
v 8 0 3
v 8 0 -1
v 8 0 -2
v 8 0 -3
v 8 0 -4
v 8 0 -6
v 8 0 -7
v 8 0 -8
v 8 0 -9
v 8 0 -11
v 8 0 -12
v 8 1 7
v 8 1 6
v 8 1 3
v 8 1 -0
v 8 1 -4
v 8 1 -6
v 8 1 -7
v 8 1 -8
v 8 1 -9
v 8 1 -11
v 8 2 6
v 8 2 4
v 8 2 3
v 8 2 2
v 8 2 1
v 8 2 -0
v 8 2 -1
v 8 2 -2
v 8 2 -3
v 8 2 -6
v 8 2 -7
v 8 3 4
v 8 3 3
v 8 3 2
v 8 3 1
v 8 3 -1
v 8 3 -2
v 8 3 -8
v 8 3 -9
v 8 4 8
v 8 4 -12
v -12 0 8
v -12 1 8
v -12 4 8
v -11 1 8
v -11 3 8
v -10 0 8
v -10 3 8
v -9 1 8
v -9 2 8
v -8 0 8
v -8 1 8
v -8 2 8
v -7 1 8
v -7 3 8
v -6 1 8
v -6 3 8
v -4 0 8
v -4 1 8
v -4 2 8
v -3 0 8
v -3 1 8
v -3 2 8
v -2 0 8
v -2 1 8
v -2 2 8
v -1 0 8
v -1 1 8
v -1 2 8
v -1 3 8
v 0 1 8
v 0 2 8
v 1 0 8
v 1 1 8
v 1 2 8
v 1 3 8
v 2 0 8
v 2 2 8
v 3 1 8
v 3 2 8
v 5 1 8
v 5 2 8
v 6 0 8
v 6 2 8
v 6 3 8
v 7 2 8
v 7 3 8
v 8 0 8
v 8 4 8
v -12 4 7
v -12 9 7
v -5 4 7
v -5 9 7
v -4 4 7
v -4 9 7
v 3 4 7
v 3 9 7
v 4 4 7
v 4 9 7
v 7 4 7
v 7 9 7
v -12 9 6
v -12 24 6
v -8 9 6
v -8 13 6
v -8 20 6
v -8 22 6
v -7 9 6
v -7 11 6
v -7 13 6
v -7 15 6
v -7 16 6
v -7 20 6
v -7 22 6
v -7 24 6
v -6 11 6
v -6 14 6
v -6 15 6
v -6 16 6
v -6 19 6
v -6 24 6
v -5 4 6
v -5 9 6
v -5 14 6
v -5 19 6
v -4 4 6
v -4 9 6
v 1 9 6
v 1 15 6
v 1 17 6
v 1 24 6
v 2 12 6
v 2 14 6
v 2 15 6
v 2 17 6
v 2 22 6
v 2 24 6
v 3 4 6
v 3 9 6
v 3 12 6
v 3 14 6
v 3 22 6
v 4 4 6
v 4 9 6
v 6 9 6
v 6 24 6
v 6 4 -0
v 6 9 -0
v 7 4 -0
v 7 9 -0
v 6 4 -8
v 6 9 -8
v 7 4 -8
v 7 9 -8
v 6 4 1
v 6 9 1
v 7 4 1
v 7 9 1
v 6 4 -7
v 6 9 -7
v 7 4 -7
v 7 9 -7
v -12 0 -12
v -12 4 -12
v -12 24 -12
v 6 9 -12
v 6 24 -12
v 7 4 -12
v 7 9 -12
v 8 0 -12
v 8 4 -12
v -12 0 8
v -10 0 8
v -8 0 8
v -4 0 8
v -3 0 8
v -2 0 8
v -1 0 8
v 1 0 8
v 2 0 8
v 6 0 8
v 8 0 8
v -12 0 7
v -10 0 7
v -8 0 7
v -4 0 7
v -3 0 7
v -2 0 7
v -1 0 7
v 1 0 7
v 2 0 7
v 6 0 7
v 7 0 7
v 8 0 7
v 7 0 4
v 8 0 4
v 7 0 3
v 8 0 3
v 7 0 -1
v 8 0 -1
v 7 0 -2
v 8 0 -2
v 7 0 -3
v 8 0 -3
v 7 0 -4
v 8 0 -4
v 7 0 -6
v 8 0 -6
v 7 0 -7
v 8 0 -7
v 7 0 -8
v 8 0 -8
v 7 0 -9
v 8 0 -9
v 7 0 -11
v 8 0 -11
v -12 0 -12
v 8 0 -12
v -12 4 8
v 8 4 8
v -12 4 7
v -5 4 7
v -4 4 7
v 3 4 7
v 4 4 7
v 7 4 7
v -5 4 6
v -4 4 6
v 3 4 6
v 4 4 6
v 6 4 1
v 7 4 1
v 6 4 -0
v 7 4 -0
v 6 4 -7
v 7 4 -7
v 6 4 -8
v 7 4 -8
v 7 4 -12
v 8 4 -12
v -12 9 7
v -5 9 7
v -4 9 7
v 3 9 7
v 4 9 7
v 7 9 7
v -12 9 6
v -8 9 6
v -7 9 6
v -5 9 6
v -4 9 6
v 1 9 6
v 3 9 6
v 4 9 6
v 6 9 6
v 6 9 2
v 6 9 1
v 7 9 1
v 6 9 -0
v 7 9 -0
v 6 9 -7
v 7 9 -7
v 6 9 -8
v 7 9 -8
v 6 9 -12
v 7 9 -12
v -12 24 6
v -7 24 6
v -6 24 6
v 1 24 6
v 2 24 6
v 6 24 6
v -7 24 5
v -6 24 5
v 1 24 5
v 2 24 5
v 5 24 1
v 6 24 1
v 5 24 -0
v 6 24 -0
v 5 24 -6
v 6 24 -6
v 5 24 -7
v 6 24 -7
v -12 24 -12
v 6 24 -12

# faces
f 4/1/1 2/1/1 1/1/1
f 5/4/1 3/4/1 2/4/1
f 5/1/1 2/1/1 4/1/1
f 6/4/1 5/4/1 4/4/1
f 7/4/1 3/4/1 5/4/1
f 7/4/1 5/4/1 6/4/1
f 8/4/1 3/4/1 7/4/1
f 9/3/1 8/3/1 7/3/1
f 10/3/1 8/3/1 9/3/1
f 11/3/1 8/3/1 10/3/1
f 12/3/1 8/3/1 11/3/1
f 15/2/1 14/2/1 13/2/1
f 16/2/1 14/2/1 15/2/1
f 19/3/1 18/3/1 17/3/1
f 20/3/1 18/3/1 19/3/1
f 21/3/2 22/3/2 23/3/2
f 23/3/2 22/3/2 24/3/2
f 25/2/2 26/2/2 27/2/2
f 27/2/2 26/2/2 28/2/2
f 29/3/2 30/3/2 35/3/2
f 35/3/2 30/3/2 36/3/2
f 31/3/2 32/3/2 37/3/2
f 37/3/2 32/3/2 38/3/2
f 35/3/2 36/3/2 40/3/2
f 36/3/2 37/3/2 40/3/2
f 37/4/2 38/4/2 41/4/2
f 40/3/2 37/3/2 41/3/2
f 38/3/2 39/3/2 42/3/2
f 41/4/2 38/4/2 42/4/2
f 33/3/2 34/3/2 43/3/2
f 34/4/2 35/4/2 43/4/2
f 35/3/2 40/3/2 44/3/2
f 43/4/2 35/4/2 44/4/2
f 44/3/2 40/3/2 45/3/2
f 45/3/2 40/3/2 46/3/2
f 40/4/2 41/4/2 47/4/2
f 46/3/2 40/3/2 47/3/2
f 33/3/2 43/3/2 48/3/2
f 43/3/2 44/3/2 48/3/2
f 44/4/2 45/4/2 49/4/2
f 48/3/2 44/3/2 49/3/2
f 48/4/2 49/4/2 50/4/2
f 49/4/2 45/4/2 50/4/2
f 45/3/2 46/3/2 51/3/2
f 50/4/2 45/4/2 51/4/2
f 47/4/2 41/4/2 52/4/2
f 46/4/2 47/4/2 52/4/2
f 41/3/2 42/3/2 53/3/2
f 52/4/2 41/4/2 53/4/2
f 48/4/2 50/4/2 54/4/2
f 50/3/2 51/3/2 54/3/2
f 51/3/2 46/3/2 55/3/2
f 54/3/2 51/3/2 55/3/2
f 46/4/2 52/4/2 56/4/2
f 52/3/2 53/3/2 56/3/2
f 53/3/2 42/3/2 57/3/2
f 56/3/2 53/3/2 57/3/2
f 46/4/2 56/4/2 58/4/2
f 55/3/2 46/3/2 58/3/2
f 56/4/2 57/4/2 58/4/2
f 58/4/2 57/4/2 59/4/2
f 57/3/2 42/3/2 60/3/2
f 59/4/2 57/4/2 60/4/2
f 42/3/2 39/3/2 61/3/2
f 60/3/2 42/3/2 61/3/2
f 33/3/2 48/3/2 62/3/2
f 48/4/2 54/4/2 62/4/2
f 54/4/2 55/4/2 62/4/2
f 62/4/2 55/4/2 63/4/2
f 59/4/2 60/4/2 64/4/2
f 58/3/2 59/3/2 64/3/2
f 60/4/2 61/4/2 64/4/2
f 64/4/2 61/4/2 65/4/2
f 62/3/2 63/3/2 66/3/2
f 33/3/2 62/3/2 66/3/2
f 63/4/2 55/4/2 67/4/2
f 66/3/2 63/3/2 67/3/2
f 64/3/2 65/3/2 68/3/2
f 58/3/2 64/3/2 68/3/2
f 65/4/2 61/4/2 69/4/2
f 68/3/2 65/3/2 69/3/2
f 33/3/2 66/3/2 70/3/2
f 66/4/2 67/4/2 70/4/2
f 67/4/2 55/4/2 71/4/2
f 70/4/2 67/4/2 71/4/2
f 69/4/2 61/4/2 72/4/2
f 68/4/2 69/4/2 72/4/2
f 61/3/2 39/3/2 73/3/2
f 72/4/2 61/4/2 73/4/2
f 33/3/2 70/3/2 74/3/2
f 70/3/2 71/3/2 74/3/2
f 71/4/2 55/4/2 75/4/2
f 74/3/2 71/3/2 75/3/2
f 58/3/2 68/3/2 76/3/2
f 75/4/2 55/4/2 76/4/2
f 55/3/2 58/3/2 76/3/2
f 68/4/2 72/4/2 77/4/2
f 76/3/2 68/3/2 77/3/2
f 72/3/2 73/3/2 78/3/2
f 77/4/2 72/4/2 78/4/2
f 73/3/2 39/3/2 79/3/2
f 78/3/2 73/3/2 79/3/2
f 80/3/2 81/3/2 86/3/2
f 86/3/2 81/3/2 87/3/2
f 82/2/2 83/2/2 88/2/2
f 88/2/2 83/2/2 89/2/2
f 84/3/2 85/3/2 90/3/2
f 90/3/2 85/3/2 91/3/2
f 92/4/2 93/4/2 106/4/2
f 93/1/2 94/1/2 106/1/2
f 106/1/2 94/1/2 107/1/2
f 94/4/2 95/4/2 108/4/2
f 95/1/2 96/1/2 108/1/2
f 108/1/2 96/1/2 109/1/2
f 98/4/2 99/4/2 110/4/2
f 99/1/2 100/1/2 110/1/2
f 100/4/2 101/4/2 111/4/2
f 110/1/2 100/1/2 111/1/2
f 101/1/2 102/1/2 112/1/2
f 111/4/2 101/4/2 112/4/2
f 102/4/2 103/4/2 113/4/2
f 112/1/2 102/1/2 113/1/2
f 103/1/2 104/1/2 114/1/2
f 113/4/2 103/4/2 114/4/2
f 104/4/2 105/4/2 115/4/2
f 114/1/2 104/1/2 115/1/2
f 107/1/2 94/1/2 116/1/2
f 106/4/2 107/4/2 116/4/2
f 108/4/2 109/4/2 117/4/2
f 116/1/2 94/1/2 117/1/2
f 94/4/2 108/4/2 117/4/2
f 117/4/2 109/4/2 118/4/2
f 118/4/2 109/4/2 119/4/2
f 119/4/2 109/4/2 120/4/2
f 109/1/2 96/1/2 121/1/2
f 120/4/2 109/4/2 121/4/2
f 96/4/2 97/4/2 122/4/2
f 121/1/2 96/1/2 122/1/2
f 97/1/2 98/1/2 123/1/2
f 122/4/2 97/4/2 123/4/2
f 98/4/2 110/4/2 124/4/2
f 123/1/2 98/1/2 124/1/2
f 110/4/2 111/4/2 124/4/2
f 111/1/2 112/1/2 125/1/2
f 124/4/2 111/4/2 125/4/2
f 112/4/2 113/4/2 126/4/2
f 125/1/2 112/1/2 126/1/2
f 116/4/2 117/4/2 127/4/2
f 117/1/2 118/1/2 127/1/2
f 118/4/2 119/4/2 128/4/2
f 127/1/2 118/1/2 128/1/2
f 119/1/2 120/1/2 129/1/2
f 128/4/2 119/4/2 129/4/2
f 120/4/2 121/4/2 130/4/2
f 129/1/2 120/1/2 130/1/2
f 121/4/2 122/4/2 130/4/2
f 122/1/2 123/1/2 131/1/2
f 130/4/2 122/4/2 131/4/2
f 124/4/2 125/4/2 132/4/2
f 131/1/2 123/1/2 132/1/2
f 125/4/2 126/4/2 132/4/2
f 123/4/2 124/4/2 132/4/2
f 113/1/2 114/1/2 133/1/2
f 132/4/2 126/4/2 133/4/2
f 126/4/2 113/4/2 133/4/2
f 114/4/2 115/4/2 134/4/2
f 133/1/2 114/1/2 134/1/2
f 131/4/2 132/4/2 135/4/2
f 130/4/2 131/4/2 135/4/2
f 133/4/2 134/4/2 135/4/2
f 116/4/2 127/4/2 135/4/2
f 129/4/2 130/4/2 135/4/2
f 106/4/2 116/4/2 135/4/2
f 127/4/2 128/4/2 135/4/2
f 92/4/2 106/4/2 135/4/2
f 128/4/2 129/4/2 135/4/2
f 132/4/2 133/4/2 135/4/2
f 134/4/2 115/4/2 136/4/2
f 135/4/2 134/4/2 136/4/2
f 115/4/2 105/4/2 136/4/2
f 140/1/3 138/1/3 137/1/3
f 140/4/3 139/4/3 138/4/3
f 141/4/3 139/4/3 140/4/3
f 142/1/3 140/1/3 137/1/3
f 142/1/3 141/1/3 140/1/3
f 143/4/3 139/4/3 141/4/3
f 143/1/3 141/1/3 142/1/3
f 144/4/3 143/4/3 142/4/3
f 145/4/3 143/4/3 144/4/3
f 146/4/3 144/4/3 142/4/3
f 147/1/3 145/1/3 144/1/3
f 147/4/3 144/4/3 146/4/3
f 148/4/3 143/4/3 145/4/3
f 148/1/3 145/1/3 147/1/3
f 149/1/3 147/1/3 146/1/3
f 149/4/3 148/4/3 147/4/3
f 150/4/3 139/4/3 143/4/3
f 150/4/3 148/4/3 149/4/3
f 150/4/3 143/4/3 148/4/3
f 151/1/3 149/1/3 146/1/3
f 151/1/3 150/1/3 149/1/3
f 152/4/3 139/4/3 150/4/3
f 152/1/3 150/1/3 151/1/3
f 153/1/3 151/1/3 146/1/3
f 154/4/3 152/4/3 151/4/3
f 154/1/3 151/1/3 153/1/3
f 155/4/3 152/4/3 154/4/3
f 156/4/3 154/4/3 153/4/3
f 157/1/3 155/1/3 154/1/3
f 157/4/3 154/4/3 156/4/3
f 158/4/3 152/4/3 155/4/3
f 158/1/3 155/1/3 157/1/3
f 159/1/3 157/1/3 156/1/3
f 160/4/3 158/4/3 157/4/3
f 160/1/3 157/1/3 159/1/3
f 161/4/3 152/4/3 158/4/3
f 161/4/3 158/4/3 160/4/3
f 162/4/3 160/4/3 159/4/3
f 163/1/3 161/1/3 160/1/3
f 163/4/3 160/4/3 162/4/3
f 164/4/3 152/4/3 161/4/3
f 164/1/3 161/1/3 163/1/3
f 165/4/3 139/4/3 152/4/3
f 165/4/3 152/4/3 164/4/3
f 166/1/3 164/1/3 163/1/3
f 166/1/3 163/1/3 162/1/3
f 166/1/3 165/1/3 164/1/3
f 167/1/3 165/1/3 166/1/3
f 168/1/3 166/1/3 162/1/3
f 169/4/3 167/4/3 166/4/3
f 169/1/3 166/1/3 168/1/3
f 170/1/3 165/1/3 167/1/3
f 170/4/3 167/4/3 169/4/3
f 171/4/3 139/4/3 165/4/3
f 171/1/3 165/1/3 170/1/3
f 172/4/3 170/4/3 169/4/3
f 172/4/3 169/4/3 168/4/3
f 172/4/3 171/4/3 170/4/3
f 173/4/3 171/4/3 172/4/3
f 174/1/3 173/1/3 172/1/3
f 175/4/3 171/4/3 173/4/3
f 175/1/3 173/1/3 174/1/3
f 176/1/3 174/1/3 172/1/3
f 176/4/3 175/4/3 174/4/3
f 177/4/3 171/4/3 175/4/3
f 177/4/3 175/4/3 176/4/3
f 178/1/3 176/1/3 172/1/3
f 178/1/3 177/1/3 176/1/3
f 179/4/3 171/4/3 177/4/3
f 179/1/3 177/1/3 178/1/3
f 180/4/3 139/4/3 171/4/3
f 180/4/3 171/4/3 179/4/3
f 181/4/3 179/4/3 178/4/3
f 181/1/3 180/1/3 179/1/3
f 182/4/3 139/4/3 180/4/3
f 182/1/3 180/1/3 181/1/3
f 183/4/3 181/4/3 178/4/3
f 183/4/3 182/4/3 181/4/3
f 184/4/3 139/4/3 182/4/3
f 184/4/3 182/4/3 183/4/3
f 187/3/3 186/3/3 185/3/3
f 188/3/3 186/3/3 187/3/3
f 191/2/3 190/2/3 189/2/3
f 192/2/3 190/2/3 191/2/3
f 195/3/3 194/3/3 193/3/3
f 196/3/3 194/3/3 195/3/3
f 199/3/3 198/3/3 197/3/3
f 200/3/3 198/3/3 199/3/3
f 201/3/3 198/3/3 200/3/3
f 202/3/3 198/3/3 201/3/3
f 203/4/3 200/4/3 199/4/3
f 204/4/3 200/4/3 203/4/3
f 205/3/3 201/3/3 200/3/3
f 205/4/3 200/4/3 204/4/3
f 206/3/3 201/3/3 205/3/3
f 207/3/3 201/3/3 206/3/3
f 208/4/3 202/4/3 201/4/3
f 208/3/3 201/3/3 207/3/3
f 209/3/3 198/3/3 202/3/3
f 209/4/3 202/4/3 208/4/3
f 210/3/3 198/3/3 209/3/3
f 211/3/3 204/3/3 203/3/3
f 211/4/3 205/4/3 204/4/3
f 211/4/3 206/4/3 205/4/3
f 212/4/3 206/4/3 211/4/3
f 213/3/3 207/3/3 206/3/3
f 213/4/3 206/4/3 212/4/3
f 214/4/3 208/4/3 207/4/3
f 214/3/3 207/3/3 213/3/3
f 214/4/3 210/4/3 209/4/3
f 214/4/3 209/4/3 208/4/3
f 215/4/3 210/4/3 214/4/3
f 216/4/3 210/4/3 215/4/3
f 218/3/3 212/3/3 211/3/3
f 218/3/3 211/3/3 203/3/3
f 219/4/3 213/4/3 212/4/3
f 219/4/3 214/4/3 213/4/3
f 219/3/3 212/3/3 218/3/3
f 219/4/3 215/4/3 214/4/3
f 220/3/3 216/3/3 215/3/3
f 220/4/3 215/4/3 219/4/3
f 221/3/3 218/3/3 217/3/3
f 221/3/3 219/3/3 218/3/3
f 221/3/3 220/3/3 219/3/3
f 222/3/3 220/3/3 221/3/3
f 223/3/3 220/3/3 222/3/3
f 224/3/3 220/3/3 223/3/3
f 225/3/3 220/3/3 224/3/3
f 226/3/3 216/3/3 220/3/3
f 226/3/3 220/3/3 225/3/3
f 227/4/3 224/4/3 223/4/3
f 228/4/3 224/4/3 227/4/3
f 229/3/3 225/3/3 224/3/3
f 229/4/3 224/4/3 228/4/3
f 230/4/3 226/4/3 225/4/3
f 230/3/3 225/3/3 229/3/3
f 231/4/3 226/4/3 230/4/3
f 232/4/3 226/4/3 231/4/3
f 234/4/3 227/4/3 223/4/3
f 235/3/3 228/3/3 227/3/3
f 235/4/3 227/4/3 234/4/3
f 236/4/3 229/4/3 228/4/3
f 236/3/3 228/3/3 235/3/3
f 236/4/3 230/4/3 229/4/3
f 236/4/3 231/4/3 230/4/3
f 237/3/3 232/3/3 231/3/3
f 237/4/3 231/4/3 236/4/3
f 238/3/3 234/3/3 233/3/3
f 238/3/3 235/3/3 234/3/3
f 238/3/3 237/3/3 236/3/3
f 238/3/3 236/3/3 235/3/3
f 239/3/3 237/3/3 238/3/3
f 240/3/3 237/3/3 239/3/3
f 241/3/3 232/3/3 237/3/3
f 241/3/3 237/3/3 240/3/3
f 244/2/3 243/2/3 242/2/3
f 245/2/3 243/2/3 244/2/3
f 248/3/3 247/3/3 246/3/3
f 249/3/3 247/3/3 248/3/3
f 250/3/4 251/3/4 252/3/4
f 252/3/4 251/3/4 253/3/4
f 254/2/4 255/2/4 256/2/4
f 256/2/4 255/2/4 257/2/4
f 259/3/4 260/3/4 261/3/4
f 261/3/4 260/3/4 262/3/4
f 258/4/4 259/4/4 263/4/4
f 259/3/4 261/3/4 263/3/4
f 263/3/4 261/3/4 264/3/4
f 258/4/4 263/4/4 265/4/4
f 265/4/4 263/4/4 266/4/4
f 278/1/5 268/1/5 267/1/5
f 279/4/5 269/4/5 268/4/5
f 279/1/5 268/1/5 278/1/5
f 280/1/5 270/1/5 269/1/5
f 280/4/5 269/4/5 279/4/5
f 281/4/5 271/4/5 270/4/5
f 281/1/5 270/1/5 280/1/5
f 282/1/5 272/1/5 271/1/5
f 282/4/5 271/4/5 281/4/5
f 283/4/5 273/4/5 272/4/5
f 283/1/5 272/1/5 282/1/5
f 284/1/5 274/1/5 273/1/5
f 284/4/5 273/4/5 283/4/5
f 285/4/5 275/4/5 274/4/5
f 285/1/5 274/1/5 284/1/5
f 286/1/5 276/1/5 275/1/5
f 286/4/5 275/4/5 285/4/5
f 287/4/5 277/4/5 276/4/5
f 287/1/5 276/1/5 286/1/5
f 288/4/5 277/4/5 287/4/5
f 289/4/5 277/4/5 288/4/5
f 290/4/5 286/4/5 285/4/5
f 290/4/5 279/4/5 278/4/5
f 290/1/5 289/1/5 288/1/5
f 290/4/5 288/4/5 287/4/5
f 290/4/5 287/4/5 286/4/5
f 290/4/5 285/4/5 284/4/5
f 290/4/5 284/4/5 283/4/5
f 290/4/5 283/4/5 282/4/5
f 290/4/5 282/4/5 281/4/5
f 290/4/5 281/4/5 280/4/5
f 290/4/5 280/4/5 279/4/5
f 291/1/5 289/1/5 290/1/5
f 292/4/5 290/4/5 278/4/5
f 292/4/5 291/4/5 290/4/5
f 293/4/5 291/4/5 292/4/5
f 294/4/5 292/4/5 278/4/5
f 294/1/5 293/1/5 292/1/5
f 295/1/5 293/1/5 294/1/5
f 296/4/5 294/4/5 278/4/5
f 296/4/5 295/4/5 294/4/5
f 297/4/5 295/4/5 296/4/5
f 298/4/5 296/4/5 278/4/5
f 298/1/5 297/1/5 296/1/5
f 299/1/5 297/1/5 298/1/5
f 300/4/5 298/4/5 278/4/5
f 300/4/5 299/4/5 298/4/5
f 301/4/5 299/4/5 300/4/5
f 302/4/5 300/4/5 278/4/5
f 302/1/5 301/1/5 300/1/5
f 303/1/5 301/1/5 302/1/5
f 304/4/5 302/4/5 278/4/5
f 304/4/5 303/4/5 302/4/5
f 305/4/5 303/4/5 304/4/5
f 306/4/5 304/4/5 278/4/5
f 306/1/5 305/1/5 304/1/5
f 307/1/5 305/1/5 306/1/5
f 308/4/5 306/4/5 278/4/5
f 308/4/5 307/4/5 306/4/5
f 309/4/5 307/4/5 308/4/5
f 310/4/5 308/4/5 278/4/5
f 310/1/5 309/1/5 308/1/5
f 311/1/5 309/1/5 310/1/5
f 312/4/5 310/4/5 278/4/5
f 312/4/5 311/4/5 310/4/5
f 313/4/5 311/4/5 312/4/5
f 314/4/6 315/4/6 316/4/6
f 316/4/6 315/4/6 317/4/6
f 317/4/6 315/4/6 318/4/6
f 318/4/6 315/4/6 319/4/6
f 319/4/6 315/4/6 320/4/6
f 320/4/6 315/4/6 321/4/6
f 317/4/6 318/4/6 322/4/6
f 322/4/6 318/4/6 323/4/6
f 319/4/6 320/4/6 324/4/6
f 324/4/6 320/4/6 325/4/6
f 321/4/6 315/4/6 327/4/6
f 326/4/6 327/4/6 328/4/6
f 327/4/6 315/4/6 329/4/6
f 328/4/6 327/4/6 329/4/6
f 329/4/6 315/4/6 331/4/6
f 330/4/6 331/4/6 332/4/6
f 331/4/6 315/4/6 333/4/6
f 332/4/6 331/4/6 333/4/6
f 333/4/6 315/4/6 334/4/6
f 334/4/6 315/4/6 335/4/6
f 336/3/6 337/3/6 342/3/6
f 342/3/6 337/3/6 343/3/6
f 343/3/6 337/3/6 344/3/6
f 344/3/6 337/3/6 345/3/6
f 338/2/6 339/2/6 346/2/6
f 346/2/6 339/2/6 347/2/6
f 347/2/6 339/2/6 348/2/6
f 340/3/6 341/3/6 349/3/6
f 349/3/6 341/3/6 350/3/6
f 350/3/6 341/3/6 351/3/6
f 351/3/6 341/3/6 352/3/6
f 352/3/6 341/3/6 353/3/6
f 354/2/6 355/2/6 356/2/6
f 356/2/6 355/2/6 357/2/6
f 358/3/6 359/3/6 360/3/6
f 360/3/6 359/3/6 361/3/6
f 362/3/6 363/3/6 368/3/6
f 363/4/6 364/4/6 368/4/6
f 364/3/6 365/3/6 369/3/6
f 368/4/6 364/4/6 369/4/6
f 365/4/6 366/4/6 370/4/6
f 369/3/6 365/3/6 370/3/6
f 366/3/6 367/3/6 371/3/6
f 370/4/6 366/4/6 371/4/6
f 369/3/6 370/3/6 372/3/6
f 371/3/6 367/3/6 372/3/6
f 370/3/6 371/3/6 372/3/6
f 368/3/6 369/3/6 372/3/6
f 372/3/6 367/3/6 373/3/6
f 368/3/6 372/3/6 374/3/6
f 372/4/6 373/4/6 374/4/6
f 374/4/6 373/4/6 375/4/6
f 368/3/6 374/3/6 376/3/6
f 374/3/6 375/3/6 376/3/6
f 376/3/6 375/3/6 377/3/6
f 368/3/6 376/3/6 378/3/6
f 376/4/6 377/4/6 378/4/6
f 378/4/6 377/4/6 379/4/6
f 362/3/6 368/3/6 380/3/6
f 368/3/6 378/3/6 380/3/6
f 378/3/6 379/3/6 380/3/6
f 380/3/6 379/3/6 381/3/6
